STARTFONT 2.1
FONTBOUNDINGBOX 12 12 0 -2
STARTPROPERTIES 2
FONT_ASCENT 10
FONT_DESCENT 2
ENDPROPERTIES
CHARS 7442
STARTCHAR 0000
ENCODING 0
SWIDTH 520 0
DWIDTH 12 0
BBX 12 12 0 -2
BITMAP
0000
0000
0000
0000
0000
0000
0000
0000
0000
0000
0000
0000
ENDCHAR
STARTCHAR 0101
ENCODING 257
SWIDTH 520 0
DWIDTH 12 0
BBX 12 12 0 -2
BITMAP
0000
0000
0000
3000
0000
7800
4800
4800
4800
7800
0000
0000
ENDCHAR
STARTCHAR 0113
ENCODING 275
SWIDTH 520 0
DWIDTH 12 0
BBX 12 12 0 -2
BITMAP
0000
0000
0000
2000
0000
7800
4800
7000
4000
3800
0000
0000
ENDCHAR
STARTCHAR 011B
ENCODING 283
SWIDTH 520 0
DWIDTH 12 0
BBX 12 12 0 -2
BITMAP
0000
0000
5000
3000
1000
6800
4800
7000
4000
3800
0000
0000
ENDCHAR
STARTCHAR 012B
ENCODING 299
SWIDTH 520 0
DWIDTH 12 0
BBX 12 12 0 -2
BITMAP
0000
0000
0000
2000
0000
2000
2000
2000
2000
2000
0000
0000
ENDCHAR
STARTCHAR 0144
ENCODING 324
SWIDTH 520 0
DWIDTH 12 0
BBX 12 12 0 -2
BITMAP
0000
0000
1000
2000
5000
6800
4800
4800
4800
4800
0000
0000
ENDCHAR
STARTCHAR 0148
ENCODING 328
SWIDTH 520 0
DWIDTH 12 0
BBX 12 12 0 -2
BITMAP
0000
0000
5000
3000
5000
6800
4800
4800
4800
4800
0000
0000
ENDCHAR
STARTCHAR 014D
ENCODING 333
SWIDTH 520 0
DWIDTH 12 0
BBX 12 12 0 -2
BITMAP
0000
0000
0000
3000
0000
7800
4800
4800
4800
3000
0000
0000
ENDCHAR
STARTCHAR 016B
ENCODING 363
SWIDTH 520 0
DWIDTH 12 0
BBX 12 12 0 -2
BITMAP
0000
0000
0000
0000
d800
4800
4800
4800
4800
7c00
0000
0000
ENDCHAR
STARTCHAR 01CE
ENCODING 462
SWIDTH 520 0
DWIDTH 12 0
BBX 12 12 0 -2
BITMAP
0000
0000
5000
3000
0000
7800
4800
4800
4800
7800
0000
0000
ENDCHAR
STARTCHAR 01D0
ENCODING 464
SWIDTH 520 0
DWIDTH 12 0
BBX 12 12 0 -2
BITMAP
0000
0000
5000
2000
2000
2000
2000
2000
2000
2000
0000
0000
ENDCHAR
STARTCHAR 01D2
ENCODING 466
SWIDTH 520 0
DWIDTH 12 0
BBX 12 12 0 -2
BITMAP
0000
0000
5000
3000
0000
7800
4800
4800
4800
3000
0000
0000
ENDCHAR
STARTCHAR 01D4
ENCODING 468
SWIDTH 520 0
DWIDTH 12 0
BBX 12 12 0 -2
BITMAP
0000
0000
5000
3000
d800
4800
4800
4800
4800
7c00
0000
0000
ENDCHAR
STARTCHAR 01D6
ENCODING 470
SWIDTH 520 0
DWIDTH 12 0
BBX 12 12 0 -2
BITMAP
0000
0000
0000
4800
d800
4800
4800
4800
4800
7c00
0000
0000
ENDCHAR
STARTCHAR 01D8
ENCODING 472
SWIDTH 520 0
DWIDTH 12 0
BBX 12 12 0 -2
BITMAP
0000
1000
0000
4800
d800
4800
4800
4800
4800
7c00
0000
0000
ENDCHAR
STARTCHAR 01DA
ENCODING 474
SWIDTH 520 0
DWIDTH 12 0
BBX 12 12 0 -2
BITMAP
0000
3000
0000
4800
d800
4800
4800
4800
4800
7c00
0000
0000
ENDCHAR
STARTCHAR 01DC
ENCODING 476
SWIDTH 520 0
DWIDTH 12 0
BBX 12 12 0 -2
BITMAP
0000
2000
0000
4800
d800
4800
4800
4800
4800
7c00
0000
0000
ENDCHAR
STARTCHAR 0251
ENCODING 593
SWIDTH 520 0
DWIDTH 12 0
BBX 12 12 0 -2
BITMAP
0000
0000
0000
0000
0000
7800
4800
4800
4800
7800
0000
0000
ENDCHAR
STARTCHAR 0261
ENCODING 609
SWIDTH 520 0
DWIDTH 12 0
BBX 12 12 0 -2
BITMAP
0000
0000
0000
0000
0000
7800
8800
8800
7800
0800
8800
7000
ENDCHAR
STARTCHAR 02C7
ENCODING 711
SWIDTH 520 0
DWIDTH 12 0
BBX 12 12 0 -2
BITMAP
0000
1100
0a00
0400
0000
0000
0000
0000
0000
0000
0000
0000
ENDCHAR
STARTCHAR 02C9
ENCODING 713
SWIDTH 520 0
DWIDTH 12 0
BBX 12 12 0 -2
BITMAP
0000
1f00
0000
0000
0000
0000
0000
0000
0000
0000
0000
0000
ENDCHAR
STARTCHAR 0391
ENCODING 913
SWIDTH 520 0
DWIDTH 12 0
BBX 12 12 0 -2
BITMAP
0000
0400
0400
0a00
0a00
1100
1f00
2080
71c0
0000
0000
0000
ENDCHAR
STARTCHAR 0392
ENCODING 914
SWIDTH 520 0
DWIDTH 12 0
BBX 12 12 0 -2
BITMAP
0000
3f00
1080
1080
1080
1f00
1080
1080
3f00
0000
0000
0000
ENDCHAR
STARTCHAR 0393
ENCODING 915
SWIDTH 520 0
DWIDTH 12 0
BBX 12 12 0 -2
BITMAP
0000
3f80
1080
1000
1000
1000
1000
1000
3800
0000
0000
0000
ENDCHAR
STARTCHAR 0394
ENCODING 916
SWIDTH 520 0
DWIDTH 12 0
BBX 12 12 0 -2
BITMAP
0000
0400
0400
0a00
0a00
1100
1100
2080
3f80
0000
0000
0000
ENDCHAR
STARTCHAR 0395
ENCODING 917
SWIDTH 520 0
DWIDTH 12 0
BBX 12 12 0 -2
BITMAP
0000
3f80
1080
1000
1200
1e00
1200
1080
3f80
0000
0000
0000
ENDCHAR
STARTCHAR 0396
ENCODING 918
SWIDTH 520 0
DWIDTH 12 0
BBX 12 12 0 -2
BITMAP
0000
3f80
2080
2100
0200
0400
0880
1080
3f80
0000
0000
0000
ENDCHAR
STARTCHAR 0397
ENCODING 919
SWIDTH 520 0
DWIDTH 12 0
BBX 12 12 0 -2
BITMAP
0000
39c0
1080
1080
1f80
1080
1080
1080
39c0
0000
0000
0000
ENDCHAR
STARTCHAR 0398
ENCODING 920
SWIDTH 520 0
DWIDTH 12 0
BBX 12 12 0 -2
BITMAP
0000
0e00
1100
2a80
2e80
2a80
2a80
1100
0e00
0000
0000
0000
ENDCHAR
STARTCHAR 0399
ENCODING 921
SWIDTH 520 0
DWIDTH 12 0
BBX 12 12 0 -2
BITMAP
0000
0e00
0400
0400
0400
0400
0400
0400
0e00
0000
0000
0000
ENDCHAR
STARTCHAR 039A
ENCODING 922
SWIDTH 520 0
DWIDTH 12 0
BBX 12 12 0 -2
BITMAP
0000
3980
1100
1200
1400
1c00
1200
1100
3b80
0000
0000
0000
ENDCHAR
STARTCHAR 039B
ENCODING 923
SWIDTH 520 0
DWIDTH 12 0
BBX 12 12 0 -2
BITMAP
0000
0400
0400
0a00
0a00
0a00
1100
1100
3b80
0000
0000
0000
ENDCHAR
STARTCHAR 039C
ENCODING 924
SWIDTH 520 0
DWIDTH 12 0
BBX 12 12 0 -2
BITMAP
0000
60c0
3180
3180
2a80
2a80
2480
2480
71c0
0000
0000
0000
ENDCHAR
STARTCHAR 039D
ENCODING 925
SWIDTH 520 0
DWIDTH 12 0
BBX 12 12 0 -2
BITMAP
0000
39c0
1080
1880
1480
1280
1180
1080
3880
0000
0000
0000
ENDCHAR
STARTCHAR 039E
ENCODING 926
SWIDTH 520 0
DWIDTH 12 0
BBX 12 12 0 -2
BITMAP
0000
3f80
2080
0000
1100
1f00
1100
2080
3f80
0000
0000
0000
ENDCHAR
STARTCHAR 039F
ENCODING 927
SWIDTH 520 0
DWIDTH 12 0
BBX 12 12 0 -2
BITMAP
0000
0e00
1100
2080
2080
2080
2080
1100
0e00
0000
0000
0000
ENDCHAR
STARTCHAR 03A0
ENCODING 928
SWIDTH 520 0
DWIDTH 12 0
BBX 12 12 0 -2
BITMAP
0000
3fc0
1080
1080
1080
1080
1080
1080
39c0
0000
0000
0000
ENDCHAR
STARTCHAR 03A1
ENCODING 929
SWIDTH 520 0
DWIDTH 12 0
BBX 12 12 0 -2
BITMAP
0000
3f00
1080
1080
1080
1f00
1000
1000
3800
0000
0000
0000
ENDCHAR
STARTCHAR 03A3
ENCODING 931
SWIDTH 520 0
DWIDTH 12 0
BBX 12 12 0 -2
BITMAP
0000
3f80
1080
0800
0400
0400
0800
1080
3f80
0000
0000
0000
ENDCHAR
STARTCHAR 03A4
ENCODING 932
SWIDTH 520 0
DWIDTH 12 0
BBX 12 12 0 -2
BITMAP
0000
3f80
2480
0400
0400
0400
0400
0400
0e00
0000
0000
0000
ENDCHAR
STARTCHAR 03A5
ENCODING 933
SWIDTH 520 0
DWIDTH 12 0
BBX 12 12 0 -2
BITMAP
0000
1b00
2480
0400
0400
0400
0400
0400
0e00
0000
0000
0000
ENDCHAR
STARTCHAR 03A6
ENCODING 934
SWIDTH 520 0
DWIDTH 12 0
BBX 12 12 0 -2
BITMAP
0000
0400
1f00
2480
4440
4440
2480
1f00
0400
0000
0000
0000
ENDCHAR
STARTCHAR 03A7
ENCODING 935
SWIDTH 520 0
DWIDTH 12 0
BBX 12 12 0 -2
BITMAP
0000
3b80
1100
0a00
0400
0400
0a00
1100
3980
0000
0000
0000
ENDCHAR
STARTCHAR 03A8
ENCODING 936
SWIDTH 520 0
DWIDTH 12 0
BBX 12 12 0 -2
BITMAP
0000
6ec0
2480
2480
2480
2480
1f00
0400
0e00
0000
0000
0000
ENDCHAR
STARTCHAR 03A9
ENCODING 937
SWIDTH 520 0
DWIDTH 12 0
BBX 12 12 0 -2
BITMAP
0000
0e00
1100
2080
2080
2080
1100
0a00
3b80
0000
0000
0000
ENDCHAR
STARTCHAR 03B1
ENCODING 945
SWIDTH 520 0
DWIDTH 12 0
BBX 12 12 0 -2
BITMAP
0000
0000
0000
0d00
1200
1200
1200
1200
0d00
0000
0000
0000
ENDCHAR
STARTCHAR 03B2
ENCODING 946
SWIDTH 520 0
DWIDTH 12 0
BBX 12 12 0 -2
BITMAP
0000
0e00
1100
1100
1600
1100
1100
1900
1600
1000
1000
0000
ENDCHAR
STARTCHAR 03B3
ENCODING 947
SWIDTH 520 0
DWIDTH 12 0
BBX 12 12 0 -2
BITMAP
0000
0000
0000
1100
1100
0a00
0a00
0400
0a00
0a00
0400
0000
ENDCHAR
STARTCHAR 03B4
ENCODING 948
SWIDTH 520 0
DWIDTH 12 0
BBX 12 12 0 -2
BITMAP
0600
0900
0800
0400
0e00
1100
1100
1100
0e00
0000
0000
0000
ENDCHAR
STARTCHAR 03B5
ENCODING 949
SWIDTH 520 0
DWIDTH 12 0
BBX 12 12 0 -2
BITMAP
0000
0000
0000
0600
0900
0400
0800
0900
0600
0000
0000
0000
ENDCHAR
STARTCHAR 03B6
ENCODING 950
SWIDTH 520 0
DWIDTH 12 0
BBX 12 12 0 -2
BITMAP
0000
1e00
0400
0800
1000
1000
1000
0e00
0100
0600
0000
0000
ENDCHAR
STARTCHAR 03B7
ENCODING 951
SWIDTH 520 0
DWIDTH 12 0
BBX 12 12 0 -2
BITMAP
0000
0000
0000
1700
0900
0900
0900
0900
0900
0100
0180
0000
ENDCHAR
STARTCHAR 03B8
ENCODING 952
SWIDTH 520 0
DWIDTH 12 0
BBX 12 12 0 -2
BITMAP
0000
0e00
1100
1100
1100
1f00
1100
1100
0e00
0000
0000
0000
ENDCHAR
STARTCHAR 03B9
ENCODING 953
SWIDTH 520 0
DWIDTH 12 0
BBX 12 12 0 -2
BITMAP
0000
0000
0000
0c00
0400
0400
0400
0400
0600
0000
0000
0000
ENDCHAR
STARTCHAR 03BA
ENCODING 954
SWIDTH 520 0
DWIDTH 12 0
BBX 12 12 0 -2
BITMAP
0000
0000
0000
1200
1400
1400
1800
1500
1200
0000
0000
0000
ENDCHAR
STARTCHAR 03BB
ENCODING 955
SWIDTH 520 0
DWIDTH 12 0
BBX 12 12 0 -2
BITMAP
0000
0800
0800
0400
0400
0c00
0a00
1200
2100
0000
0000
0000
ENDCHAR
STARTCHAR 03BC
ENCODING 956
SWIDTH 520 0
DWIDTH 12 0
BBX 12 12 0 -2
BITMAP
0000
0000
0000
1200
1200
1200
1200
1d00
1000
1000
0000
0000
ENDCHAR
STARTCHAR 03BD
ENCODING 957
SWIDTH 520 0
DWIDTH 12 0
BBX 12 12 0 -2
BITMAP
0000
0000
0000
1100
1100
0a00
0a00
0400
0400
0000
0000
0000
ENDCHAR
STARTCHAR 03BE
ENCODING 958
SWIDTH 520 0
DWIDTH 12 0
BBX 12 12 0 -2
BITMAP
0000
1e00
0800
0800
0600
0800
1000
1000
0f00
0100
0600
0000
ENDCHAR
STARTCHAR 03BF
ENCODING 959
SWIDTH 520 0
DWIDTH 12 0
BBX 12 12 0 -2
BITMAP
0000
0000
0000
0e00
1100
1100
1100
1100
0e00
0000
0000
0000
ENDCHAR
STARTCHAR 03C0
ENCODING 960
SWIDTH 520 0
DWIDTH 12 0
BBX 12 12 0 -2
BITMAP
0000
0000
0000
1f00
2a00
0a00
0a00
2a80
1300
0000
0000
0000
ENDCHAR
STARTCHAR 03C1
ENCODING 961
SWIDTH 520 0
DWIDTH 12 0
BBX 12 12 0 -2
BITMAP
0000
0000
0000
0e00
1100
1100
1100
1900
1600
1000
1000
0000
ENDCHAR
STARTCHAR 03C3
ENCODING 963
SWIDTH 520 0
DWIDTH 12 0
BBX 12 12 0 -2
BITMAP
0000
0000
0000
0f00
1200
1200
1200
1200
0c00
0000
0000
0000
ENDCHAR
STARTCHAR 03C4
ENCODING 964
SWIDTH 520 0
DWIDTH 12 0
BBX 12 12 0 -2
BITMAP
0000
0000
0000
0f00
1400
0400
0400
0500
0600
0000
0000
0000
ENDCHAR
STARTCHAR 03C5
ENCODING 965
SWIDTH 520 0
DWIDTH 12 0
BBX 12 12 0 -2
BITMAP
0000
0000
0000
1b00
0900
0900
0900
0900
0600
0000
0000
0000
ENDCHAR
STARTCHAR 03C6
ENCODING 966
SWIDTH 520 0
DWIDTH 12 0
BBX 12 12 0 -2
BITMAP
0000
0400
0400
0400
1f00
2480
2480
2480
1f00
0400
0400
0000
ENDCHAR
STARTCHAR 03C7
ENCODING 967
SWIDTH 520 0
DWIDTH 12 0
BBX 12 12 0 -2
BITMAP
0000
0000
0000
1100
0a00
0400
0400
0a00
1100
0000
0000
0000
ENDCHAR
STARTCHAR 03C8
ENCODING 968
SWIDTH 520 0
DWIDTH 12 0
BBX 12 12 0 -2
BITMAP
0000
0000
0000
3580
1500
1500
1500
1500
0e00
0400
0000
0000
ENDCHAR
STARTCHAR 03C9
ENCODING 969
SWIDTH 520 0
DWIDTH 12 0
BBX 12 12 0 -2
BITMAP
0000
0000
0000
1100
2080
2080
2480
2480
1b00
0000
0000
0000
ENDCHAR
STARTCHAR 0401
ENCODING 1025
SWIDTH 520 0
DWIDTH 12 0
BBX 12 12 0 -2
BITMAP
0900
3f80
1080
1080
1200
1e00
1200
1080
3f80
0000
0000
0000
ENDCHAR
STARTCHAR 0410
ENCODING 1040
SWIDTH 520 0
DWIDTH 12 0
BBX 12 12 0 -2
BITMAP
0000
0400
0400
0a00
0a00
1100
1f00
2080
71c0
0000
0000
0000
ENDCHAR
STARTCHAR 0411
ENCODING 1041
SWIDTH 520 0
DWIDTH 12 0
BBX 12 12 0 -2
BITMAP
0000
3f80
1080
1000
1f00
1080
1080
1080
3f00
0000
0000
0000
ENDCHAR
STARTCHAR 0412
ENCODING 1042
SWIDTH 520 0
DWIDTH 12 0
BBX 12 12 0 -2
BITMAP
0000
3f00
1080
1080
1f00
1080
1080
1080
3f00
0000
0000
0000
ENDCHAR
STARTCHAR 0413
ENCODING 1043
SWIDTH 520 0
DWIDTH 12 0
BBX 12 12 0 -2
BITMAP
0000
3f80
1080
1000
1000
1000
1000
1000
3800
0000
0000
0000
ENDCHAR
STARTCHAR 0414
ENCODING 1044
SWIDTH 520 0
DWIDTH 12 0
BBX 12 12 0 -2
BITMAP
0000
3f80
0900
0900
0900
0900
1100
1100
3fc0
2040
0000
0000
ENDCHAR
STARTCHAR 0415
ENCODING 1045
SWIDTH 520 0
DWIDTH 12 0
BBX 12 12 0 -2
BITMAP
0000
3f80
1080
1200
1e00
1200
1000
1080
3f80
0000
0000
0000
ENDCHAR
STARTCHAR 0416
ENCODING 1046
SWIDTH 520 0
DWIDTH 12 0
BBX 12 12 0 -2
BITMAP
0000
4e40
2480
2480
1f00
2480
2480
a4a0
4e40
0000
0000
0000
ENDCHAR
STARTCHAR 0417
ENCODING 1047
SWIDTH 520 0
DWIDTH 12 0
BBX 12 12 0 -2
BITMAP
0000
2e00
3100
2100
0e00
0100
2100
2100
1e00
0000
0000
0000
ENDCHAR
STARTCHAR 0418
ENCODING 1048
SWIDTH 520 0
DWIDTH 12 0
BBX 12 12 0 -2
BITMAP
0000
73c0
2180
2280
2480
2880
3080
2080
71c0
0000
0000
0000
ENDCHAR
STARTCHAR 0419
ENCODING 1049
SWIDTH 520 0
DWIDTH 12 0
BBX 12 12 0 -2
BITMAP
0a00
75c0
2180
2280
2480
2880
3080
2080
71c0
0000
0000
0000
ENDCHAR
STARTCHAR 041A
ENCODING 1050
SWIDTH 520 0
DWIDTH 12 0
BBX 12 12 0 -2
BITMAP
0000
3900
1280
1200
1c00
1200
1200
1280
3900
0000
0000
0000
ENDCHAR
STARTCHAR 041B
ENCODING 1051
SWIDTH 520 0
DWIDTH 12 0
BBX 12 12 0 -2
BITMAP
0000
1fc0
0880
0880
0880
0880
0880
4880
31c0
0000
0000
0000
ENDCHAR
STARTCHAR 041C
ENCODING 1052
SWIDTH 520 0
DWIDTH 12 0
BBX 12 12 0 -2
BITMAP
0000
60c0
3180
3180
2a80
2a80
2480
2480
71c0
0000
0000
0000
ENDCHAR
STARTCHAR 041D
ENCODING 1053
SWIDTH 520 0
DWIDTH 12 0
BBX 12 12 0 -2
BITMAP
0000
71c0
2080
2080
3f80
2080
2080
2080
71c0
0000
0000
0000
ENDCHAR
STARTCHAR 041E
ENCODING 1054
SWIDTH 520 0
DWIDTH 12 0
BBX 12 12 0 -2
BITMAP
0000
0e00
1100
2080
2080
2080
2080
1100
0e00
0000
0000
0000
ENDCHAR
STARTCHAR 041F
ENCODING 1055
SWIDTH 520 0
DWIDTH 12 0
BBX 12 12 0 -2
BITMAP
0000
7f80
2100
2100
2100
2100
2100
2100
7380
0000
0000
0000
ENDCHAR
STARTCHAR 0420
ENCODING 1056
SWIDTH 520 0
DWIDTH 12 0
BBX 12 12 0 -2
BITMAP
0000
3f00
1080
1080
1f00
1000
1000
1000
3800
0000
0000
0000
ENDCHAR
STARTCHAR 0421
ENCODING 1057
SWIDTH 520 0
DWIDTH 12 0
BBX 12 12 0 -2
BITMAP
0000
0e80
1180
2080
2000
2000
2080
1100
0e00
0000
0000
0000
ENDCHAR
STARTCHAR 0422
ENCODING 1058
SWIDTH 520 0
DWIDTH 12 0
BBX 12 12 0 -2
BITMAP
0000
3f80
2480
0400
0400
0400
0400
0400
0e00
0000
0000
0000
ENDCHAR
STARTCHAR 0423
ENCODING 1059
SWIDTH 520 0
DWIDTH 12 0
BBX 12 12 0 -2
BITMAP
0000
3180
1100
1100
0a00
0a00
0400
2400
1800
0000
0000
0000
ENDCHAR
STARTCHAR 0424
ENCODING 1060
SWIDTH 520 0
DWIDTH 12 0
BBX 12 12 0 -2
BITMAP
0000
0400
1f00
2480
4440
4440
2480
1f00
0400
0000
0000
0000
ENDCHAR
STARTCHAR 0425
ENCODING 1061
SWIDTH 520 0
DWIDTH 12 0
BBX 12 12 0 -2
BITMAP
0000
3180
1100
0a00
0400
0400
0a00
1100
3180
0000
0000
0000
ENDCHAR
STARTCHAR 0426
ENCODING 1062
SWIDTH 520 0
DWIDTH 12 0
BBX 12 12 0 -2
BITMAP
0000
71c0
2080
2080
2080
2080
2080
2080
7fc0
0040
0000
0000
ENDCHAR
STARTCHAR 0427
ENCODING 1063
SWIDTH 520 0
DWIDTH 12 0
BBX 12 12 0 -2
BITMAP
0000
39c0
1080
1080
1080
0f80
0080
0080
01c0
0000
0000
0000
ENDCHAR
STARTCHAR 0428
ENCODING 1064
SWIDTH 520 0
DWIDTH 12 0
BBX 12 12 0 -2
BITMAP
0000
eee0
4440
4440
4440
4440
4440
4440
ffe0
0000
0000
0000
ENDCHAR
STARTCHAR 0429
ENCODING 1065
SWIDTH 520 0
DWIDTH 12 0
BBX 12 12 0 -2
BITMAP
0000
eee0
4440
4440
4440
4440
4440
4440
ffe0
0020
0000
0000
ENDCHAR
STARTCHAR 042A
ENCODING 1066
SWIDTH 520 0
DWIDTH 12 0
BBX 12 12 0 -2
BITMAP
0000
7c00
4800
0800
0f80
0840
0840
0840
1f80
0000
0000
0000
ENDCHAR
STARTCHAR 042B
ENCODING 1067
SWIDTH 520 0
DWIDTH 12 0
BBX 12 12 0 -2
BITMAP
0000
71c0
2080
2080
2080
3c80
2280
2280
7dc0
0000
0000
0000
ENDCHAR
STARTCHAR 042C
ENCODING 1068
SWIDTH 520 0
DWIDTH 12 0
BBX 12 12 0 -2
BITMAP
0000
3800
1000
1000
1000
1f00
1080
1080
3f00
0000
0000
0000
ENDCHAR
STARTCHAR 042D
ENCODING 1069
SWIDTH 520 0
DWIDTH 12 0
BBX 12 12 0 -2
BITMAP
0000
2e00
3100
2080
0f80
0080
2080
2100
1e00
0000
0000
0000
ENDCHAR
STARTCHAR 042E
ENCODING 1070
SWIDTH 520 0
DWIDTH 12 0
BBX 12 12 0 -2
BITMAP
0000
e380
4440
4820
7820
4820
4820
4440
e380
0000
0000
0000
ENDCHAR
STARTCHAR 042F
ENCODING 1071
SWIDTH 520 0
DWIDTH 12 0
BBX 12 12 0 -2
BITMAP
0000
0f80
1100
1100
1100
0f00
0900
0900
3380
0000
0000
0000
ENDCHAR
STARTCHAR 0430
ENCODING 1072
SWIDTH 520 0
DWIDTH 12 0
BBX 12 12 0 -2
BITMAP
0000
0000
0000
0c00
1200
0e00
1200
1600
0b00
0000
0000
0000
ENDCHAR
STARTCHAR 0431
ENCODING 1073
SWIDTH 520 0
DWIDTH 12 0
BBX 12 12 0 -2
BITMAP
0000
0100
0e00
1000
1e00
1100
1100
1100
0e00
0000
0000
0000
ENDCHAR
STARTCHAR 0432
ENCODING 1074
SWIDTH 520 0
DWIDTH 12 0
BBX 12 12 0 -2
BITMAP
0000
0000
0000
1e00
0900
0e00
0900
0900
1e00
0000
0000
0000
ENDCHAR
STARTCHAR 0433
ENCODING 1075
SWIDTH 520 0
DWIDTH 12 0
BBX 12 12 0 -2
BITMAP
0000
0000
0000
1f00
0900
0800
0800
0800
1c00
0000
0000
0000
ENDCHAR
STARTCHAR 0434
ENCODING 1076
SWIDTH 520 0
DWIDTH 12 0
BBX 12 12 0 -2
BITMAP
0000
0000
0000
1f00
0a00
0a00
0a00
0a00
3f00
2100
0000
0000
ENDCHAR
STARTCHAR 0435
ENCODING 1077
SWIDTH 520 0
DWIDTH 12 0
BBX 12 12 0 -2
BITMAP
0000
0000
0000
0e00
1100
1f00
1000
1100
0e00
0000
0000
0000
ENDCHAR
STARTCHAR 0436
ENCODING 1078
SWIDTH 520 0
DWIDTH 12 0
BBX 12 12 0 -2
BITMAP
0000
0000
0000
2480
1500
0e00
1500
1500
2480
0000
0000
0000
ENDCHAR
STARTCHAR 0437
ENCODING 1079
SWIDTH 520 0
DWIDTH 12 0
BBX 12 12 0 -2
BITMAP
0000
0000
0000
1e00
1100
0600
0100
1100
0e00
0000
0000
0000
ENDCHAR
STARTCHAR 0438
ENCODING 1080
SWIDTH 520 0
DWIDTH 12 0
BBX 12 12 0 -2
BITMAP
0000
0000
0000
1100
1100
1300
1500
1900
1100
0000
0000
0000
ENDCHAR
STARTCHAR 0439
ENCODING 1081
SWIDTH 520 0
DWIDTH 12 0
BBX 12 12 0 -2
BITMAP
0000
0a00
0e00
1100
1100
1300
1500
1900
1100
0000
0000
0000
ENDCHAR
STARTCHAR 043A
ENCODING 1082
SWIDTH 520 0
DWIDTH 12 0
BBX 12 12 0 -2
BITMAP
0000
0000
0000
1100
1200
1c00
1200
1200
1100
0000
0000
0000
ENDCHAR
STARTCHAR 043B
ENCODING 1083
SWIDTH 520 0
DWIDTH 12 0
BBX 12 12 0 -2
BITMAP
0000
0000
0000
0f00
0900
0900
0900
0900
1100
0000
0000
0000
ENDCHAR
STARTCHAR 043C
ENCODING 1084
SWIDTH 520 0
DWIDTH 12 0
BBX 12 12 0 -2
BITMAP
0000
0000
0000
1100
1100
1b00
1b00
1500
1500
0000
0000
0000
ENDCHAR
STARTCHAR 043D
ENCODING 1085
SWIDTH 520 0
DWIDTH 12 0
BBX 12 12 0 -2
BITMAP
0000
0000
0000
1100
1100
1f00
1100
1100
1100
0000
0000
0000
ENDCHAR
STARTCHAR 043E
ENCODING 1086
SWIDTH 520 0
DWIDTH 12 0
BBX 12 12 0 -2
BITMAP
0000
0000
0000
0e00
1100
1100
1100
1100
0e00
0000
0000
0000
ENDCHAR
STARTCHAR 043F
ENCODING 1087
SWIDTH 520 0
DWIDTH 12 0
BBX 12 12 0 -2
BITMAP
0000
0000
0000
3f80
1100
1100
1100
1100
1100
0000
0000
0000
ENDCHAR
STARTCHAR 0440
ENCODING 1088
SWIDTH 520 0
DWIDTH 12 0
BBX 12 12 0 -2
BITMAP
0000
0000
0000
1f00
0880
0880
0880
0880
0f00
0800
0800
0000
ENDCHAR
STARTCHAR 0441
ENCODING 1089
SWIDTH 520 0
DWIDTH 12 0
BBX 12 12 0 -2
BITMAP
0000
0000
0000
0e00
1100
1000
1000
1100
0e00
0000
0000
0000
ENDCHAR
STARTCHAR 0442
ENCODING 1090
SWIDTH 520 0
DWIDTH 12 0
BBX 12 12 0 -2
BITMAP
0000
0000
0000
1f00
1500
0400
0400
0400
0e00
0000
0000
0000
ENDCHAR
STARTCHAR 0443
ENCODING 1091
SWIDTH 520 0
DWIDTH 12 0
BBX 12 12 0 -2
BITMAP
0000
0000
0000
1100
1100
0a00
0a00
0400
0400
1800
0000
0000
ENDCHAR
STARTCHAR 0444
ENCODING 1092
SWIDTH 520 0
DWIDTH 12 0
BBX 12 12 0 -2
BITMAP
0000
0400
0400
1f00
2480
2480
2480
2480
1f00
0400
0000
0000
ENDCHAR
STARTCHAR 0445
ENCODING 1093
SWIDTH 520 0
DWIDTH 12 0
BBX 12 12 0 -2
BITMAP
0000
0000
0000
1100
0a00
0400
0400
0a00
1100
0000
0000
0000
ENDCHAR
STARTCHAR 0446
ENCODING 1094
SWIDTH 520 0
DWIDTH 12 0
BBX 12 12 0 -2
BITMAP
0000
0000
0000
1100
1100
1100
1100
1100
1f80
0080
0000
0000
ENDCHAR
STARTCHAR 0447
ENCODING 1095
SWIDTH 520 0
DWIDTH 12 0
BBX 12 12 0 -2
BITMAP
0000
0000
0000
1100
1100
1100
0f00
0100
0100
0000
0000
0000
ENDCHAR
STARTCHAR 0448
ENCODING 1096
SWIDTH 520 0
DWIDTH 12 0
BBX 12 12 0 -2
BITMAP
0000
0000
0000
2480
2480
2480
2480
2480
3f80
0000
0000
0000
ENDCHAR
STARTCHAR 0449
ENCODING 1097
SWIDTH 520 0
DWIDTH 12 0
BBX 12 12 0 -2
BITMAP
0000
0000
0000
2480
2480
2480
2480
2480
3fc0
0040
0000
0000
ENDCHAR
STARTCHAR 044A
ENCODING 1098
SWIDTH 520 0
DWIDTH 12 0
BBX 12 12 0 -2
BITMAP
0000
0000
0000
3800
2800
0f00
0880
0880
0f00
0000
0000
0000
ENDCHAR
STARTCHAR 044B
ENCODING 1099
SWIDTH 520 0
DWIDTH 12 0
BBX 12 12 0 -2
BITMAP
0000
0000
0000
1080
1080
1c80
1280
1280
1c80
0000
0000
0000
ENDCHAR
STARTCHAR 044C
ENCODING 1100
SWIDTH 520 0
DWIDTH 12 0
BBX 12 12 0 -2
BITMAP
0000
0000
0000
1c00
0800
0e00
0900
0900
1e00
0000
0000
0000
ENDCHAR
STARTCHAR 044D
ENCODING 1101
SWIDTH 520 0
DWIDTH 12 0
BBX 12 12 0 -2
BITMAP
0000
0000
0000
1e00
1100
0700
0100
1100
0e00
0000
0000
0000
ENDCHAR
STARTCHAR 044E
ENCODING 1102
SWIDTH 520 0
DWIDTH 12 0
BBX 12 12 0 -2
BITMAP
0000
0000
0000
2700
2880
2880
3880
2880
2700
0000
0000
0000
ENDCHAR
STARTCHAR 044F
ENCODING 1103
SWIDTH 520 0
DWIDTH 12 0
BBX 12 12 0 -2
BITMAP
0000
0000
0000
0f00
1100
1100
0f00
0900
1900
0000
0000
0000
ENDCHAR
STARTCHAR 0451
ENCODING 1105
SWIDTH 520 0
DWIDTH 12 0
BBX 12 12 0 -2
BITMAP
0000
0000
0a00
0000
0e00
1100
1f00
1000
0f00
0000
0000
0000
ENDCHAR
STARTCHAR 2014
ENCODING 8212
SWIDTH 520 0
DWIDTH 12 0
BBX 12 12 0 -2
BITMAP
0000
0000
0000
0000
0000
ffe0
0000
0000
0000
0000
0000
0000
ENDCHAR
STARTCHAR 2016
ENCODING 8214
SWIDTH 520 0
DWIDTH 12 0
BBX 12 12 0 -2
BITMAP
0a00
0a00
0a00
0a00
0a00
0a00
0a00
0a00
0a00
0a00
0a00
0000
ENDCHAR
STARTCHAR 2018
ENCODING 8216
SWIDTH 520 0
DWIDTH 12 0
BBX 12 12 0 -2
BITMAP
0000
0080
0100
0180
0180
0000
0000
0000
0000
0000
0000
0000
ENDCHAR
STARTCHAR 2019
ENCODING 8217
SWIDTH 520 0
DWIDTH 12 0
BBX 12 12 0 -2
BITMAP
0000
6000
6000
2000
4000
0000
0000
0000
0000
0000
0000
0000
ENDCHAR
STARTCHAR 201C
ENCODING 8220
SWIDTH 520 0
DWIDTH 12 0
BBX 12 12 0 -2
BITMAP
0000
0240
0480
06c0
06c0
0000
0000
0000
0000
0000
0000
0000
ENDCHAR
STARTCHAR 201D
ENCODING 8221
SWIDTH 520 0
DWIDTH 12 0
BBX 12 12 0 -2
BITMAP
0000
6c00
6c00
2400
4800
0000
0000
0000
0000
0000
0000
0000
ENDCHAR
STARTCHAR 2026
ENCODING 8230
SWIDTH 520 0
DWIDTH 12 0
BBX 12 12 0 -2
BITMAP
0000
0000
0000
0000
0000
6660
6660
0000
0000
0000
0000
0000
ENDCHAR
STARTCHAR 2030
ENCODING 8240
SWIDTH 520 0
DWIDTH 12 0
BBX 12 12 0 -2
BITMAP
0000
e100
a200
a400
e800
1000
2ee0
4aa0
8aa0
0ee0
0000
0000
ENDCHAR
STARTCHAR 2032
ENCODING 8242
SWIDTH 520 0
DWIDTH 12 0
BBX 12 12 0 -2
BITMAP
2000
2000
4000
4000
0000
0000
0000
0000
0000
0000
0000
0000
ENDCHAR
STARTCHAR 2033
ENCODING 8243
SWIDTH 520 0
DWIDTH 12 0
BBX 12 12 0 -2
BITMAP
2800
2800
5000
5000
0000
0000
0000
0000
0000
0000
0000
0000
ENDCHAR
STARTCHAR 203B
ENCODING 8251
SWIDTH 520 0
DWIDTH 12 0
BBX 12 12 0 -2
BITMAP
0000
4640
2680
1100
0a00
64c0
6ac0
1100
2680
4640
0000
0000
ENDCHAR
STARTCHAR 2103
ENCODING 8451
SWIDTH 520 0
DWIDTH 12 0
BBX 12 12 0 -2
BITMAP
0000
e740
a8c0
f040
1000
1000
1000
1040
0840
0780
0000
0000
ENDCHAR
STARTCHAR 2116
ENCODING 8470
SWIDTH 520 0
DWIDTH 12 0
BBX 12 12 0 -2
BITMAP
0000
ce00
6400
6400
55c0
5540
4d40
4dc0
4400
e5c0
0000
0000
ENDCHAR
STARTCHAR 2160
ENCODING 8544
SWIDTH 520 0
DWIDTH 12 0
BBX 12 12 0 -2
BITMAP
0000
0e00
0400
0400
0400
0400
0400
0400
0400
0e00
0000
0000
ENDCHAR
STARTCHAR 2161
ENCODING 8545
SWIDTH 520 0
DWIDTH 12 0
BBX 12 12 0 -2
BITMAP
0000
3b80
1100
1100
1100
1100
1100
1100
1100
3b80
0000
0000
ENDCHAR
STARTCHAR 2162
ENCODING 8546
SWIDTH 520 0
DWIDTH 12 0
BBX 12 12 0 -2
BITMAP
0000
eee0
4440
4440
4440
4440
4440
4440
4440
eee0
0000
0000
ENDCHAR
STARTCHAR 2163
ENCODING 8547
SWIDTH 520 0
DWIDTH 12 0
BBX 12 12 0 -2
BITMAP
0000
eee0
4440
4440
4280
4280
4280
4100
4100
e100
0000
0000
ENDCHAR
STARTCHAR 2164
ENCODING 8548
SWIDTH 520 0
DWIDTH 12 0
BBX 12 12 0 -2
BITMAP
0000
71c0
2080
2080
1100
1100
0a00
0a00
0400
0400
0000
0000
ENDCHAR
STARTCHAR 2165
ENCODING 8549
SWIDTH 520 0
DWIDTH 12 0
BBX 12 12 0 -2
BITMAP
0000
eee0
4440
4440
2840
2840
2840
1040
1040
10e0
0000
0000
ENDCHAR
STARTCHAR 2166
ENCODING 8550
SWIDTH 520 0
DWIDTH 12 0
BBX 12 12 0 -2
BITMAP
0000
efe0
4540
4540
2940
2940
2940
1140
1140
13e0
0000
0000
ENDCHAR
STARTCHAR 2167
ENCODING 8551
SWIDTH 520 0
DWIDTH 12 0
BBX 12 12 0 -2
BITMAP
0000
dfe0
8aa0
8aa0
52a0
52a0
52a0
22a0
22a0
27e0
0000
0000
ENDCHAR
STARTCHAR 2168
ENCODING 8552
SWIDTH 520 0
DWIDTH 12 0
BBX 12 12 0 -2
BITMAP
0000
eee0
4440
4280
4280
4100
4280
4280
4440
eee0
0000
0000
ENDCHAR
STARTCHAR 2169
ENCODING 8553
SWIDTH 520 0
DWIDTH 12 0
BBX 12 12 0 -2
BITMAP
0000
3b80
1100
0a00
0a00
0400
0a00
0a00
1100
3b80
0000
0000
ENDCHAR
STARTCHAR 216A
ENCODING 8554
SWIDTH 520 0
DWIDTH 12 0
BBX 12 12 0 -2
BITMAP
0000
77e0
2240
1440
1440
0840
1440
1440
2240
77e0
0000
0000
ENDCHAR
STARTCHAR 216B
ENCODING 8555
SWIDTH 520 0
DWIDTH 12 0
BBX 12 12 0 -2
BITMAP
0000
efe0
4540
2940
2940
1140
2940
2940
4540
efe0
0000
0000
ENDCHAR
STARTCHAR 2170
ENCODING 8560
SWIDTH 520 0
DWIDTH 12 0
BBX 12 12 0 -2
BITMAP
0000
0400
0000
0c00
0400
0400
0400
0400
0e00
0000
0000
0000
ENDCHAR
STARTCHAR 2171
ENCODING 8561
SWIDTH 520 0
DWIDTH 12 0
BBX 12 12 0 -2
BITMAP
0000
1100
0000
3300
1100
1100
1100
1100
3b80
0000
0000
0000
ENDCHAR
STARTCHAR 2172
ENCODING 8562
SWIDTH 520 0
DWIDTH 12 0
BBX 12 12 0 -2
BITMAP
0000
4440
0000
ccc0
4440
4440
4440
4440
eee0
0000
0000
0000
ENDCHAR
STARTCHAR 2173
ENCODING 8563
SWIDTH 520 0
DWIDTH 12 0
BBX 12 12 0 -2
BITMAP
0000
2000
0000
6c60
2440
2280
2280
2100
7100
0000
0000
0000
ENDCHAR
STARTCHAR 2174
ENCODING 8564
SWIDTH 520 0
DWIDTH 12 0
BBX 12 12 0 -2
BITMAP
0000
0000
0000
3180
1100
0a00
0a00
0400
0400
0000
0000
0000
ENDCHAR
STARTCHAR 2175
ENCODING 8565
SWIDTH 520 0
DWIDTH 12 0
BBX 12 12 0 -2
BITMAP
0000
0080
0000
6780
2280
1480
1480
0880
09c0
0000
0000
0000
ENDCHAR
STARTCHAR 2176
ENCODING 8566
SWIDTH 520 0
DWIDTH 12 0
BBX 12 12 0 -2
BITMAP
0000
0140
0000
cd40
4540
2940
2940
1140
13e0
0000
0000
0000
ENDCHAR
STARTCHAR 2177
ENCODING 8567
SWIDTH 520 0
DWIDTH 12 0
BBX 12 12 0 -2
BITMAP
0000
02a0
0000
8fe0
8aa0
52a0
52a0
22a0
27e0
0000
0000
0000
ENDCHAR
STARTCHAR 2178
ENCODING 8568
SWIDTH 520 0
DWIDTH 12 0
BBX 12 12 0 -2
BITMAP
0000
2000
0000
66c0
2280
2100
2100
2280
76c0
0000
0000
0000
ENDCHAR
STARTCHAR 2179
ENCODING 8569
SWIDTH 520 0
DWIDTH 12 0
BBX 12 12 0 -2
BITMAP
0000
0000
0000
1980
0900
0600
0600
0900
1980
0000
0000
0000
ENDCHAR
STARTCHAR 2190
ENCODING 8592
SWIDTH 520 0
DWIDTH 12 0
BBX 12 12 0 -2
BITMAP
0000
0000
0000
0800
3000
ffe0
3000
0800
0000
0000
0000
0000
ENDCHAR
STARTCHAR 2191
ENCODING 8593
SWIDTH 520 0
DWIDTH 12 0
BBX 12 12 0 -2
BITMAP
0400
0400
0e00
0e00
1500
0400
0400
0400
0400
0400
0400
0000
ENDCHAR
STARTCHAR 2192
ENCODING 8594
SWIDTH 520 0
DWIDTH 12 0
BBX 12 12 0 -2
BITMAP
0000
0000
0000
0200
0180
ffe0
0180
0200
0000
0000
0000
0000
ENDCHAR
STARTCHAR 2193
ENCODING 8595
SWIDTH 520 0
DWIDTH 12 0
BBX 12 12 0 -2
BITMAP
0400
0400
0400
0400
0400
0400
1500
0e00
0e00
0400
0400
0000
ENDCHAR
STARTCHAR 2208
ENCODING 8712
SWIDTH 520 0
DWIDTH 12 0
BBX 12 12 0 -2
BITMAP
0000
0000
1fc0
2000
4000
7fc0
4000
2000
1fc0
0000
0000
0000
ENDCHAR
STARTCHAR 220F
ENCODING 8719
SWIDTH 520 0
DWIDTH 12 0
BBX 12 12 0 -2
BITMAP
0000
7fc0
2080
2080
2080
2080
2080
2080
2080
71c0
0000
0000
ENDCHAR
STARTCHAR 2211
ENCODING 8721
SWIDTH 520 0
DWIDTH 12 0
BBX 12 12 0 -2
BITMAP
0000
7f80
2080
1000
0800
0400
0800
1000
2080
7f80
0000
0000
ENDCHAR
STARTCHAR 221A
ENCODING 8730
SWIDTH 520 0
DWIDTH 12 0
BBX 12 12 0 -2
BITMAP
0000
0080
0080
0080
0100
0100
1100
2a00
0600
0200
0000
0000
ENDCHAR
STARTCHAR 221D
ENCODING 8733
SWIDTH 520 0
DWIDTH 12 0
BBX 12 12 0 -2
BITMAP
0000
0000
0000
31c0
4a00
4400
4a00
31c0
0000
0000
0000
0000
ENDCHAR
STARTCHAR 221E
ENCODING 8734
SWIDTH 520 0
DWIDTH 12 0
BBX 12 12 0 -2
BITMAP
0000
0000
0000
3180
4a40
4440
4a40
3180
0000
0000
0000
0000
ENDCHAR
STARTCHAR 2220
ENCODING 8736
SWIDTH 520 0
DWIDTH 12 0
BBX 12 12 0 -2
BITMAP
0000
0040
0080
0100
0200
0400
0800
1000
2000
7fe0
0000
0000
ENDCHAR
STARTCHAR 2225
ENCODING 8741
SWIDTH 520 0
DWIDTH 12 0
BBX 12 12 0 -2
BITMAP
0000
0440
0440
0880
0880
1100
1100
2200
2200
4400
0000
0000
ENDCHAR
STARTCHAR 2227
ENCODING 8743
SWIDTH 520 0
DWIDTH 12 0
BBX 12 12 0 -2
BITMAP
0400
0400
0a00
0a00
1100
1100
2080
2080
4040
4040
0000
0000
ENDCHAR
STARTCHAR 2228
ENCODING 8744
SWIDTH 520 0
DWIDTH 12 0
BBX 12 12 0 -2
BITMAP
0000
4040
4040
2080
2080
1100
1100
0a00
0a00
0400
0400
0000
ENDCHAR
STARTCHAR 2229
ENCODING 8745
SWIDTH 520 0
DWIDTH 12 0
BBX 12 12 0 -2
BITMAP
0000
0e00
1100
2080
2080
2080
2080
2080
2080
2080
0000
0000
ENDCHAR
STARTCHAR 222A
ENCODING 8746
SWIDTH 520 0
DWIDTH 12 0
BBX 12 12 0 -2
BITMAP
0000
2080
2080
2080
2080
2080
2080
2080
1100
0e00
0000
0000
ENDCHAR
STARTCHAR 222B
ENCODING 8747
SWIDTH 520 0
DWIDTH 12 0
BBX 12 12 0 -2
BITMAP
0300
0480
0400
0400
0400
0400
0400
0400
0400
2400
1800
0000
ENDCHAR
STARTCHAR 222E
ENCODING 8750
SWIDTH 520 0
DWIDTH 12 0
BBX 12 12 0 -2
BITMAP
0300
0480
0400
0400
0e00
1500
1500
0e00
0400
2400
1800
0000
ENDCHAR
STARTCHAR 2234
ENCODING 8756
SWIDTH 520 0
DWIDTH 12 0
BBX 12 12 0 -2
BITMAP
0000
0000
0600
0600
0000
0000
0000
30c0
30c0
0000
0000
0000
ENDCHAR
STARTCHAR 2235
ENCODING 8757
SWIDTH 520 0
DWIDTH 12 0
BBX 12 12 0 -2
BITMAP
0000
0000
30c0
30c0
0000
0000
0000
0600
0600
0000
0000
0000
ENDCHAR
STARTCHAR 2236
ENCODING 8758
SWIDTH 520 0
DWIDTH 12 0
BBX 12 12 0 -2
BITMAP
0000
0000
0600
0600
0000
0000
0000
0600
0600
0000
0000
0000
ENDCHAR
STARTCHAR 2237
ENCODING 8759
SWIDTH 520 0
DWIDTH 12 0
BBX 12 12 0 -2
BITMAP
0000
30c0
30c0
0000
0000
0000
0000
30c0
30c0
0000
0000
0000
ENDCHAR
STARTCHAR 223D
ENCODING 8765
SWIDTH 520 0
DWIDTH 12 0
BBX 12 12 0 -2
BITMAP
0000
0000
0000
3180
4240
4440
4840
3180
0000
0000
0000
0000
ENDCHAR
STARTCHAR 2248
ENCODING 8776
SWIDTH 520 0
DWIDTH 12 0
BBX 12 12 0 -2
BITMAP
0000
0000
0000
3c00
4240
3980
4440
0380
0000
0000
0000
0000
ENDCHAR
STARTCHAR 224C
ENCODING 8780
SWIDTH 520 0
DWIDTH 12 0
BBX 12 12 0 -2
BITMAP
0000
0000
31c0
4220
4420
38c0
0000
7fe0
0000
7fe0
0000
0000
ENDCHAR
STARTCHAR 2260
ENCODING 8800
SWIDTH 520 0
DWIDTH 12 0
BBX 12 12 0 -2
BITMAP
0000
0100
0100
0200
7fc0
0400
7fc0
0800
1000
1000
0000
0000
ENDCHAR
STARTCHAR 2261
ENCODING 8801
SWIDTH 520 0
DWIDTH 12 0
BBX 12 12 0 -2
BITMAP
0000
0000
0000
7fe0
0000
7fe0
0000
7fe0
0000
0000
0000
0000
ENDCHAR
STARTCHAR 2264
ENCODING 8804
SWIDTH 520 0
DWIDTH 12 0
BBX 12 12 0 -2
BITMAP
0000
00c0
0300
0c00
3000
0c00
3300
0cc0
0300
00c0
0000
0000
ENDCHAR
STARTCHAR 2265
ENCODING 8805
SWIDTH 520 0
DWIDTH 12 0
BBX 12 12 0 -2
BITMAP
0000
6000
1800
0600
0180
0600
1980
6600
1800
6000
0000
0000
ENDCHAR
STARTCHAR 226E
ENCODING 8814
SWIDTH 520 0
DWIDTH 12 0
BBX 12 12 0 -2
BITMAP
0000
0400
04c0
0700
1c00
6400
1c00
0700
04c0
0400
0000
0000
ENDCHAR
STARTCHAR 226F
ENCODING 8815
SWIDTH 520 0
DWIDTH 12 0
BBX 12 12 0 -2
BITMAP
0000
0400
6400
1c00
0700
04c0
0700
1c00
6400
0400
0000
0000
ENDCHAR
STARTCHAR 2299
ENCODING 8857
SWIDTH 520 0
DWIDTH 12 0
BBX 12 12 0 -2
BITMAP
1f00
2080
4040
8020
8e20
8e20
8e20
8020
4040
2080
1f00
0000
ENDCHAR
STARTCHAR 22A5
ENCODING 8869
SWIDTH 520 0
DWIDTH 12 0
BBX 12 12 0 -2
BITMAP
0000
0400
0400
0400
0400
0400
0400
0400
0400
7fc0
0000
0000
ENDCHAR
STARTCHAR 2312
ENCODING 8978
SWIDTH 520 0
DWIDTH 12 0
BBX 12 12 0 -2
BITMAP
0000
0000
0e00
3180
4040
8020
0000
0000
0000
0000
0000
0000
ENDCHAR
STARTCHAR 2460
ENCODING 9312
SWIDTH 520 0
DWIDTH 12 0
BBX 12 12 0 -2
BITMAP
1f00
2080
4440
8c20
8420
8420
8420
8420
4e40
2080
1f00
0000
ENDCHAR
STARTCHAR 2461
ENCODING 9313
SWIDTH 520 0
DWIDTH 12 0
BBX 12 12 0 -2
BITMAP
1f00
2080
4e40
9120
9120
8220
8420
8920
5f40
2080
1f00
0000
ENDCHAR
STARTCHAR 2462
ENCODING 9314
SWIDTH 520 0
DWIDTH 12 0
BBX 12 12 0 -2
BITMAP
1f00
2080
4e40
9120
8120
8620
8120
9120
4e40
2080
1f00
0000
ENDCHAR
STARTCHAR 2463
ENCODING 9315
SWIDTH 520 0
DWIDTH 12 0
BBX 12 12 0 -2
BITMAP
1f00
2080
4240
8620
8a20
9220
9f20
8220
4740
2080
1f00
0000
ENDCHAR
STARTCHAR 2464
ENCODING 9316
SWIDTH 520 0
DWIDTH 12 0
BBX 12 12 0 -2
BITMAP
1f00
2080
5f40
9020
9e20
9120
8120
9120
4e40
2080
1f00
0000
ENDCHAR
STARTCHAR 2465
ENCODING 9317
SWIDTH 520 0
DWIDTH 12 0
BBX 12 12 0 -2
BITMAP
1f00
2080
4e40
9120
9020
9e20
9120
9120
4e40
2080
1f00
0000
ENDCHAR
STARTCHAR 2466
ENCODING 9318
SWIDTH 520 0
DWIDTH 12 0
BBX 12 12 0 -2
BITMAP
1f00
2080
5f40
9120
8220
8220
8420
8420
4440
2080
1f00
0000
ENDCHAR
STARTCHAR 2467
ENCODING 9319
SWIDTH 520 0
DWIDTH 12 0
BBX 12 12 0 -2
BITMAP
1f00
2080
4e40
9120
9120
8e20
9120
9120
4e40
2080
1f00
0000
ENDCHAR
STARTCHAR 2468
ENCODING 9320
SWIDTH 520 0
DWIDTH 12 0
BBX 12 12 0 -2
BITMAP
1f00
2080
4e40
9120
9120
8f20
8120
9120
4e40
2080
1f00
0000
ENDCHAR
STARTCHAR 2469
ENCODING 9321
SWIDTH 520 0
DWIDTH 12 0
BBX 12 12 0 -2
BITMAP
1f00
2080
5740
b520
9520
9520
9520
9520
5740
2080
1f00
0000
ENDCHAR
STARTCHAR 2474
ENCODING 9332
SWIDTH 520 0
DWIDTH 12 0
BBX 12 12 0 -2
BITMAP
2080
4440
8c20
8420
8420
8420
8420
8420
8e20
4040
2080
0000
ENDCHAR
STARTCHAR 2475
ENCODING 9333
SWIDTH 520 0
DWIDTH 12 0
BBX 12 12 0 -2
BITMAP
2080
4e40
9120
9120
8120
8220
8420
8920
9f20
4040
2080
0000
ENDCHAR
STARTCHAR 2476
ENCODING 9334
SWIDTH 520 0
DWIDTH 12 0
BBX 12 12 0 -2
BITMAP
2080
4e40
9120
8120
8620
8120
8120
9120
8e20
4040
2080
0000
ENDCHAR
STARTCHAR 2477
ENCODING 9335
SWIDTH 520 0
DWIDTH 12 0
BBX 12 12 0 -2
BITMAP
2080
4240
8220
8620
8620
8a20
9f20
8220
8720
4040
2080
0000
ENDCHAR
STARTCHAR 2478
ENCODING 9336
SWIDTH 520 0
DWIDTH 12 0
BBX 12 12 0 -2
BITMAP
2080
5f40
9020
9020
9e20
8120
8120
9120
8e20
4040
2080
0000
ENDCHAR
STARTCHAR 2479
ENCODING 9337
SWIDTH 520 0
DWIDTH 12 0
BBX 12 12 0 -2
BITMAP
2080
4e40
9120
9020
9e20
9120
9120
9120
8e20
4040
2080
0000
ENDCHAR
STARTCHAR 247A
ENCODING 9338
SWIDTH 520 0
DWIDTH 12 0
BBX 12 12 0 -2
BITMAP
2080
5f40
9120
8220
8220
8420
8420
8420
8420
4040
2080
0000
ENDCHAR
STARTCHAR 247B
ENCODING 9339
SWIDTH 520 0
DWIDTH 12 0
BBX 12 12 0 -2
BITMAP
2080
4e40
9120
9120
8e20
9120
9120
9120
8e20
4040
2080
0000
ENDCHAR
STARTCHAR 247C
ENCODING 9340
SWIDTH 520 0
DWIDTH 12 0
BBX 12 12 0 -2
BITMAP
2080
4e40
9120
9120
9320
8d20
8120
9120
8e20
4040
2080
0000
ENDCHAR
STARTCHAR 247D
ENCODING 9341
SWIDTH 520 0
DWIDTH 12 0
BBX 12 12 0 -2
BITMAP
2080
5740
b520
9520
9520
9520
9520
9520
bf20
4040
2080
0000
ENDCHAR
STARTCHAR 247E
ENCODING 9342
SWIDTH 520 0
DWIDTH 12 0
BBX 12 12 0 -2
BITMAP
2080
5140
b320
9120
9120
9120
9120
9120
bba0
4040
2080
0000
ENDCHAR
STARTCHAR 247F
ENCODING 9343
SWIDTH 520 0
DWIDTH 12 0
BBX 12 12 0 -2
BITMAP
2080
5340
b4a0
94a0
90a0
9120
9220
94a0
bfa0
4040
2080
0000
ENDCHAR
STARTCHAR 2480
ENCODING 9344
SWIDTH 520 0
DWIDTH 12 0
BBX 12 12 0 -2
BITMAP
2080
5340
b4a0
90a0
9120
90a0
90a0
94a0
bb20
4040
2080
0000
ENDCHAR
STARTCHAR 2481
ENCODING 9345
SWIDTH 520 0
DWIDTH 12 0
BBX 12 12 0 -2
BITMAP
2080
5140
b120
9320
9320
9520
97a0
9120
bba0
4040
2080
0000
ENDCHAR
STARTCHAR 2482
ENCODING 9346
SWIDTH 520 0
DWIDTH 12 0
BBX 12 12 0 -2
BITMAP
2080
57c0
b420
9420
9720
94a0
90a0
94a0
bb20
4040
2080
0000
ENDCHAR
STARTCHAR 2483
ENCODING 9347
SWIDTH 520 0
DWIDTH 12 0
BBX 12 12 0 -2
BITMAP
2080
5340
b4a0
9420
9720
94a0
94a0
94a0
bb20
4040
2080
0000
ENDCHAR
STARTCHAR 2484
ENCODING 9348
SWIDTH 520 0
DWIDTH 12 0
BBX 12 12 0 -2
BITMAP
2080
5740
b520
9120
9120
9220
9220
9220
ba20
4040
2080
0000
ENDCHAR
STARTCHAR 2485
ENCODING 9349
SWIDTH 520 0
DWIDTH 12 0
BBX 12 12 0 -2
BITMAP
2080
5340
b4a0
94a0
9320
94a0
94a0
94a0
bb20
4040
2080
0000
ENDCHAR
STARTCHAR 2486
ENCODING 9350
SWIDTH 520 0
DWIDTH 12 0
BBX 12 12 0 -2
BITMAP
2080
5340
b4a0
94a0
94a0
93a0
90a0
94a0
bb20
4040
2080
0000
ENDCHAR
STARTCHAR 2487
ENCODING 9351
SWIDTH 520 0
DWIDTH 12 0
BBX 12 12 0 -2
BITMAP
2080
7bc0
aaa0
8aa0
8aa0
92a0
92a0
a2a0
bba0
4040
2080
0000
ENDCHAR
STARTCHAR 2488
ENCODING 9352
SWIDTH 520 0
DWIDTH 12 0
BBX 12 12 0 -2
BITMAP
0000
0c00
0400
0400
0400
0400
0400
0400
0e20
0000
0000
0000
ENDCHAR
STARTCHAR 2489
ENCODING 9353
SWIDTH 520 0
DWIDTH 12 0
BBX 12 12 0 -2
BITMAP
0000
0e00
1100
1100
0100
0200
0400
0900
1f20
0000
0000
0000
ENDCHAR
STARTCHAR 248A
ENCODING 9354
SWIDTH 520 0
DWIDTH 12 0
BBX 12 12 0 -2
BITMAP
0000
0e00
1100
0100
0600
0100
0100
1100
0e20
0000
0000
0000
ENDCHAR
STARTCHAR 248B
ENCODING 9355
SWIDTH 520 0
DWIDTH 12 0
BBX 12 12 0 -2
BITMAP
0000
0200
0200
0600
0a00
1200
1f80
0200
0720
0000
0000
0000
ENDCHAR
STARTCHAR 248C
ENCODING 9356
SWIDTH 520 0
DWIDTH 12 0
BBX 12 12 0 -2
BITMAP
0000
1f00
1000
1000
1e00
0100
0100
1100
0e20
0000
0000
0000
ENDCHAR
STARTCHAR 248D
ENCODING 9357
SWIDTH 520 0
DWIDTH 12 0
BBX 12 12 0 -2
BITMAP
0000
0e00
1100
1000
1600
1900
1100
1100
0e20
0000
0000
0000
ENDCHAR
STARTCHAR 248E
ENCODING 9358
SWIDTH 520 0
DWIDTH 12 0
BBX 12 12 0 -2
BITMAP
0000
1f00
1100
0200
0200
0400
0400
0400
0420
0000
0000
0000
ENDCHAR
STARTCHAR 248F
ENCODING 9359
SWIDTH 520 0
DWIDTH 12 0
BBX 12 12 0 -2
BITMAP
0000
0e00
1100
1100
0e00
1100
1100
1100
0e20
0000
0000
0000
ENDCHAR
STARTCHAR 2490
ENCODING 9360
SWIDTH 520 0
DWIDTH 12 0
BBX 12 12 0 -2
BITMAP
0000
0e00
1100
1100
1100
0f00
0100
1100
0e20
0000
0000
0000
ENDCHAR
STARTCHAR 2491
ENCODING 9361
SWIDTH 520 0
DWIDTH 12 0
BBX 12 12 0 -2
BITMAP
0000
6300
2480
2480
2480
2480
2480
2480
7320
0000
0000
0000
ENDCHAR
STARTCHAR 2492
ENCODING 9362
SWIDTH 520 0
DWIDTH 12 0
BBX 12 12 0 -2
BITMAP
0000
6300
2100
2100
2100
2100
2100
2100
73a0
0000
0000
0000
ENDCHAR
STARTCHAR 2493
ENCODING 9363
SWIDTH 520 0
DWIDTH 12 0
BBX 12 12 0 -2
BITMAP
0000
6300
2480
2480
2080
2100
2200
2480
77a0
0000
0000
0000
ENDCHAR
STARTCHAR 2494
ENCODING 9364
SWIDTH 520 0
DWIDTH 12 0
BBX 12 12 0 -2
BITMAP
0000
6300
2480
2080
2300
2080
2080
2480
7320
0000
0000
0000
ENDCHAR
STARTCHAR 2495
ENCODING 9365
SWIDTH 520 0
DWIDTH 12 0
BBX 12 12 0 -2
BITMAP
0000
6100
2100
2300
2500
2900
2f80
2100
73a0
0000
0000
0000
ENDCHAR
STARTCHAR 2496
ENCODING 9366
SWIDTH 520 0
DWIDTH 12 0
BBX 12 12 0 -2
BITMAP
0000
6780
2400
2400
2700
2080
2080
2480
7320
0000
0000
0000
ENDCHAR
STARTCHAR 2497
ENCODING 9367
SWIDTH 520 0
DWIDTH 12 0
BBX 12 12 0 -2
BITMAP
0000
6300
2480
2400
2700
2480
2480
2480
7320
0000
0000
0000
ENDCHAR
STARTCHAR 2498
ENCODING 9368
SWIDTH 520 0
DWIDTH 12 0
BBX 12 12 0 -2
BITMAP
0000
6780
2480
2100
2100
2200
2200
2200
7220
0000
0000
0000
ENDCHAR
STARTCHAR 2499
ENCODING 9369
SWIDTH 520 0
DWIDTH 12 0
BBX 12 12 0 -2
BITMAP
0000
6300
2480
2480
2300
2480
2480
2480
7320
0000
0000
0000
ENDCHAR
STARTCHAR 249A
ENCODING 9370
SWIDTH 520 0
DWIDTH 12 0
BBX 12 12 0 -2
BITMAP
0000
6300
2480
2480
2480
2380
2080
2480
7320
0000
0000
0000
ENDCHAR
STARTCHAR 249B
ENCODING 9371
SWIDTH 520 0
DWIDTH 12 0
BBX 12 12 0 -2
BITMAP
0000
6300
9480
9480
1480
2480
4480
9480
f320
0000
0000
0000
ENDCHAR
STARTCHAR 2500
ENCODING 9472
SWIDTH 520 0
DWIDTH 12 0
BBX 12 12 0 -2
BITMAP
0000
0000
0000
0000
0000
fff0
0000
0000
0000
0000
0000
0000
ENDCHAR
STARTCHAR 2501
ENCODING 9473
SWIDTH 520 0
DWIDTH 12 0
BBX 12 12 0 -2
BITMAP
0000
0000
0000
0000
0000
fff0
fff0
0000
0000
0000
0000
0000
ENDCHAR
STARTCHAR 2502
ENCODING 9474
SWIDTH 520 0
DWIDTH 12 0
BBX 12 12 0 -2
BITMAP
0400
0400
0400
0400
0400
0400
0400
0400
0400
0400
0400
0400
ENDCHAR
STARTCHAR 2503
ENCODING 9475
SWIDTH 520 0
DWIDTH 12 0
BBX 12 12 0 -2
BITMAP
0600
0600
0600
0600
0600
0600
0600
0600
0600
0600
0600
0600
ENDCHAR
STARTCHAR 2504
ENCODING 9476
SWIDTH 520 0
DWIDTH 12 0
BBX 12 12 0 -2
BITMAP
0000
0000
0000
0000
0000
eee0
0000
0000
0000
0000
0000
0000
ENDCHAR
STARTCHAR 2505
ENCODING 9477
SWIDTH 520 0
DWIDTH 12 0
BBX 12 12 0 -2
BITMAP
0000
0000
0000
0000
0000
eee0
eee0
0000
0000
0000
0000
0000
ENDCHAR
STARTCHAR 2506
ENCODING 9478
SWIDTH 520 0
DWIDTH 12 0
BBX 12 12 0 -2
BITMAP
0400
0400
0400
0000
0400
0400
0400
0000
0400
0400
0400
0000
ENDCHAR
STARTCHAR 2507
ENCODING 9479
SWIDTH 520 0
DWIDTH 12 0
BBX 12 12 0 -2
BITMAP
0600
0600
0600
0000
0600
0600
0600
0000
0600
0600
0600
0000
ENDCHAR
STARTCHAR 2508
ENCODING 9480
SWIDTH 520 0
DWIDTH 12 0
BBX 12 12 0 -2
BITMAP
0000
0000
0000
0000
0000
db60
0000
0000
0000
0000
0000
0000
ENDCHAR
STARTCHAR 2509
ENCODING 9481
SWIDTH 520 0
DWIDTH 12 0
BBX 12 12 0 -2
BITMAP
0000
0000
0000
0000
0000
db60
db60
0000
0000
0000
0000
0000
ENDCHAR
STARTCHAR 250A
ENCODING 9482
SWIDTH 520 0
DWIDTH 12 0
BBX 12 12 0 -2
BITMAP
0400
0400
0000
0400
0400
0000
0400
0400
0000
0400
0400
0000
ENDCHAR
STARTCHAR 250B
ENCODING 9483
SWIDTH 520 0
DWIDTH 12 0
BBX 12 12 0 -2
BITMAP
0600
0600
0000
0600
0600
0000
0600
0600
0000
0600
0600
0000
ENDCHAR
STARTCHAR 250C
ENCODING 9484
SWIDTH 520 0
DWIDTH 12 0
BBX 12 12 0 -2
BITMAP
0000
0000
0000
0000
0000
07f0
0400
0400
0400
0400
0400
0400
ENDCHAR
STARTCHAR 250D
ENCODING 9485
SWIDTH 520 0
DWIDTH 12 0
BBX 12 12 0 -2
BITMAP
0000
0000
0000
0000
0000
07f0
07f0
0400
0400
0400
0400
0400
ENDCHAR
STARTCHAR 250E
ENCODING 9486
SWIDTH 520 0
DWIDTH 12 0
BBX 12 12 0 -2
BITMAP
0000
0000
0000
0000
0000
07f0
0600
0600
0600
0600
0600
0600
ENDCHAR
STARTCHAR 250F
ENCODING 9487
SWIDTH 520 0
DWIDTH 12 0
BBX 12 12 0 -2
BITMAP
0000
0000
0000
0000
0000
07f0
07f0
0600
0600
0600
0600
0600
ENDCHAR
STARTCHAR 2510
ENCODING 9488
SWIDTH 520 0
DWIDTH 12 0
BBX 12 12 0 -2
BITMAP
0000
0000
0000
0000
0000
fc00
0400
0400
0400
0400
0400
0400
ENDCHAR
STARTCHAR 2511
ENCODING 9489
SWIDTH 520 0
DWIDTH 12 0
BBX 12 12 0 -2
BITMAP
0000
0000
0000
0000
0000
fc00
fc00
0400
0400
0400
0400
0400
ENDCHAR
STARTCHAR 2512
ENCODING 9490
SWIDTH 520 0
DWIDTH 12 0
BBX 12 12 0 -2
BITMAP
0000
0000
0000
0000
0000
fe00
0600
0600
0600
0600
0600
0600
ENDCHAR
STARTCHAR 2513
ENCODING 9491
SWIDTH 520 0
DWIDTH 12 0
BBX 12 12 0 -2
BITMAP
0000
0000
0000
0000
0000
fe00
fe00
0600
0600
0600
0600
0600
ENDCHAR
STARTCHAR 2514
ENCODING 9492
SWIDTH 520 0
DWIDTH 12 0
BBX 12 12 0 -2
BITMAP
0400
0400
0400
0400
0400
07f0
0000
0000
0000
0000
0000
0000
ENDCHAR
STARTCHAR 2515
ENCODING 9493
SWIDTH 520 0
DWIDTH 12 0
BBX 12 12 0 -2
BITMAP
0400
0400
0400
0400
0400
07f0
07f0
0000
0000
0000
0000
0000
ENDCHAR
STARTCHAR 2516
ENCODING 9494
SWIDTH 520 0
DWIDTH 12 0
BBX 12 12 0 -2
BITMAP
0600
0600
0600
0600
0600
07f0
0000
0000
0000
0000
0000
0000
ENDCHAR
STARTCHAR 2517
ENCODING 9495
SWIDTH 520 0
DWIDTH 12 0
BBX 12 12 0 -2
BITMAP
0600
0600
0600
0600
0600
07f0
07f0
0000
0000
0000
0000
0000
ENDCHAR
STARTCHAR 2518
ENCODING 9496
SWIDTH 520 0
DWIDTH 12 0
BBX 12 12 0 -2
BITMAP
0400
0400
0400
0400
0400
fc00
0000
0000
0000
0000
0000
0000
ENDCHAR
STARTCHAR 2519
ENCODING 9497
SWIDTH 520 0
DWIDTH 12 0
BBX 12 12 0 -2
BITMAP
0400
0400
0400
0400
0400
fc00
fc00
0000
0000
0000
0000
0000
ENDCHAR
STARTCHAR 251A
ENCODING 9498
SWIDTH 520 0
DWIDTH 12 0
BBX 12 12 0 -2
BITMAP
0600
0600
0600
0600
0600
fe00
0000
0000
0000
0000
0000
0000
ENDCHAR
STARTCHAR 251B
ENCODING 9499
SWIDTH 520 0
DWIDTH 12 0
BBX 12 12 0 -2
BITMAP
0600
0600
0600
0600
0600
fe00
fe00
0000
0000
0000
0000
0000
ENDCHAR
STARTCHAR 251C
ENCODING 9500
SWIDTH 520 0
DWIDTH 12 0
BBX 12 12 0 -2
BITMAP
0400
0400
0400
0400
0400
07f0
0400
0400
0400
0400
0400
0400
ENDCHAR
STARTCHAR 251D
ENCODING 9501
SWIDTH 520 0
DWIDTH 12 0
BBX 12 12 0 -2
BITMAP
0400
0400
0400
0400
0400
07f0
07f0
0400
0400
0400
0400
0400
ENDCHAR
STARTCHAR 251E
ENCODING 9502
SWIDTH 520 0
DWIDTH 12 0
BBX 12 12 0 -2
BITMAP
0600
0600
0600
0600
0600
07f0
0400
0400
0400
0400
0400
0400
ENDCHAR
STARTCHAR 251F
ENCODING 9503
SWIDTH 520 0
DWIDTH 12 0
BBX 12 12 0 -2
BITMAP
0400
0400
0400
0400
0400
07f0
0600
0600
0600
0600
0600
0600
ENDCHAR
STARTCHAR 2520
ENCODING 9504
SWIDTH 520 0
DWIDTH 12 0
BBX 12 12 0 -2
BITMAP
0600
0600
0600
0600
0600
07f0
0600
0600
0600
0600
0600
0600
ENDCHAR
STARTCHAR 2521
ENCODING 9505
SWIDTH 520 0
DWIDTH 12 0
BBX 12 12 0 -2
BITMAP
0600
0600
0600
0600
0600
07f0
07f0
0400
0400
0400
0400
0400
ENDCHAR
STARTCHAR 2522
ENCODING 9506
SWIDTH 520 0
DWIDTH 12 0
BBX 12 12 0 -2
BITMAP
0400
0400
0400
0400
0400
07f0
07f0
0600
0600
0600
0600
0600
ENDCHAR
STARTCHAR 2523
ENCODING 9507
SWIDTH 520 0
DWIDTH 12 0
BBX 12 12 0 -2
BITMAP
0600
0600
0600
0600
0600
07f0
07f0
0600
0600
0600
0600
0600
ENDCHAR
STARTCHAR 2524
ENCODING 9508
SWIDTH 520 0
DWIDTH 12 0
BBX 12 12 0 -2
BITMAP
0400
0400
0400
0400
0400
fc00
0400
0400
0400
0400
0400
0400
ENDCHAR
STARTCHAR 2525
ENCODING 9509
SWIDTH 520 0
DWIDTH 12 0
BBX 12 12 0 -2
BITMAP
0400
0400
0400
0400
0400
fc00
fc00
0400
0400
0400
0400
0400
ENDCHAR
STARTCHAR 2526
ENCODING 9510
SWIDTH 520 0
DWIDTH 12 0
BBX 12 12 0 -2
BITMAP
0600
0600
0600
0600
0600
fe00
0400
0400
0400
0400
0400
0400
ENDCHAR
STARTCHAR 2527
ENCODING 9511
SWIDTH 520 0
DWIDTH 12 0
BBX 12 12 0 -2
BITMAP
0400
0400
0400
0400
0400
fe00
0600
0600
0600
0600
0600
0600
ENDCHAR
STARTCHAR 2528
ENCODING 9512
SWIDTH 520 0
DWIDTH 12 0
BBX 12 12 0 -2
BITMAP
0600
0600
0600
0600
0600
fe00
0600
0600
0600
0600
0600
0600
ENDCHAR
STARTCHAR 2529
ENCODING 9513
SWIDTH 520 0
DWIDTH 12 0
BBX 12 12 0 -2
BITMAP
0600
0600
0600
0600
0600
fe00
fe00
0400
0400
0400
0400
0400
ENDCHAR
STARTCHAR 252A
ENCODING 9514
SWIDTH 520 0
DWIDTH 12 0
BBX 12 12 0 -2
BITMAP
0400
0400
0400
0400
0400
fe00
fe00
0600
0600
0600
0600
0600
ENDCHAR
STARTCHAR 252B
ENCODING 9515
SWIDTH 520 0
DWIDTH 12 0
BBX 12 12 0 -2
BITMAP
0600
0600
0600
0600
0600
fe00
fe00
0600
0600
0600
0600
0600
ENDCHAR
STARTCHAR 252C
ENCODING 9516
SWIDTH 520 0
DWIDTH 12 0
BBX 12 12 0 -2
BITMAP
0000
0000
0000
0000
0000
fff0
0400
0400
0400
0400
0400
0400
ENDCHAR
STARTCHAR 252D
ENCODING 9517
SWIDTH 520 0
DWIDTH 12 0
BBX 12 12 0 -2
BITMAP
0000
0000
0000
0000
0000
fff0
fc00
0400
0400
0400
0400
0400
ENDCHAR
STARTCHAR 252E
ENCODING 9518
SWIDTH 520 0
DWIDTH 12 0
BBX 12 12 0 -2
BITMAP
0000
0000
0000
0000
0000
fff0
07f0
0400
0400
0400
0400
0400
ENDCHAR
STARTCHAR 252F
ENCODING 9519
SWIDTH 520 0
DWIDTH 12 0
BBX 12 12 0 -2
BITMAP
0000
0000
0000
0000
0000
fff0
fff0
0400
0400
0400
0400
0400
ENDCHAR
STARTCHAR 2530
ENCODING 9520
SWIDTH 520 0
DWIDTH 12 0
BBX 12 12 0 -2
BITMAP
0000
0000
0000
0000
0000
fff0
0600
0600
0600
0600
0600
0600
ENDCHAR
STARTCHAR 2531
ENCODING 9521
SWIDTH 520 0
DWIDTH 12 0
BBX 12 12 0 -2
BITMAP
0000
0000
0000
0000
0000
fff0
fe00
0600
0600
0600
0600
0600
ENDCHAR
STARTCHAR 2532
ENCODING 9522
SWIDTH 520 0
DWIDTH 12 0
BBX 12 12 0 -2
BITMAP
0000
0000
0000
0000
0000
fff0
07f0
0600
0600
0600
0600
0600
ENDCHAR
STARTCHAR 2533
ENCODING 9523
SWIDTH 520 0
DWIDTH 12 0
BBX 12 12 0 -2
BITMAP
0000
0000
0000
0000
0000
fff0
fff0
0600
0600
0600
0600
0600
ENDCHAR
STARTCHAR 2534
ENCODING 9524
SWIDTH 520 0
DWIDTH 12 0
BBX 12 12 0 -2
BITMAP
0400
0400
0400
0400
0400
fff0
0000
0000
0000
0000
0000
0000
ENDCHAR
STARTCHAR 2535
ENCODING 9525
SWIDTH 520 0
DWIDTH 12 0
BBX 12 12 0 -2
BITMAP
0400
0400
0400
0400
0400
fff0
fc00
0000
0000
0000
0000
0000
ENDCHAR
STARTCHAR 2536
ENCODING 9526
SWIDTH 520 0
DWIDTH 12 0
BBX 12 12 0 -2
BITMAP
0400
0400
0400
0400
0400
fff0
07f0
0000
0000
0000
0000
0000
ENDCHAR
STARTCHAR 2537
ENCODING 9527
SWIDTH 520 0
DWIDTH 12 0
BBX 12 12 0 -2
BITMAP
0400
0400
0400
0400
0400
fff0
fff0
0000
0000
0000
0000
0000
ENDCHAR
STARTCHAR 2538
ENCODING 9528
SWIDTH 520 0
DWIDTH 12 0
BBX 12 12 0 -2
BITMAP
0600
0600
0600
0600
0600
fff0
0000
0000
0000
0000
0000
0000
ENDCHAR
STARTCHAR 2539
ENCODING 9529
SWIDTH 520 0
DWIDTH 12 0
BBX 12 12 0 -2
BITMAP
0600
0600
0600
0600
0600
fff0
fc00
0000
0000
0000
0000
0000
ENDCHAR
STARTCHAR 253A
ENCODING 9530
SWIDTH 520 0
DWIDTH 12 0
BBX 12 12 0 -2
BITMAP
0600
0600
0600
0600
0600
fff0
07f0
0000
0000
0000
0000
0000
ENDCHAR
STARTCHAR 253B
ENCODING 9531
SWIDTH 520 0
DWIDTH 12 0
BBX 12 12 0 -2
BITMAP
0600
0600
0600
0600
0600
fff0
fff0
0000
0000
0000
0000
0000
ENDCHAR
STARTCHAR 253C
ENCODING 9532
SWIDTH 520 0
DWIDTH 12 0
BBX 12 12 0 -2
BITMAP
0400
0400
0400
0400
0400
fff0
0400
0400
0400
0400
0400
0400
ENDCHAR
STARTCHAR 253D
ENCODING 9533
SWIDTH 520 0
DWIDTH 12 0
BBX 12 12 0 -2
BITMAP
0400
0400
0400
0400
0400
fff0
fc00
0400
0400
0400
0400
0400
ENDCHAR
STARTCHAR 253E
ENCODING 9534
SWIDTH 520 0
DWIDTH 12 0
BBX 12 12 0 -2
BITMAP
0400
0400
0400
0400
0400
fff0
07f0
0400
0400
0400
0400
0400
ENDCHAR
STARTCHAR 253F
ENCODING 9535
SWIDTH 520 0
DWIDTH 12 0
BBX 12 12 0 -2
BITMAP
0400
0400
0400
0400
0400
fff0
fff0
0400
0400
0400
0400
0400
ENDCHAR
STARTCHAR 2540
ENCODING 9536
SWIDTH 520 0
DWIDTH 12 0
BBX 12 12 0 -2
BITMAP
0600
0600
0600
0600
0600
fff0
0400
0400
0400
0400
0400
0400
ENDCHAR
STARTCHAR 2541
ENCODING 9537
SWIDTH 520 0
DWIDTH 12 0
BBX 12 12 0 -2
BITMAP
0400
0400
0400
0400
0400
fff0
0600
0600
0600
0600
0600
0600
ENDCHAR
STARTCHAR 2542
ENCODING 9538
SWIDTH 520 0
DWIDTH 12 0
BBX 12 12 0 -2
BITMAP
0600
0600
0600
0600
0600
fff0
0600
0600
0600
0600
0600
0600
ENDCHAR
STARTCHAR 2543
ENCODING 9539
SWIDTH 520 0
DWIDTH 12 0
BBX 12 12 0 -2
BITMAP
0600
0600
0600
0600
0600
fff0
fc00
0400
0400
0400
0400
0400
ENDCHAR
STARTCHAR 2544
ENCODING 9540
SWIDTH 520 0
DWIDTH 12 0
BBX 12 12 0 -2
BITMAP
0600
0600
0600
0600
0600
fff0
07f0
0400
0400
0400
0400
0400
ENDCHAR
STARTCHAR 2545
ENCODING 9541
SWIDTH 520 0
DWIDTH 12 0
BBX 12 12 0 -2
BITMAP
0400
0400
0400
0400
0400
fff0
fe00
0600
0600
0600
0600
0600
ENDCHAR
STARTCHAR 2546
ENCODING 9542
SWIDTH 520 0
DWIDTH 12 0
BBX 12 12 0 -2
BITMAP
0400
0400
0400
0400
0400
fff0
07f0
0600
0600
0600
0600
0600
ENDCHAR
STARTCHAR 2547
ENCODING 9543
SWIDTH 520 0
DWIDTH 12 0
BBX 12 12 0 -2
BITMAP
0600
0600
0600
0600
0600
fff0
fff0
0400
0400
0400
0400
0400
ENDCHAR
STARTCHAR 2548
ENCODING 9544
SWIDTH 520 0
DWIDTH 12 0
BBX 12 12 0 -2
BITMAP
0400
0400
0400
0400
0400
fff0
fff0
0600
0600
0600
0600
0600
ENDCHAR
STARTCHAR 2549
ENCODING 9545
SWIDTH 520 0
DWIDTH 12 0
BBX 12 12 0 -2
BITMAP
0600
0600
0600
0600
0600
fff0
fe00
0600
0600
0600
0600
0600
ENDCHAR
STARTCHAR 254A
ENCODING 9546
SWIDTH 520 0
DWIDTH 12 0
BBX 12 12 0 -2
BITMAP
0600
0600
0600
0600
0600
fff0
07f0
0600
0600
0600
0600
0600
ENDCHAR
STARTCHAR 254B
ENCODING 9547
SWIDTH 520 0
DWIDTH 12 0
BBX 12 12 0 -2
BITMAP
0600
0600
0600
0600
0600
fff0
fff0
0600
0600
0600
0600
0600
ENDCHAR
STARTCHAR 25A0
ENCODING 9632
SWIDTH 520 0
DWIDTH 12 0
BBX 12 12 0 -2
BITMAP
0000
7fc0
7fc0
7fc0
7fc0
7fc0
7fc0
7fc0
7fc0
7fc0
0000
0000
ENDCHAR
STARTCHAR 25A1
ENCODING 9633
SWIDTH 520 0
DWIDTH 12 0
BBX 12 12 0 -2
BITMAP
0000
7fc0
4040
4040
4040
4040
4040
4040
4040
7fc0
0000
0000
ENDCHAR
STARTCHAR 25B2
ENCODING 9650
SWIDTH 520 0
DWIDTH 12 0
BBX 12 12 0 -2
BITMAP
0400
0400
0e00
0e00
1f00
1f00
3f80
3f80
7fc0
7fc0
0000
0000
ENDCHAR
STARTCHAR 25B3
ENCODING 9651
SWIDTH 520 0
DWIDTH 12 0
BBX 12 12 0 -2
BITMAP
0400
0400
0a00
0a00
1100
1100
2080
2080
4040
7fc0
0000
0000
ENDCHAR
STARTCHAR 25C6
ENCODING 9670
SWIDTH 520 0
DWIDTH 12 0
BBX 12 12 0 -2
BITMAP
0400
0e00
1f00
3f80
7fc0
ffe0
7fc0
3f80
1f00
0e00
0400
0000
ENDCHAR
STARTCHAR 25C7
ENCODING 9671
SWIDTH 520 0
DWIDTH 12 0
BBX 12 12 0 -2
BITMAP
0400
0a00
1100
2080
4040
8020
4040
2080
1100
0a00
0400
0000
ENDCHAR
STARTCHAR 25CB
ENCODING 9675
SWIDTH 520 0
DWIDTH 12 0
BBX 12 12 0 -2
BITMAP
0000
1f00
2080
4040
4040
4040
4040
4040
2080
1f00
0000
0000
ENDCHAR
STARTCHAR 25CE
ENCODING 9678
SWIDTH 520 0
DWIDTH 12 0
BBX 12 12 0 -2
BITMAP
0000
1f00
2080
4e40
5140
5140
5140
4e40
2080
1f00
0000
0000
ENDCHAR
STARTCHAR 25CF
ENCODING 9679
SWIDTH 520 0
DWIDTH 12 0
BBX 12 12 0 -2
BITMAP
0000
1f00
3f80
7fc0
7fc0
7fc0
7fc0
7fc0
3f80
1f00
0000
0000
ENDCHAR
STARTCHAR 2605
ENCODING 9733
SWIDTH 520 0
DWIDTH 12 0
BBX 12 12 0 -2
BITMAP
0400
0400
0e00
0e00
ffe0
7fc0
1f00
1f00
3b80
2080
4040
0000
ENDCHAR
STARTCHAR 2606
ENCODING 9734
SWIDTH 520 0
DWIDTH 12 0
BBX 12 12 0 -2
BITMAP
0400
0400
0400
0a00
fbe0
4040
3180
1500
1a80
3180
2080
0000
ENDCHAR
STARTCHAR 2640
ENCODING 9792
SWIDTH 520 0
DWIDTH 12 0
BBX 12 12 0 -2
BITMAP
0e00
1100
1100
1100
0e00
0400
3f80
0400
0400
0400
0000
0000
ENDCHAR
STARTCHAR 2642
ENCODING 9794
SWIDTH 520 0
DWIDTH 12 0
BBX 12 12 0 -2
BITMAP
0400
0400
0e00
1500
0400
0400
0e00
1100
1100
1100
0e00
0000
ENDCHAR
STARTCHAR 3000
ENCODING 12288
SWIDTH 520 0
DWIDTH 12 0
BBX 12 12 0 -2
BITMAP
0000
0000
0000
0000
0000
0000
0000
0000
0000
0000
0000
0000
ENDCHAR
STARTCHAR 3001
ENCODING 12289
SWIDTH 520 0
DWIDTH 12 0
BBX 12 12 0 -2
BITMAP
0000
0000
0000
0000
0000
0000
0000
8000
6000
2000
0000
0000
ENDCHAR
STARTCHAR 3002
ENCODING 12290
SWIDTH 520 0
DWIDTH 12 0
BBX 12 12 0 -2
BITMAP
0000
0000
0000
0000
0000
0000
0000
7000
5000
7000
0000
0000
ENDCHAR
STARTCHAR 3003
ENCODING 12291
SWIDTH 520 0
DWIDTH 12 0
BBX 12 12 0 -2
BITMAP
0000
0000
0000
0500
0500
0a00
0a00
1400
0000
0000
0000
0000
ENDCHAR
STARTCHAR 3005
ENCODING 12293
SWIDTH 520 0
DWIDTH 12 0
BBX 12 12 0 -2
BITMAP
0000
0800
0800
0f80
1080
2100
0a00
0400
0200
0200
0000
0000
ENDCHAR
STARTCHAR 3008
ENCODING 12296
SWIDTH 520 0
DWIDTH 12 0
BBX 12 12 0 -2
BITMAP
0040
0040
0080
0080
0100
0100
0100
0080
0080
0040
0040
0000
ENDCHAR
STARTCHAR 3009
ENCODING 12297
SWIDTH 520 0
DWIDTH 12 0
BBX 12 12 0 -2
BITMAP
4000
4000
2000
2000
1000
1000
1000
2000
2000
4000
4000
0000
ENDCHAR
STARTCHAR 300A
ENCODING 12298
SWIDTH 520 0
DWIDTH 12 0
BBX 12 12 0 -2
BITMAP
00a0
00a0
0140
0140
0280
0280
0280
0140
0140
00a0
00a0
0000
ENDCHAR
STARTCHAR 300B
ENCODING 12299
SWIDTH 520 0
DWIDTH 12 0
BBX 12 12 0 -2
BITMAP
a000
a000
5000
5000
2800
2800
2800
5000
5000
a000
a000
0000
ENDCHAR
STARTCHAR 300C
ENCODING 12300
SWIDTH 520 0
DWIDTH 12 0
BBX 12 12 0 -2
BITMAP
01c0
0100
0100
0100
0100
0100
0100
0100
0100
0100
0100
0000
ENDCHAR
STARTCHAR 300D
ENCODING 12301
SWIDTH 520 0
DWIDTH 12 0
BBX 12 12 0 -2
BITMAP
1000
1000
1000
1000
1000
1000
1000
1000
1000
1000
7000
0000
ENDCHAR
STARTCHAR 300E
ENCODING 12302
SWIDTH 520 0
DWIDTH 12 0
BBX 12 12 0 -2
BITMAP
03e0
0220
02e0
0280
0280
0280
0280
0280
0280
0280
0380
0000
ENDCHAR
STARTCHAR 300F
ENCODING 12303
SWIDTH 520 0
DWIDTH 12 0
BBX 12 12 0 -2
BITMAP
3800
2800
2800
2800
2800
2800
2800
2800
e800
8800
f800
0000
ENDCHAR
STARTCHAR 3010
ENCODING 12304
SWIDTH 520 0
DWIDTH 12 0
BBX 12 12 0 -2
BITMAP
07c0
0780
0700
0700
0600
0600
0600
0700
0700
0780
07c0
0000
ENDCHAR
STARTCHAR 3011
ENCODING 12305
SWIDTH 520 0
DWIDTH 12 0
BBX 12 12 0 -2
BITMAP
7c00
3c00
1c00
1c00
0c00
0c00
0c00
1c00
1c00
3c00
7c00
0000
ENDCHAR
STARTCHAR 3013
ENCODING 12307
SWIDTH 520 0
DWIDTH 12 0
BBX 12 12 0 -2
BITMAP
0000
ffe0
ffe0
ffe0
0000
0000
0000
ffe0
ffe0
ffe0
0000
0000
ENDCHAR
STARTCHAR 3014
ENCODING 12308
SWIDTH 520 0
DWIDTH 12 0
BBX 12 12 0 -2
BITMAP
0040
0080
0100
0100
0100
0100
0100
0100
0100
0080
0040
0000
ENDCHAR
STARTCHAR 3015
ENCODING 12309
SWIDTH 520 0
DWIDTH 12 0
BBX 12 12 0 -2
BITMAP
4000
2000
1000
1000
1000
1000
1000
1000
1000
2000
4000
0000
ENDCHAR
STARTCHAR 3016
ENCODING 12310
SWIDTH 520 0
DWIDTH 12 0
BBX 12 12 0 -2
BITMAP
07c0
0440
0480
0480
0500
0500
0500
0480
0480
0440
07c0
0000
ENDCHAR
STARTCHAR 3017
ENCODING 12311
SWIDTH 520 0
DWIDTH 12 0
BBX 12 12 0 -2
BITMAP
7c00
4400
2400
2400
1400
1400
1400
2400
2400
4400
7c00
0000
ENDCHAR
STARTCHAR 3041
ENCODING 12353
SWIDTH 520 0
DWIDTH 12 0
BBX 12 12 0 -2
BITMAP
0800
0e00
1800
0e00
1b00
2d00
2900
1200
0000
0000
0000
0000
ENDCHAR
STARTCHAR 3042
ENCODING 12354
SWIDTH 520 0
DWIDTH 12 0
BBX 12 12 0 -2
BITMAP
0000
0800
0e00
1800
0f00
1a80
2c80
2880
3500
0000
0000
0000
ENDCHAR
STARTCHAR 3043
ENCODING 12355
SWIDTH 520 0
DWIDTH 12 0
BBX 12 12 0 -2
BITMAP
0000
0000
2000
2300
2080
2580
2400
1800
0000
0000
0000
0000
ENDCHAR
STARTCHAR 3044
ENCODING 12356
SWIDTH 520 0
DWIDTH 12 0
BBX 12 12 0 -2
BITMAP
0000
0000
2200
2100
2080
2580
2800
1800
0000
0000
0000
0000
ENDCHAR
STARTCHAR 3045
ENCODING 12357
SWIDTH 520 0
DWIDTH 12 0
BBX 12 12 0 -2
BITMAP
0000
0800
0400
0600
1900
0100
0200
0400
0800
0000
0000
0000
ENDCHAR
STARTCHAR 3046
ENCODING 12358
SWIDTH 520 0
DWIDTH 12 0
BBX 12 12 0 -2
BITMAP
1800
0400
0800
0600
1900
0100
0100
0200
0400
0800
0000
0000
ENDCHAR
STARTCHAR 3047
ENCODING 12359
SWIDTH 520 0
DWIDTH 12 0
BBX 12 12 0 -2
BITMAP
0000
0800
0400
0600
1a00
0400
0c00
1400
0700
0000
0000
0000
ENDCHAR
STARTCHAR 3048
ENCODING 12360
SWIDTH 520 0
DWIDTH 12 0
BBX 12 12 0 -2
BITMAP
0000
0800
0400
0600
1a00
0400
0c00
1400
2780
0000
0000
0000
ENDCHAR
STARTCHAR 3049
ENCODING 12361
SWIDTH 520 0
DWIDTH 12 0
BBX 12 12 0 -2
BITMAP
0000
0000
0900
1c80
0b00
0c80
1880
0b00
0000
0000
0000
0000
ENDCHAR
STARTCHAR 304A
ENCODING 12362
SWIDTH 520 0
DWIDTH 12 0
BBX 12 12 0 -2
BITMAP
0000
1000
1180
3840
1780
1880
1080
3700
1000
0000
0000
0000
ENDCHAR
STARTCHAR 304B
ENCODING 12363
SWIDTH 520 0
DWIDTH 12 0
BBX 12 12 0 -2
BITMAP
0000
0000
0400
0480
3e40
0ac0
1200
2a00
0400
0000
0000
0000
ENDCHAR
STARTCHAR 304C
ENCODING 12364
SWIDTH 520 0
DWIDTH 12 0
BBX 12 12 0 -2
BITMAP
0000
0940
08a0
0f00
3a80
1380
1200
2c00
4000
0000
0000
0000
ENDCHAR
STARTCHAR 304D
ENCODING 12365
SWIDTH 520 0
DWIDTH 12 0
BBX 12 12 0 -2
BITMAP
0000
0a00
3c00
0500
3e00
0100
0f00
1000
0f00
0000
0000
0000
ENDCHAR
STARTCHAR 304E
ENCODING 12366
SWIDTH 520 0
DWIDTH 12 0
BBX 12 12 0 -2
BITMAP
0000
1280
0d40
7800
0f00
7400
1e00
2000
2000
1e00
0000
0000
ENDCHAR
STARTCHAR 304F
ENCODING 12367
SWIDTH 520 0
DWIDTH 12 0
BBX 12 12 0 -2
BITMAP
0000
0200
0200
0400
0800
1000
0800
0400
0200
0200
0000
0000
ENDCHAR
STARTCHAR 3050
ENCODING 12368
SWIDTH 520 0
DWIDTH 12 0
BBX 12 12 0 -2
BITMAP
0000
0500
0480
0900
1080
2000
1000
0800
0400
0400
0000
0000
ENDCHAR
STARTCHAR 3051
ENCODING 12369
SWIDTH 520 0
DWIDTH 12 0
BBX 12 12 0 -2
BITMAP
0000
2100
1100
1780
2100
2100
2900
3200
1200
0400
0000
0000
ENDCHAR
STARTCHAR 3052
ENCODING 12370
SWIDTH 520 0
DWIDTH 12 0
BBX 12 12 0 -2
BITMAP
0000
2240
2280
2380
4e00
4200
5200
2200
2400
0800
0000
0000
ENDCHAR
STARTCHAR 3053
ENCODING 12371
SWIDTH 520 0
DWIDTH 12 0
BBX 12 12 0 -2
BITMAP
0000
0c00
0300
0400
0000
1000
2000
2080
1f00
0000
0000
0000
ENDCHAR
STARTCHAR 3054
ENCODING 12372
SWIDTH 520 0
DWIDTH 12 0
BBX 12 12 0 -2
BITMAP
0080
0140
1880
0600
0800
0000
2000
2000
1f00
0000
0000
0000
ENDCHAR
STARTCHAR 3055
ENCODING 12373
SWIDTH 520 0
DWIDTH 12 0
BBX 12 12 0 -2
BITMAP
0800
1000
0a00
3c00
0200
1f00
2000
2000
1f00
0000
0000
0000
ENDCHAR
STARTCHAR 3056
ENCODING 12374
SWIDTH 520 0
DWIDTH 12 0
BBX 12 12 0 -2
BITMAP
0000
1040
12a0
7c40
0200
1f00
2000
2000
1e00
0000
0000
0000
ENDCHAR
STARTCHAR 3057
ENCODING 12375
SWIDTH 520 0
DWIDTH 12 0
BBX 12 12 0 -2
BITMAP
0000
1000
1000
1000
1000
1080
1100
1200
0c00
0000
0000
0000
ENDCHAR
STARTCHAR 3058
ENCODING 12376
SWIDTH 520 0
DWIDTH 12 0
BBX 12 12 0 -2
BITMAP
0000
1100
1480
1200
1000
1080
1100
1200
0c00
0000
0000
0000
ENDCHAR
STARTCHAR 3059
ENCODING 12377
SWIDTH 520 0
DWIDTH 12 0
BBX 12 12 0 -2
BITMAP
0400
0400
0400
7fc0
0600
0a00
0a00
0600
0400
0800
0000
0000
ENDCHAR
STARTCHAR 305A
ENCODING 12378
SWIDTH 520 0
DWIDTH 12 0
BBX 12 12 0 -2
BITMAP
0880
0540
0480
7f80
0c00
1400
0c00
0400
0800
1000
0000
0000
ENDCHAR
STARTCHAR 305B
ENCODING 12379
SWIDTH 520 0
DWIDTH 12 0
BBX 12 12 0 -2
BITMAP
0000
0200
0200
1200
1fc0
7200
1600
0800
0700
0000
0000
0000
ENDCHAR
STARTCHAR 305C
ENCODING 12380
SWIDTH 520 0
DWIDTH 12 0
BBX 12 12 0 -2
BITMAP
0040
02a0
1240
1380
7e00
1200
1400
0f00
0000
0000
0000
0000
ENDCHAR
STARTCHAR 305D
ENCODING 12381
SWIDTH 520 0
DWIDTH 12 0
BBX 12 12 0 -2
BITMAP
0000
0600
1a00
0400
0f80
7200
0400
0800
0800
0700
0000
0000
ENDCHAR
STARTCHAR 305E
ENCODING 12382
SWIDTH 520 0
DWIDTH 12 0
BBX 12 12 0 -2
BITMAP
0000
1e40
04a0
0840
1380
3c00
0800
0800
0700
0000
0000
0000
ENDCHAR
STARTCHAR 305F
ENCODING 12383
SWIDTH 520 0
DWIDTH 12 0
BBX 12 12 0 -2
BITMAP
0000
0800
0800
3d00
1080
1100
2800
2800
4780
0000
0000
0000
ENDCHAR
STARTCHAR 3060
ENCODING 12384
SWIDTH 520 0
DWIDTH 12 0
BBX 12 12 0 -2
BITMAP
0080
0940
0880
3d00
1080
1100
2800
2800
0780
0000
0000
0000
ENDCHAR
STARTCHAR 3061
ENCODING 12385
SWIDTH 520 0
DWIDTH 12 0
BBX 12 12 0 -2
BITMAP
0000
0800
0e00
3800
0b00
0c80
1080
0080
0100
0600
0000
0000
ENDCHAR
STARTCHAR 3062
ENCODING 12386
SWIDTH 520 0
DWIDTH 12 0
BBX 12 12 0 -2
BITMAP
0000
0880
0940
3c80
1000
1e00
3100
0100
0200
0c00
0000
0000
ENDCHAR
STARTCHAR 3063
ENCODING 12387
SWIDTH 520 0
DWIDTH 12 0
BBX 12 12 0 -2
BITMAP
0000
0000
0000
0f00
3080
0080
0100
0e00
0000
0000
0000
0000
ENDCHAR
STARTCHAR 3064
ENCODING 12388
SWIDTH 520 0
DWIDTH 12 0
BBX 12 12 0 -2
BITMAP
0000
0000
0700
1880
6080
0080
0100
0e00
0000
0000
0000
0000
ENDCHAR
STARTCHAR 3065
ENCODING 12389
SWIDTH 520 0
DWIDTH 12 0
BBX 12 12 0 -2
BITMAP
0080
0140
0080
0f00
7080
0080
0080
0300
0c00
0000
0000
0000
ENDCHAR
STARTCHAR 3066
ENCODING 12390
SWIDTH 520 0
DWIDTH 12 0
BBX 12 12 0 -2
BITMAP
0000
0000
0780
3a00
0400
0800
0800
0400
0380
0000
0000
0000
ENDCHAR
STARTCHAR 3067
ENCODING 12391
SWIDTH 520 0
DWIDTH 12 0
BBX 12 12 0 -2
BITMAP
0000
0000
0380
7c00
0540
0800
0800
0800
0700
0000
0000
0000
ENDCHAR
STARTCHAR 3068
ENCODING 12392
SWIDTH 520 0
DWIDTH 12 0
BBX 12 12 0 -2
BITMAP
0000
0800
0800
0800
0f00
1000
2000
2000
1f80
0000
0000
0000
ENDCHAR
STARTCHAR 3069
ENCODING 12393
SWIDTH 520 0
DWIDTH 12 0
BBX 12 12 0 -2
BITMAP
0100
0a80
0900
0800
0f00
1000
2000
2000
1f00
0000
0000
0000
ENDCHAR
STARTCHAR 306A
ENCODING 12394
SWIDTH 520 0
DWIDTH 12 0
BBX 12 12 0 -2
BITMAP
0000
0800
0d00
3080
1300
2200
0200
0f00
1280
0c00
0000
0000
ENDCHAR
STARTCHAR 306B
ENCODING 12395
SWIDTH 520 0
DWIDTH 12 0
BBX 12 12 0 -2
BITMAP
0000
2600
2100
2200
2000
2800
2800
1780
0000
0000
0000
0000
ENDCHAR
STARTCHAR 306C
ENCODING 12396
SWIDTH 520 0
DWIDTH 12 0
BBX 12 12 0 -2
BITMAP
0000
0800
2f00
3880
2880
2b80
5480
7740
0000
0000
0000
0000
ENDCHAR
STARTCHAR 306D
ENCODING 12397
SWIDTH 520 0
DWIDTH 12 0
BBX 12 12 0 -2
BITMAP
0000
1000
1300
3c80
1080
1380
3480
1740
1000
0000
0000
0000
ENDCHAR
STARTCHAR 306E
ENCODING 12398
SWIDTH 520 0
DWIDTH 12 0
BBX 12 12 0 -2
BITMAP
0000
0e00
1100
2480
2480
2880
3080
0100
0600
0000
0000
0000
ENDCHAR
STARTCHAR 306F
ENCODING 12399
SWIDTH 520 0
DWIDTH 12 0
BBX 12 12 0 -2
BITMAP
0000
1100
1100
2780
2100
2100
3700
2980
0600
0000
0000
0000
ENDCHAR
STARTCHAR 3070
ENCODING 12400
SWIDTH 520 0
DWIDTH 12 0
BBX 12 12 0 -2
BITMAP
0080
0540
2280
2f00
4200
4200
5e00
2b00
2c80
0000
0000
0000
ENDCHAR
STARTCHAR 3071
ENCODING 12401
SWIDTH 520 0
DWIDTH 12 0
BBX 12 12 0 -2
BITMAP
00c0
02c0
2200
2f80
4200
4200
5600
2b00
2e80
0000
0000
0000
ENDCHAR
STARTCHAR 3072
ENCODING 12402
SWIDTH 520 0
DWIDTH 12 0
BBX 12 12 0 -2
BITMAP
0000
0000
3900
1100
2180
2200
2200
2400
1800
0000
0000
0000
ENDCHAR
STARTCHAR 3073
ENCODING 12403
SWIDTH 520 0
DWIDTH 12 0
BBX 12 12 0 -2
BITMAP
0000
0140
7a80
1300
2280
4200
4200
4400
3800
0000
0000
0000
ENDCHAR
STARTCHAR 3074
ENCODING 12404
SWIDTH 520 0
DWIDTH 12 0
BBX 12 12 0 -2
BITMAP
0000
00c0
32c0
1300
2280
2200
2200
2400
1800
0000
0000
0000
ENDCHAR
STARTCHAR 3075
ENCODING 12405
SWIDTH 520 0
DWIDTH 12 0
BBX 12 12 0 -2
BITMAP
0000
0c00
0400
0800
0800
0700
1a80
e280
1c00
0000
0000
0000
ENDCHAR
STARTCHAR 3076
ENCODING 12406
SWIDTH 520 0
DWIDTH 12 0
BBX 12 12 0 -2
BITMAP
0080
0940
0480
0800
0800
0f00
1280
6380
0c00
0000
0000
0000
ENDCHAR
STARTCHAR 3077
ENCODING 12407
SWIDTH 520 0
DWIDTH 12 0
BBX 12 12 0 -2
BITMAP
0000
0980
0580
0800
0800
0f80
1240
6280
0c00
0000
0000
0000
ENDCHAR
STARTCHAR 3078
ENCODING 12408
SWIDTH 520 0
DWIDTH 12 0
BBX 12 12 0 -2
BITMAP
0000
0000
0000
0c00
1300
60c0
0000
0000
0000
0000
0000
0000
ENDCHAR
STARTCHAR 3079
ENCODING 12409
SWIDTH 520 0
DWIDTH 12 0
BBX 12 12 0 -2
BITMAP
0000
0000
0280
0d40
1200
6100
00c0
0000
0000
0000
0000
0000
ENDCHAR
STARTCHAR 307A
ENCODING 12410
SWIDTH 520 0
DWIDTH 12 0
BBX 12 12 0 -2
BITMAP
0000
0300
0300
0000
1800
2600
c1c0
0000
0000
0000
0000
0000
ENDCHAR
STARTCHAR 307B
ENCODING 12411
SWIDTH 520 0
DWIDTH 12 0
BBX 12 12 0 -2
BITMAP
0000
2300
2600
2380
4e00
4200
5600
2b80
2e00
0000
0000
0000
ENDCHAR
STARTCHAR 307C
ENCODING 12412
SWIDTH 520 0
DWIDTH 12 0
BBX 12 12 0 -2
BITMAP
0000
2340
2e20
4380
4e00
4200
5600
6b00
2e80
0000
0000
0000
ENDCHAR
STARTCHAR 307D
ENCODING 12413
SWIDTH 520 0
DWIDTH 12 0
BBX 12 12 0 -2
BITMAP
0000
2360
2e60
4300
4e00
4200
5600
2b00
2c00
0000
0000
0000
ENDCHAR
STARTCHAR 307E
ENCODING 12414
SWIDTH 520 0
DWIDTH 12 0
BBX 12 12 0 -2
BITMAP
0000
0400
0700
1c00
0700
1c00
0400
1e00
2500
1800
0000
0000
ENDCHAR
STARTCHAR 307F
ENCODING 12415
SWIDTH 520 0
DWIDTH 12 0
BBX 12 12 0 -2
BITMAP
0000
1c00
0400
0500
1f00
2980
5240
6400
0800
0000
0000
0000
ENDCHAR
STARTCHAR 3080
ENCODING 12416
SWIDTH 520 0
DWIDTH 12 0
BBX 12 12 0 -2
BITMAP
0000
1000
3800
1180
3280
5200
7200
2100
1f00
0000
0000
0000
ENDCHAR
STARTCHAR 3081
ENCODING 12417
SWIDTH 520 0
DWIDTH 12 0
BBX 12 12 0 -2
BITMAP
0000
0400
1400
1f00
3480
4880
4c80
3100
0200
0000
0000
0000
ENDCHAR
STARTCHAR 3082
ENCODING 12418
SWIDTH 520 0
DWIDTH 12 0
BBX 12 12 0 -2
BITMAP
0000
0400
1400
0c00
1800
2800
1d00
0900
0900
0600
0000
0000
ENDCHAR
STARTCHAR 3083
ENCODING 12419
SWIDTH 520 0
DWIDTH 12 0
BBX 12 12 0 -2
BITMAP
0000
0400
1f00
1480
3880
0b00
0400
0400
0000
0000
0000
0000
ENDCHAR
STARTCHAR 3084
ENCODING 12420
SWIDTH 520 0
DWIDTH 12 0
BBX 12 12 0 -2
BITMAP
0000
1c00
1300
1c80
7080
0b00
0400
0400
0400
0000
0000
0000
ENDCHAR
STARTCHAR 3085
ENCODING 12421
SWIDTH 520 0
DWIDTH 12 0
BBX 12 12 0 -2
BITMAP
0000
0400
2b00
2e80
3a80
2a80
2700
0400
0800
0000
0000
0000
ENDCHAR
STARTCHAR 3086
ENCODING 12422
SWIDTH 520 0
DWIDTH 12 0
BBX 12 12 0 -2
BITMAP
0000
4600
4b00
4e80
5a80
5a80
6c80
2700
0800
1000
0000
0000
ENDCHAR
STARTCHAR 3087
ENCODING 12423
SWIDTH 520 0
DWIDTH 12 0
BBX 12 12 0 -2
BITMAP
0000
0400
0400
0700
0400
1c00
2600
1d00
0000
0000
0000
0000
ENDCHAR
STARTCHAR 3088
ENCODING 12424
SWIDTH 520 0
DWIDTH 12 0
BBX 12 12 0 -2
BITMAP
0000
0400
0400
0700
0400
0400
1c00
2600
3900
0000
0000
0000
ENDCHAR
STARTCHAR 3089
ENCODING 12425
SWIDTH 520 0
DWIDTH 12 0
BBX 12 12 0 -2
BITMAP
0000
1800
0c00
1000
1000
1700
1880
0080
0100
0600
0000
0000
ENDCHAR
STARTCHAR 308A
ENCODING 12426
SWIDTH 520 0
DWIDTH 12 0
BBX 12 12 0 -2
BITMAP
0000
1000
1600
1900
1100
1100
0200
0200
0400
0800
0000
0000
ENDCHAR
STARTCHAR 308B
ENCODING 12427
SWIDTH 520 0
DWIDTH 12 0
BBX 12 12 0 -2
BITMAP
0000
1e00
0200
0400
0f00
1080
2c80
1300
0e00
0000
0000
0000
ENDCHAR
STARTCHAR 308C
ENCODING 12428
SWIDTH 520 0
DWIDTH 12 0
BBX 12 12 0 -2
BITMAP
0000
0800
0b00
3d00
0900
1900
2900
29c0
0800
0000
0000
0000
ENDCHAR
STARTCHAR 308D
ENCODING 12429
SWIDTH 520 0
DWIDTH 12 0
BBX 12 12 0 -2
BITMAP
0000
1e00
0200
0400
0f00
3080
0080
0100
0e00
0000
0000
0000
ENDCHAR
STARTCHAR 308E
ENCODING 12430
SWIDTH 520 0
DWIDTH 12 0
BBX 12 12 0 -2
BITMAP
0000
0800
0c00
3b00
0c80
1880
2880
0900
0000
0000
0000
0000
ENDCHAR
STARTCHAR 308F
ENCODING 12431
SWIDTH 520 0
DWIDTH 12 0
BBX 12 12 0 -2
BITMAP
0000
0800
0800
3b80
0c40
1840
2840
2880
1b00
0000
0000
0000
ENDCHAR
STARTCHAR 3090
ENCODING 12432
SWIDTH 520 0
DWIDTH 12 0
BBX 12 12 0 -2
BITMAP
0000
0c00
3400
0700
1880
2a80
3580
3700
0000
0000
0000
0000
ENDCHAR
STARTCHAR 3091
ENCODING 12433
SWIDTH 520 0
DWIDTH 12 0
BBX 12 12 0 -2
BITMAP
0000
1e00
0400
0f00
1900
0e00
1100
2a80
4480
0000
0000
0000
ENDCHAR
STARTCHAR 3092
ENCODING 12434
SWIDTH 520 0
DWIDTH 12 0
BBX 12 12 0 -2
BITMAP
0000
0400
1e00
0880
1d00
2600
0c00
1400
1300
0c00
0000
0000
ENDCHAR
STARTCHAR 3093
ENCODING 12435
SWIDTH 520 0
DWIDTH 12 0
BBX 12 12 0 -2
BITMAP
0000
0800
0800
1000
1c00
2400
2480
4500
4600
0000
0000
0000
ENDCHAR
STARTCHAR 30A1
ENCODING 12449
SWIDTH 520 0
DWIDTH 12 0
BBX 12 12 0 -2
BITMAP
0000
0000
0000
1f00
0100
0600
0800
1000
0000
0000
0000
0000
ENDCHAR
STARTCHAR 30A2
ENCODING 12450
SWIDTH 520 0
DWIDTH 12 0
BBX 12 12 0 -2
BITMAP
0000
0780
3900
0600
0400
0400
0800
1000
0000
0000
0000
0000
ENDCHAR
STARTCHAR 30A3
ENCODING 12451
SWIDTH 520 0
DWIDTH 12 0
BBX 12 12 0 -2
BITMAP
0000
0200
0400
0c00
1400
0400
0400
0400
0000
0000
0000
0000
ENDCHAR
STARTCHAR 30A4
ENCODING 12452
SWIDTH 520 0
DWIDTH 12 0
BBX 12 12 0 -2
BITMAP
0000
0200
0200
0400
0c00
3400
0400
0400
0400
0000
0000
0000
ENDCHAR
STARTCHAR 30A5
ENCODING 12453
SWIDTH 520 0
DWIDTH 12 0
BBX 12 12 0 -2
BITMAP
0000
0400
1f00
1100
1100
0200
0400
0000
0000
0000
0000
0000
ENDCHAR
STARTCHAR 30A6
ENCODING 12454
SWIDTH 520 0
DWIDTH 12 0
BBX 12 12 0 -2
BITMAP
0000
0400
0400
1f00
1100
1100
0200
0400
0800
0000
0000
0000
ENDCHAR
STARTCHAR 30A7
ENCODING 12455
SWIDTH 520 0
DWIDTH 12 0
BBX 12 12 0 -2
BITMAP
0000
0300
1c00
0400
0780
3800
0000
0000
0000
0000
0000
0000
ENDCHAR
STARTCHAR 30A8
ENCODING 12456
SWIDTH 520 0
DWIDTH 12 0
BBX 12 12 0 -2
BITMAP
0000
0000
1f00
0400
0400
3fc0
0000
0000
0000
0000
0000
0000
ENDCHAR
STARTCHAR 30A9
ENCODING 12457
SWIDTH 520 0
DWIDTH 12 0
BBX 12 12 0 -2
BITMAP
0000
0200
0200
3f80
0600
0a00
3200
0600
0000
0000
0000
0000
ENDCHAR
STARTCHAR 30AA
ENCODING 12458
SWIDTH 520 0
DWIDTH 12 0
BBX 12 12 0 -2
BITMAP
0000
0200
0200
3f80
0600
0a00
1200
2600
0200
0000
0000
0000
ENDCHAR
STARTCHAR 30AB
ENCODING 12459
SWIDTH 520 0
DWIDTH 12 0
BBX 12 12 0 -2
BITMAP
0000
0400
0400
1f00
0500
0900
1100
2600
0000
0000
0000
0000
ENDCHAR
STARTCHAR 30AC
ENCODING 12460
SWIDTH 520 0
DWIDTH 12 0
BBX 12 12 0 -2
BITMAP
0080
0140
0480
0700
3d00
0900
0900
1200
2600
0000
0000
0000
ENDCHAR
STARTCHAR 30AD
ENCODING 12461
SWIDTH 520 0
DWIDTH 12 0
BBX 12 12 0 -2
BITMAP
0000
0800
0b00
3c00
0780
3c00
0200
0200
0200
0000
0000
0000
ENDCHAR
STARTCHAR 30AE
ENCODING 12462
SWIDTH 520 0
DWIDTH 12 0
BBX 12 12 0 -2
BITMAP
0880
0940
0e80
1c00
0700
3c00
0400
0200
0200
0000
0000
0000
ENDCHAR
STARTCHAR 30AF
ENCODING 12463
SWIDTH 520 0
DWIDTH 12 0
BBX 12 12 0 -2
BITMAP
0000
0800
0f00
1100
2200
0200
0400
0800
1000
0000
0000
0000
ENDCHAR
STARTCHAR 30B0
ENCODING 12464
SWIDTH 520 0
DWIDTH 12 0
BBX 12 12 0 -2
BITMAP
0080
0940
0e80
1200
2200
0400
0800
1000
2000
0000
0000
0000
ENDCHAR
STARTCHAR 30B1
ENCODING 12465
SWIDTH 520 0
DWIDTH 12 0
BBX 12 12 0 -2
BITMAP
0000
0800
0980
1e00
2200
0200
0400
0800
3000
0000
0000
0000
ENDCHAR
STARTCHAR 30B2
ENCODING 12466
SWIDTH 520 0
DWIDTH 12 0
BBX 12 12 0 -2
BITMAP
0080
1140
1780
1a00
2200
0400
0400
0800
1000
0000
0000
0000
ENDCHAR
STARTCHAR 30B3
ENCODING 12467
SWIDTH 520 0
DWIDTH 12 0
BBX 12 12 0 -2
BITMAP
0000
0000
0700
1900
0100
0100
0700
3800
0000
0000
0000
0000
ENDCHAR
STARTCHAR 30B4
ENCODING 12468
SWIDTH 520 0
DWIDTH 12 0
BBX 12 12 0 -2
BITMAP
0040
00a0
0340
1d00
0100
0100
0700
1800
0000
0000
0000
0000
ENDCHAR
STARTCHAR 30B5
ENCODING 12469
SWIDTH 520 0
DWIDTH 12 0
BBX 12 12 0 -2
BITMAP
0000
1200
1200
13c0
7e00
1200
1200
0200
0400
0000
0000
0000
ENDCHAR
STARTCHAR 30B6
ENCODING 12470
SWIDTH 520 0
DWIDTH 12 0
BBX 12 12 0 -2
BITMAP
0080
1340
1280
13c0
7e00
1200
1200
0200
0400
0000
0000
0000
ENDCHAR
STARTCHAR 30B7
ENCODING 12471
SWIDTH 520 0
DWIDTH 12 0
BBX 12 12 0 -2
BITMAP
0000
0800
2440
1080
0100
0200
1400
0800
0000
0000
0000
0000
ENDCHAR
STARTCHAR 30B8
ENCODING 12472
SWIDTH 520 0
DWIDTH 12 0
BBX 12 12 0 -2
BITMAP
0000
0080
1900
0400
3080
0900
0200
1400
0800
0000
0000
0000
ENDCHAR
STARTCHAR 30B9
ENCODING 12473
SWIDTH 520 0
DWIDTH 12 0
BBX 12 12 0 -2
BITMAP
0000
0700
1900
0200
0200
0500
0880
3000
0000
0000
0000
0000
ENDCHAR
STARTCHAR 30BA
ENCODING 12474
SWIDTH 520 0
DWIDTH 12 0
BBX 12 12 0 -2
BITMAP
0080
0140
0680
3a00
0200
0400
0a00
1100
2000
0000
0000
0000
ENDCHAR
STARTCHAR 30BB
ENCODING 12475
SWIDTH 520 0
DWIDTH 12 0
BBX 12 12 0 -2
BITMAP
0000
0800
0b80
0c80
3900
0800
0800
0780
0000
0000
0000
0000
ENDCHAR
STARTCHAR 30BC
ENCODING 12476
SWIDTH 520 0
DWIDTH 12 0
BBX 12 12 0 -2
BITMAP
0000
0040
08a0
0b40
0d00
3a00
0800
0800
0780
0000
0000
0000
ENDCHAR
STARTCHAR 30BD
ENCODING 12477
SWIDTH 520 0
DWIDTH 12 0
BBX 12 12 0 -2
BITMAP
0000
1080
0880
0900
0200
0400
0800
3000
0000
0000
0000
0000
ENDCHAR
STARTCHAR 30BE
ENCODING 12478
SWIDTH 520 0
DWIDTH 12 0
BBX 12 12 0 -2
BITMAP
0040
00a0
2140
1100
0200
0200
0400
0800
3000
0000
0000
0000
ENDCHAR
STARTCHAR 30BF
ENCODING 12479
SWIDTH 520 0
DWIDTH 12 0
BBX 12 12 0 -2
BITMAP
0000
0400
0700
0900
1100
2a00
0400
0800
3000
0000
0000
0000
ENDCHAR
STARTCHAR 30C0
ENCODING 12480
SWIDTH 520 0
DWIDTH 12 0
BBX 12 12 0 -2
BITMAP
0000
0440
07a0
0940
1100
2a00
0400
0800
3000
0000
0000
0000
ENDCHAR
STARTCHAR 30C1
ENCODING 12481
SWIDTH 520 0
DWIDTH 12 0
BBX 12 12 0 -2
BITMAP
0000
0300
1c00
07c0
3c00
0400
0400
0800
1000
0000
0000
0000
ENDCHAR
STARTCHAR 30C2
ENCODING 12482
SWIDTH 520 0
DWIDTH 12 0
BBX 12 12 0 -2
BITMAP
0040
06a0
1c40
0780
3c00
0400
0800
1000
2000
0000
0000
0000
ENDCHAR
STARTCHAR 30C3
ENCODING 12483
SWIDTH 520 0
DWIDTH 12 0
BBX 12 12 0 -2
BITMAP
0000
2900
1500
0200
0400
0800
1000
0000
0000
0000
0000
0000
ENDCHAR
STARTCHAR 30C4
ENCODING 12484
SWIDTH 520 0
DWIDTH 12 0
BBX 12 12 0 -2
BITMAP
0800
2480
1080
0100
0200
0400
1800
0000
0000
0000
0000
0000
ENDCHAR
STARTCHAR 30C5
ENCODING 12485
SWIDTH 520 0
DWIDTH 12 0
BBX 12 12 0 -2
BITMAP
0040
00a0
2940
1500
0200
0200
0400
0800
1000
0000
0000
0000
ENDCHAR
STARTCHAR 30C6
ENCODING 12486
SWIDTH 520 0
DWIDTH 12 0
BBX 12 12 0 -2
BITMAP
0000
0380
1c00
03c0
3c00
0400
0400
0800
3000
0000
0000
0000
ENDCHAR
STARTCHAR 30C7
ENCODING 12487
SWIDTH 520 0
DWIDTH 12 0
BBX 12 12 0 -2
BITMAP
0040
07a0
1840
0380
3c00
0400
0400
0800
3000
0000
0000
0000
ENDCHAR
STARTCHAR 30C8
ENCODING 12488
SWIDTH 520 0
DWIDTH 12 0
BBX 12 12 0 -2
BITMAP
0000
0800
0800
0c00
0a00
0900
0800
0800
0800
0000
0000
0000
ENDCHAR
STARTCHAR 30C9
ENCODING 12489
SWIDTH 520 0
DWIDTH 12 0
BBX 12 12 0 -2
BITMAP
0000
0a80
0940
0800
0e00
0900
0800
0800
0800
0000
0000
0000
ENDCHAR
STARTCHAR 30CA
ENCODING 12490
SWIDTH 520 0
DWIDTH 12 0
BBX 12 12 0 -2
BITMAP
0000
0400
0400
3f80
0400
0400
0400
0800
1000
2000
0000
0000
ENDCHAR
STARTCHAR 30CB
ENCODING 12491
SWIDTH 520 0
DWIDTH 12 0
BBX 12 12 0 -2
BITMAP
0000
0700
3800
0000
0380
7c00
0000
0000
0000
0000
0000
0000
ENDCHAR
STARTCHAR 30CC
ENCODING 12492
SWIDTH 520 0
DWIDTH 12 0
BBX 12 12 0 -2
BITMAP
0000
0300
1d00
0100
1a00
0600
0900
3000
0000
0000
0000
0000
ENDCHAR
STARTCHAR 30CD
ENCODING 12493
SWIDTH 520 0
DWIDTH 12 0
BBX 12 12 0 -2
BITMAP
0400
0200
0600
1a00
0400
0f00
1480
2400
0400
0400
0000
0000
ENDCHAR
STARTCHAR 30CE
ENCODING 12494
SWIDTH 520 0
DWIDTH 12 0
BBX 12 12 0 -2
BITMAP
0000
0200
0200
0200
0400
0400
0800
3000
0000
0000
0000
0000
ENDCHAR
STARTCHAR 30CF
ENCODING 12495
SWIDTH 520 0
DWIDTH 12 0
BBX 12 12 0 -2
BITMAP
0000
0000
1200
1100
1080
2080
4000
0000
0000
0000
0000
0000
ENDCHAR
STARTCHAR 30D0
ENCODING 12496
SWIDTH 520 0
DWIDTH 12 0
BBX 12 12 0 -2
BITMAP
0000
0140
12a0
1100
1100
2080
2080
4000
0000
0000
0000
0000
ENDCHAR
STARTCHAR 30D1
ENCODING 12497
SWIDTH 520 0
DWIDTH 12 0
BBX 12 12 0 -2
BITMAP
0000
00c0
0ac0
0900
1080
1080
2080
4000
0000
0000
0000
0000
ENDCHAR
STARTCHAR 30D2
ENCODING 12498
SWIDTH 520 0
DWIDTH 12 0
BBX 12 12 0 -2
BITMAP
0000
1000
1300
1c00
1000
1000
0f80
0000
0000
0000
0000
0000
ENDCHAR
STARTCHAR 30D3
ENCODING 12499
SWIDTH 520 0
DWIDTH 12 0
BBX 12 12 0 -2
BITMAP
0000
1140
10a0
1300
1c00
1000
1000
0f00
0000
0000
0000
0000
ENDCHAR
STARTCHAR 30D4
ENCODING 12500
SWIDTH 520 0
DWIDTH 12 0
BBX 12 12 0 -2
BITMAP
00c0
10c0
1000
1300
1c00
1000
1000
0f00
0000
0000
0000
0000
ENDCHAR
STARTCHAR 30D5
ENCODING 12501
SWIDTH 520 0
DWIDTH 12 0
BBX 12 12 0 -2
BITMAP
0000
0700
3900
0100
0200
0400
0800
3000
0000
0000
0000
0000
ENDCHAR
STARTCHAR 30D6
ENCODING 12502
SWIDTH 520 0
DWIDTH 12 0
BBX 12 12 0 -2
BITMAP
0140
00a0
0700
3900
0100
0200
0400
0800
1000
0000
0000
0000
ENDCHAR
STARTCHAR 30D7
ENCODING 12503
SWIDTH 520 0
DWIDTH 12 0
BBX 12 12 0 -2
BITMAP
00c0
00c0
0700
3900
0100
0200
0400
1800
0000
0000
0000
0000
ENDCHAR
STARTCHAR 30D8
ENCODING 12504
SWIDTH 520 0
DWIDTH 12 0
BBX 12 12 0 -2
BITMAP
0000
1800
6400
0300
00c0
0000
0000
0000
0000
0000
0000
0000
ENDCHAR
STARTCHAR 30D9
ENCODING 12505
SWIDTH 520 0
DWIDTH 12 0
BBX 12 12 0 -2
BITMAP
0000
0080
1940
6480
0200
0180
0000
0000
0000
0000
0000
0000
ENDCHAR
STARTCHAR 30DA
ENCODING 12506
SWIDTH 520 0
DWIDTH 12 0
BBX 12 12 0 -2
BITMAP
0000
0180
1980
2400
4200
0180
0000
0000
0000
0000
0000
0000
ENDCHAR
STARTCHAR 30DB
ENCODING 12507
SWIDTH 520 0
DWIDTH 12 0
BBX 12 12 0 -2
BITMAP
0000
0400
0400
3f80
0500
1480
2480
0c00
0000
0000
0000
0000
ENDCHAR
STARTCHAR 30DC
ENCODING 12508
SWIDTH 520 0
DWIDTH 12 0
BBX 12 12 0 -2
BITMAP
0000
0540
0400
3f80
0400
1500
2480
0c00
0000
0000
0000
0000
ENDCHAR
STARTCHAR 30DD
ENCODING 12509
SWIDTH 520 0
DWIDTH 12 0
BBX 12 12 0 -2
BITMAP
00c0
04c0
0400
3f00
0400
1500
2480
0c00
0000
0000
0000
0000
ENDCHAR
STARTCHAR 30DE
ENCODING 12510
SWIDTH 520 0
DWIDTH 12 0
BBX 12 12 0 -2
BITMAP
0000
0000
0780
3900
0a00
0400
0200
0200
0000
0000
0000
0000
ENDCHAR
STARTCHAR 30DF
ENCODING 12511
SWIDTH 520 0
DWIDTH 12 0
BBX 12 12 0 -2
BITMAP
0c00
0200
0100
0c00
0200
1900
0400
0200
0000
0000
0000
0000
ENDCHAR
STARTCHAR 30E0
ENCODING 12512
SWIDTH 520 0
DWIDTH 12 0
BBX 12 12 0 -2
BITMAP
0000
0400
0400
0800
0900
1180
3e80
0000
0000
0000
0000
0000
ENDCHAR
STARTCHAR 30E1
ENCODING 12513
SWIDTH 520 0
DWIDTH 12 0
BBX 12 12 0 -2
BITMAP
0000
0100
0100
0a00
0600
0500
0900
1000
6000
0000
0000
0000
ENDCHAR
STARTCHAR 30E2
ENCODING 12514
SWIDTH 520 0
DWIDTH 12 0
BBX 12 12 0 -2
BITMAP
0300
1c00
0400
0780
3c00
0400
0400
0380
0000
0000
0000
0000
ENDCHAR
STARTCHAR 30E3
ENCODING 12515
SWIDTH 520 0
DWIDTH 12 0
BBX 12 12 0 -2
BITMAP
0000
1000
0b00
0d00
3400
0200
0200
0100
0000
0000
0000
0000
ENDCHAR
STARTCHAR 30E4
ENCODING 12516
SWIDTH 520 0
DWIDTH 12 0
BBX 12 12 0 -2
BITMAP
0000
1000
0b80
0d00
3400
0200
0200
0100
0100
0000
0000
0000
ENDCHAR
STARTCHAR 30E5
ENCODING 12517
SWIDTH 520 0
DWIDTH 12 0
BBX 12 12 0 -2
BITMAP
0000
0700
1900
0200
0380
3e00
0000
0000
0000
0000
0000
0000
ENDCHAR
STARTCHAR 30E6
ENCODING 12518
SWIDTH 520 0
DWIDTH 12 0
BBX 12 12 0 -2
BITMAP
0000
0300
1d00
0100
0200
03c0
3c00
0000
0000
0000
0000
0000
ENDCHAR
STARTCHAR 30E7
ENCODING 12519
SWIDTH 520 0
DWIDTH 12 0
BBX 12 12 0 -2
BITMAP
0000
0700
1900
0200
1e00
0200
1e00
0000
0000
0000
0000
0000
ENDCHAR
STARTCHAR 30E8
ENCODING 12520
SWIDTH 520 0
DWIDTH 12 0
BBX 12 12 0 -2
BITMAP
0000
0700
3900
0300
1d00
0100
0700
3800
0000
0000
0000
0000
ENDCHAR
STARTCHAR 30E9
ENCODING 12521
SWIDTH 520 0
DWIDTH 12 0
BBX 12 12 0 -2
BITMAP
0000
0700
1800
0700
3900
0100
0200
0400
1800
0000
0000
0000
ENDCHAR
STARTCHAR 30EA
ENCODING 12522
SWIDTH 520 0
DWIDTH 12 0
BBX 12 12 0 -2
BITMAP
0000
0200
1200
1200
1200
1200
0200
0200
0400
0800
0000
0000
ENDCHAR
STARTCHAR 30EB
ENCODING 12523
SWIDTH 520 0
DWIDTH 12 0
BBX 12 12 0 -2
BITMAP
0000
0400
1400
1400
1480
1500
2600
4000
0000
0000
0000
0000
ENDCHAR
STARTCHAR 30EC
ENCODING 12524
SWIDTH 520 0
DWIDTH 12 0
BBX 12 12 0 -2
BITMAP
0000
1000
1000
1000
1080
1100
1600
1800
0000
0000
0000
0000
ENDCHAR
STARTCHAR 30ED
ENCODING 12525
SWIDTH 520 0
DWIDTH 12 0
BBX 12 12 0 -2
BITMAP
0000
0380
1c80
1080
1080
1080
1f80
0000
0000
0000
0000
0000
ENDCHAR
STARTCHAR 30EE
ENCODING 12526
SWIDTH 520 0
DWIDTH 12 0
BBX 12 12 0 -2
BITMAP
0000
0300
1d00
1100
1100
0200
0400
1800
0000
0000
0000
0000
ENDCHAR
STARTCHAR 30EF
ENCODING 12527
SWIDTH 520 0
DWIDTH 12 0
BBX 12 12 0 -2
BITMAP
0000
3f00
2100
2100
2100
0200
0400
1800
0000
0000
0000
0000
ENDCHAR
STARTCHAR 30F0
ENCODING 12528
SWIDTH 520 0
DWIDTH 12 0
BBX 12 12 0 -2
BITMAP
0200
0200
1f80
0a00
0a00
3f80
0200
0200
0200
0000
0000
0000
ENDCHAR
STARTCHAR 30F1
ENCODING 12529
SWIDTH 520 0
DWIDTH 12 0
BBX 12 12 0 -2
BITMAP
0000
0700
3900
0600
0400
07c0
7c00
0000
0000
0000
0000
0000
ENDCHAR
STARTCHAR 30F2
ENCODING 12530
SWIDTH 520 0
DWIDTH 12 0
BBX 12 12 0 -2
BITMAP
0000
3f00
0100
1f00
0100
0200
0200
0400
1800
0000
0000
0000
ENDCHAR
STARTCHAR 30F3
ENCODING 12531
SWIDTH 520 0
DWIDTH 12 0
BBX 12 12 0 -2
BITMAP
1000
0800
0840
0080
0100
2600
1800
0000
0000
0000
0000
0000
ENDCHAR
STARTCHAR 30F4
ENCODING 12532
SWIDTH 520 0
DWIDTH 12 0
BBX 12 12 0 -2
BITMAP
0400
04a0
2740
3900
2100
2200
0200
0400
1800
0000
0000
0000
ENDCHAR
STARTCHAR 30F5
ENCODING 12533
SWIDTH 520 0
DWIDTH 12 0
BBX 12 12 0 -2
BITMAP
0000
0400
0400
1f00
0500
0900
1600
0000
0000
0000
0000
0000
ENDCHAR
STARTCHAR 30F6
ENCODING 12534
SWIDTH 520 0
DWIDTH 12 0
BBX 12 12 0 -2
BITMAP
0000
0800
0f80
1200
2200
0400
0800
1000
0000
0000
0000
0000
ENDCHAR
STARTCHAR 3105
ENCODING 12549
SWIDTH 520 0
DWIDTH 12 0
BBX 12 12 0 -2
BITMAP
0000
1000
1000
2780
7880
0080
0080
0100
0100
0600
0000
0000
ENDCHAR
STARTCHAR 3106
ENCODING 12550
SWIDTH 520 0
DWIDTH 12 0
BBX 12 12 0 -2
BITMAP
0800
0800
1380
3c80
0080
0900
0500
0200
0500
0800
3000
0000
ENDCHAR
STARTCHAR 3107
ENCODING 12551
SWIDTH 520 0
DWIDTH 12 0
BBX 12 12 0 -2
BITMAP
0000
0000
0380
3c80
2080
2080
2080
2080
2080
0000
0000
0000
ENDCHAR
STARTCHAR 3108
ENCODING 12552
SWIDTH 520 0
DWIDTH 12 0
BBX 12 12 0 -2
BITMAP
0000
0380
7c00
2000
2000
2000
2000
2000
2000
1fc0
0000
0000
ENDCHAR
STARTCHAR 3109
ENCODING 12553
SWIDTH 520 0
DWIDTH 12 0
BBX 12 12 0 -2
BITMAP
1000
1000
1000
23c0
3c40
0440
0880
1080
2080
4300
0000
0000
ENDCHAR
STARTCHAR 310A
ENCODING 12554
SWIDTH 520 0
DWIDTH 12 0
BBX 12 12 0 -2
BITMAP
0800
0400
0400
07e0
f800
0800
0800
1200
2700
3880
0000
0000
ENDCHAR
STARTCHAR 310B
ENCODING 12555
SWIDTH 520 0
DWIDTH 12 0
BBX 12 12 0 -2
BITMAP
0000
3f00
0200
0400
0f80
0080
0080
0080
0500
0200
0000
0000
ENDCHAR
STARTCHAR 310C
ENCODING 12556
SWIDTH 520 0
DWIDTH 12 0
BBX 12 12 0 -2
BITMAP
0200
1200
1200
2200
3fc0
0440
0840
0880
1080
6300
0000
0000
ENDCHAR
STARTCHAR 310D
ENCODING 12557
SWIDTH 520 0
DWIDTH 12 0
BBX 12 12 0 -2
BITMAP
0000
0900
0900
1200
1200
2400
1200
1200
0900
0900
0000
0000
ENDCHAR
STARTCHAR 310E
ENCODING 12558
SWIDTH 520 0
DWIDTH 12 0
BBX 12 12 0 -2
BITMAP
0000
03c0
7c00
0800
0b80
1c80
0080
0100
0100
0600
0000
0000
ENDCHAR
STARTCHAR 310F
ENCODING 12559
SWIDTH 520 0
DWIDTH 12 0
BBX 12 12 0 -2
BITMAP
0000
0fc0
7000
2000
2000
2000
2000
2000
2000
4000
8000
0000
ENDCHAR
STARTCHAR 3110
ENCODING 12560
SWIDTH 520 0
DWIDTH 12 0
BBX 12 12 0 -2
BITMAP
0000
0100
1100
1100
1100
1100
1700
1900
0100
0100
0000
0000
ENDCHAR
STARTCHAR 3111
ENCODING 12561
SWIDTH 520 0
DWIDTH 12 0
BBX 12 12 0 -2
BITMAP
0000
0400
0400
0800
0800
1000
0800
0400
0200
0200
0000
0000
ENDCHAR
STARTCHAR 3112
ENCODING 12562
SWIDTH 520 0
DWIDTH 12 0
BBX 12 12 0 -2
BITMAP
0000
03c0
7c00
0400
0400
0400
0400
0400
0400
0400
0000
0000
ENDCHAR
STARTCHAR 3113
ENCODING 12563
SWIDTH 520 0
DWIDTH 12 0
BBX 12 12 0 -2
BITMAP
0400
0400
2480
2480
2480
2480
3f80
0400
0400
7fc0
0000
0000
ENDCHAR
STARTCHAR 3114
ENCODING 12564
SWIDTH 520 0
DWIDTH 12 0
BBX 12 12 0 -2
BITMAP
0000
0200
0400
0900
3200
0400
0c00
3400
0400
0400
0400
0000
ENDCHAR
STARTCHAR 3115
ENCODING 12565
SWIDTH 520 0
DWIDTH 12 0
BBX 12 12 0 -2
BITMAP
0000
1f80
0080
0100
1e00
1000
1000
1000
2000
4000
8000
0000
ENDCHAR
STARTCHAR 3116
ENCODING 12566
SWIDTH 520 0
DWIDTH 12 0
BBX 12 12 0 -2
BITMAP
0000
0700
3900
2100
2900
2500
2500
2100
2700
3900
0000
0000
ENDCHAR
STARTCHAR 3117
ENCODING 12567
SWIDTH 520 0
DWIDTH 12 0
BBX 12 12 0 -2
BITMAP
0000
0780
3880
0880
0880
0c80
0b00
0800
0800
0800
0800
0000
ENDCHAR
STARTCHAR 3118
ENCODING 12568
SWIDTH 520 0
DWIDTH 12 0
BBX 12 12 0 -2
BITMAP
0000
0400
07c0
f800
0800
1f80
0080
0100
0100
0200
0400
0000
ENDCHAR
STARTCHAR 3119
ENCODING 12569
SWIDTH 520 0
DWIDTH 12 0
BBX 12 12 0 -2
BITMAP
0000
0400
0400
0400
0800
0800
1000
1100
2780
7840
0000
0000
ENDCHAR
STARTCHAR 311A
ENCODING 12570
SWIDTH 520 0
DWIDTH 12 0
BBX 12 12 0 -2
BITMAP
0080
2080
1100
0a00
0400
0400
0400
0400
0400
0400
0400
0000
ENDCHAR
STARTCHAR 311B
ENCODING 12571
SWIDTH 520 0
DWIDTH 12 0
BBX 12 12 0 -2
BITMAP
0000
03c0
7c00
0400
1c00
2000
2000
2000
2080
1f00
0000
0000
ENDCHAR
STARTCHAR 311C
ENCODING 12572
SWIDTH 520 0
DWIDTH 12 0
BBX 12 12 0 -2
BITMAP
0400
0400
07c0
7c00
0400
1c00
2000
2000
2000
10c0
0f00
0000
ENDCHAR
STARTCHAR 311D
ENCODING 12573
SWIDTH 520 0
DWIDTH 12 0
BBX 12 12 0 -2
BITMAP
0000
1100
1100
1100
1fc0
f200
1200
1200
1000
0fc0
0000
0000
ENDCHAR
STARTCHAR 311E
ENCODING 12574
SWIDTH 520 0
DWIDTH 12 0
BBX 12 12 0 -2
BITMAP
03c0
7c00
2400
2400
2780
7c40
0440
0840
1080
2100
4000
0000
ENDCHAR
STARTCHAR 311F
ENCODING 12575
SWIDTH 520 0
DWIDTH 12 0
BBX 12 12 0 -2
BITMAP
0000
1800
6800
0800
0800
0800
0400
0400
0200
0100
00c0
0000
ENDCHAR
STARTCHAR 3120
ENCODING 12576
SWIDTH 520 0
DWIDTH 12 0
BBX 12 12 0 -2
BITMAP
0400
0400
0800
1100
2100
3e00
0400
0900
1080
3fc0
0040
0000
ENDCHAR
STARTCHAR 3121
ENCODING 12577
SWIDTH 520 0
DWIDTH 12 0
BBX 12 12 0 -2
BITMAP
0000
0700
3880
0080
1100
0a00
0600
0500
0880
1000
6000
0000
ENDCHAR
STARTCHAR 3122
ENCODING 12578
SWIDTH 520 0
DWIDTH 12 0
BBX 12 12 0 -2
BITMAP
0000
7f00
1100
1100
2200
27c0
3840
0080
0080
0100
0100
0000
ENDCHAR
STARTCHAR 3123
ENCODING 12579
SWIDTH 520 0
DWIDTH 12 0
BBX 12 12 0 -2
BITMAP
4000
2000
2000
2000
2000
47c0
7840
0040
0080
0080
0080
0000
ENDCHAR
STARTCHAR 3124
ENCODING 12580
SWIDTH 520 0
DWIDTH 12 0
BBX 12 12 0 -2
BITMAP
0000
0400
0400
07c0
7a00
0a00
0a00
1200
2200
4200
81e0
0000
ENDCHAR
STARTCHAR 3125
ENCODING 12581
SWIDTH 520 0
DWIDTH 12 0
BBX 12 12 0 -2
BITMAP
0000
0400
0400
0800
0800
1000
1000
2000
4000
7fc0
0000
0000
ENDCHAR
STARTCHAR 3126
ENCODING 12582
SWIDTH 520 0
DWIDTH 12 0
BBX 12 12 0 -2
BITMAP
0000
1200
1200
1200
1200
1200
1200
1200
2220
4220
81c0
0000
ENDCHAR
STARTCHAR 3127
ENCODING 12583
SWIDTH 520 0
DWIDTH 12 0
BBX 12 12 0 -2
BITMAP
0000
0400
0400
0400
0400
0400
0400
0400
0400
0400
0000
0000
ENDCHAR
STARTCHAR 3128
ENCODING 12584
SWIDTH 520 0
DWIDTH 12 0
BBX 12 12 0 -2
BITMAP
0000
0080
2080
1100
0900
0600
0600
0900
1080
6000
0000
0000
ENDCHAR
STARTCHAR 3129
ENCODING 12585
SWIDTH 520 0
DWIDTH 12 0
BBX 12 12 0 -2
BITMAP
0000
0000
0080
4080
4080
4080
4080
4380
7c80
0000
0000
0000
ENDCHAR
STARTCHAR 3220
ENCODING 12832
SWIDTH 520 0
DWIDTH 12 0
BBX 12 12 0 -2
BITMAP
2080
4040
8020
8020
8020
bfa0
8020
8020
8020
4040
2080
0000
ENDCHAR
STARTCHAR 3221
ENCODING 12833
SWIDTH 520 0
DWIDTH 12 0
BBX 12 12 0 -2
BITMAP
2080
4040
8020
9f20
8020
8020
8020
8020
bfa0
4040
2080
0000
ENDCHAR
STARTCHAR 3222
ENCODING 12834
SWIDTH 520 0
DWIDTH 12 0
BBX 12 12 0 -2
BITMAP
2080
4040
bfa0
8020
8020
9f20
8020
8020
bfa0
4040
2080
0000
ENDCHAR
STARTCHAR 3223
ENCODING 12835
SWIDTH 520 0
DWIDTH 12 0
BBX 12 12 0 -2
BITMAP
2080
4040
bfa0
aaa0
aaa0
aaa0
b1a0
a0a0
bfa0
4040
2080
0000
ENDCHAR
STARTCHAR 3224
ENCODING 12836
SWIDTH 520 0
DWIDTH 12 0
BBX 12 12 0 -2
BITMAP
2080
4040
bfa0
8820
8820
9f20
8920
8920
bfa0
4040
2080
0000
ENDCHAR
STARTCHAR 3225
ENCODING 12837
SWIDTH 520 0
DWIDTH 12 0
BBX 12 12 0 -2
BITMAP
2080
4840
8420
bfa0
8020
8a20
8920
90a0
a0a0
4040
2080
0000
ENDCHAR
STARTCHAR 3226
ENCODING 12838
SWIDTH 520 0
DWIDTH 12 0
BBX 12 12 0 -2
BITMAP
2080
4840
8820
8820
8fa0
b820
8820
88a0
87a0
4040
2080
0000
ENDCHAR
STARTCHAR 3227
ENCODING 12839
SWIDTH 520 0
DWIDTH 12 0
BBX 12 12 0 -2
BITMAP
2080
4040
8620
8a20
8a20
8a20
9120
9120
a0a0
4040
2080
0000
ENDCHAR
STARTCHAR 3228
ENCODING 12840
SWIDTH 520 0
DWIDTH 12 0
BBX 12 12 0 -2
BITMAP
2080
4840
8820
be20
8a20
8a20
8a20
92a0
a3a0
4040
2080
0000
ENDCHAR
STARTCHAR 3229
ENCODING 12841
SWIDTH 520 0
DWIDTH 12 0
BBX 12 12 0 -2
BITMAP
2080
4440
8420
8420
bfa0
8420
8420
8420
8420
4440
2080
0000
ENDCHAR
STARTCHAR 4E00
ENCODING 19968
SWIDTH 520 0
DWIDTH 12 0
BBX 12 12 0 -2
BITMAP
0000
0000
0000
0000
0040
ffe0
0000
0000
0000
0000
0000
0000
ENDCHAR
STARTCHAR 4E01
ENCODING 19969
SWIDTH 520 0
DWIDTH 12 0
BBX 12 12 0 -2
BITMAP
0040
ffe0
0400
0400
0400
0400
0400
0400
0400
0400
1c00
0000
ENDCHAR
STARTCHAR 4E03
ENCODING 19971
SWIDTH 520 0
DWIDTH 12 0
BBX 12 12 0 -2
BITMAP
0800
0800
0800
08e0
0f00
f800
0800
0820
0820
0820
0fe0
0000
ENDCHAR
STARTCHAR 4E07
ENCODING 19975
SWIDTH 520 0
DWIDTH 12 0
BBX 12 12 0 -2
BITMAP
0040
ffe0
0800
0800
0f80
0880
1080
1080
2080
4480
8300
0000
ENDCHAR
STARTCHAR 4E08
ENCODING 19976
SWIDTH 520 0
DWIDTH 12 0
BBX 12 12 0 -2
BITMAP
0400
0440
ffe0
0400
0400
2400
2400
1400
0c00
1300
e0e0
0000
ENDCHAR
STARTCHAR 4E09
ENCODING 19977
SWIDTH 520 0
DWIDTH 12 0
BBX 12 12 0 -2
BITMAP
0080
7fc0
0000
0000
0000
3f80
0000
0000
0000
0040
ffe0
0000
ENDCHAR
STARTCHAR 4E0A
ENCODING 19978
SWIDTH 520 0
DWIDTH 12 0
BBX 12 12 0 -2
BITMAP
0400
0400
0400
0400
07c0
0400
0400
0400
0400
0400
ffe0
0000
ENDCHAR
STARTCHAR 4E0B
ENCODING 19979
SWIDTH 520 0
DWIDTH 12 0
BBX 12 12 0 -2
BITMAP
0040
ffe0
0400
0400
0700
0480
0440
0400
0400
0400
0400
0000
ENDCHAR
STARTCHAR 4E0C
ENCODING 19980
SWIDTH 520 0
DWIDTH 12 0
BBX 12 12 0 -2
BITMAP
0040
ffe0
1100
1100
1100
1100
1100
2100
2100
4100
8100
0000
ENDCHAR
STARTCHAR 4E0D
ENCODING 19981
SWIDTH 520 0
DWIDTH 12 0
BBX 12 12 0 -2
BITMAP
ffe0
0200
0400
0400
0d00
1480
2440
c420
0400
0400
0400
0000
ENDCHAR
STARTCHAR 4E0E
ENCODING 19982
SWIDTH 520 0
DWIDTH 12 0
BBX 12 12 0 -2
BITMAP
1000
1040
1fe0
1000
1040
3fe0
0040
ff40
0040
0040
0380
0000
ENDCHAR
STARTCHAR 4E10
ENCODING 19984
SWIDTH 520 0
DWIDTH 12 0
BBX 12 12 0 -2
BITMAP
ffe0
0400
4400
47c0
4400
7fc0
0040
0040
0040
0040
0380
0000
ENDCHAR
STARTCHAR 4E11
ENCODING 19985
SWIDTH 520 0
DWIDTH 12 0
BBX 12 12 0 -2
BITMAP
0080
7fc0
0880
0880
0880
7f80
1080
1080
1080
1080
ffe0
0000
ENDCHAR
STARTCHAR 4E13
ENCODING 19987
SWIDTH 520 0
DWIDTH 12 0
BBX 12 12 0 -2
BITMAP
0800
0880
7fc0
0800
ffe0
1000
1f80
0080
1900
0600
0100
0000
ENDCHAR
STARTCHAR 4E14
ENCODING 19988
SWIDTH 520 0
DWIDTH 12 0
BBX 12 12 0 -2
BITMAP
1f80
1080
1080
1f80
1080
1080
1f80
1080
1080
1080
ffe0
0000
ENDCHAR
STARTCHAR 4E15
ENCODING 19989
SWIDTH 520 0
DWIDTH 12 0
BBX 12 12 0 -2
BITMAP
0040
ffe0
0400
0400
0d00
1480
2440
c420
0400
0400
ffe0
0000
ENDCHAR
STARTCHAR 4E16
ENCODING 19990
SWIDTH 520 0
DWIDTH 12 0
BBX 12 12 0 -2
BITMAP
0880
4880
4880
ffe0
4880
4880
4880
4f80
4880
4000
7fe0
0000
ENDCHAR
STARTCHAR 4E18
ENCODING 19992
SWIDTH 520 0
DWIDTH 12 0
BBX 12 12 0 -2
BITMAP
0180
3e00
2000
2000
3fc0
2100
2100
2100
2100
2100
ffe0
0000
ENDCHAR
STARTCHAR 4E19
ENCODING 19993
SWIDTH 520 0
DWIDTH 12 0
BBX 12 12 0 -2
BITMAP
ffe0
0400
0400
7fc0
4440
4440
4a40
5140
6140
4040
41c0
0000
ENDCHAR
STARTCHAR 4E1A
ENCODING 19994
SWIDTH 520 0
DWIDTH 12 0
BBX 12 12 0 -2
BITMAP
0900
0900
0900
8920
4920
4940
2980
2900
0900
0900
ffe0
0000
ENDCHAR
STARTCHAR 4E1B
ENCODING 19995
SWIDTH 520 0
DWIDTH 12 0
BBX 12 12 0 -2
BITMAP
1100
1100
1100
1100
1100
1900
2680
2280
4440
8820
ffe0
0000
ENDCHAR
STARTCHAR 4E1C
ENCODING 19996
SWIDTH 520 0
DWIDTH 12 0
BBX 12 12 0 -2
BITMAP
0400
ffe0
0800
1400
2400
7fc0
0500
1480
2440
c420
0c00
0000
ENDCHAR
STARTCHAR 4E1D
ENCODING 19997
SWIDTH 520 0
DWIDTH 12 0
BBX 12 12 0 -2
BITMAP
2100
2100
4a40
4a40
f780
2100
4200
7bc0
0000
0000
ffe0
0000
ENDCHAR
STARTCHAR 4E1E
ENCODING 19998
SWIDTH 520 0
DWIDTH 12 0
BBX 12 12 0 -2
BITMAP
7f80
0100
0600
7440
1680
1500
2480
4440
9c20
0000
ffe0
0000
ENDCHAR
STARTCHAR 4E22
ENCODING 20002
SWIDTH 520 0
DWIDTH 12 0
BBX 12 12 0 -2
BITMAP
03c0
7c00
0400
7fc0
0400
0400
ffe0
0800
1100
2080
7fc0
0000
ENDCHAR
STARTCHAR 4E24
ENCODING 20004
SWIDTH 520 0
DWIDTH 12 0
BBX 12 12 0 -2
BITMAP
ffe0
1200
1200
7fc0
5240
5240
5b40
64c0
4840
4040
41c0
0000
ENDCHAR
STARTCHAR 4E25
ENCODING 20005
SWIDTH 520 0
DWIDTH 12 0
BBX 12 12 0 -2
BITMAP
7fe0
0900
4940
2980
0900
7fe0
4000
4000
4000
8000
8000
0000
ENDCHAR
STARTCHAR 4E27
ENCODING 20007
SWIDTH 520 0
DWIDTH 12 0
BBX 12 12 0 -2
BITMAP
0400
ffe0
0400
2480
1500
ffe0
2480
2500
2200
2980
3060
0000
ENDCHAR
STARTCHAR 4E28
ENCODING 20008
SWIDTH 520 0
DWIDTH 12 0
BBX 12 12 0 -2
BITMAP
0400
0400
0400
0400
0400
0400
0400
0400
0400
0400
0400
0000
ENDCHAR
STARTCHAR 4E2A
ENCODING 20010
SWIDTH 520 0
DWIDTH 12 0
BBX 12 12 0 -2
BITMAP
0400
0a00
1100
2480
c460
0400
0400
0400
0400
0400
0400
0000
ENDCHAR
STARTCHAR 4E2B
ENCODING 20011
SWIDTH 520 0
DWIDTH 12 0
BBX 12 12 0 -2
BITMAP
4040
2080
1100
0a00
0400
0400
0400
0400
0400
0400
0400
0000
ENDCHAR
STARTCHAR 4E2C
ENCODING 20012
SWIDTH 520 0
DWIDTH 12 0
BBX 12 12 0 -2
BITMAP
0800
0800
8800
4800
2800
1800
2800
c800
0800
0800
0800
0000
ENDCHAR
STARTCHAR 4E2D
ENCODING 20013
SWIDTH 520 0
DWIDTH 12 0
BBX 12 12 0 -2
BITMAP
0400
0400
7fc0
4440
4440
4440
7fc0
0400
0400
0400
0400
0000
ENDCHAR
STARTCHAR 4E30
ENCODING 20016
SWIDTH 520 0
DWIDTH 12 0
BBX 12 12 0 -2
BITMAP
0400
0440
ffe0
0400
0400
7fc0
0400
ffe0
0400
0400
0400
0000
ENDCHAR
STARTCHAR 4E32
ENCODING 20018
SWIDTH 520 0
DWIDTH 12 0
BBX 12 12 0 -2
BITMAP
0400
7fc0
4440
7fc0
0400
7fc0
4440
4440
7fc0
0400
0400
0000
ENDCHAR
STARTCHAR 4E34
ENCODING 20020
SWIDTH 520 0
DWIDTH 12 0
BBX 12 12 0 -2
BITMAP
2200
2200
a7e0
a500
a880
a000
a7e0
a520
a520
27e0
2420
0000
ENDCHAR
STARTCHAR 4E36
ENCODING 20022
SWIDTH 520 0
DWIDTH 12 0
BBX 12 12 0 -2
BITMAP
0000
0000
0000
0800
0400
0200
0200
0000
0000
0000
0000
0000
ENDCHAR
STARTCHAR 4E38
ENCODING 20024
SWIDTH 520 0
DWIDTH 12 0
BBX 12 12 0 -2
BITMAP
0800
0800
0f80
f880
0880
3880
0c80
1280
10a0
20a0
c0e0
0000
ENDCHAR
STARTCHAR 4E39
ENCODING 20025
SWIDTH 520 0
DWIDTH 12 0
BBX 12 12 0 -2
BITMAP
3f80
2080
2880
2480
2480
ffe0
2080
2080
2080
4080
8380
0000
ENDCHAR
STARTCHAR 4E3A
ENCODING 20026
SWIDTH 520 0
DWIDTH 12 0
BBX 12 12 0 -2
BITMAP
0400
2400
1440
7fe0
0440
0840
0a40
1140
1140
2040
c380
0000
ENDCHAR
STARTCHAR 4E3B
ENCODING 20027
SWIDTH 520 0
DWIDTH 12 0
BBX 12 12 0 -2
BITMAP
0800
0440
ffe0
0400
0400
0400
7fc0
0400
0400
0400
ffe0
0000
ENDCHAR
STARTCHAR 4E3D
ENCODING 20029
SWIDTH 520 0
DWIDTH 12 0
BBX 12 12 0 -2
BITMAP
ffe0
0000
7bc0
4a40
4a40
6b40
5ac0
4a40
4a40
4a40
5ac0
0000
ENDCHAR
STARTCHAR 4E3E
ENCODING 20030
SWIDTH 520 0
DWIDTH 12 0
BBX 12 12 0 -2
BITMAP
4840
2480
ffe0
1100
2480
4440
bfa0
0400
7fc0
0400
0400
0000
ENDCHAR
STARTCHAR 4E3F
ENCODING 20031
SWIDTH 520 0
DWIDTH 12 0
BBX 12 12 0 -2
BITMAP
0400
0400
0400
0400
0400
0400
0400
0400
0800
0800
1000
0000
ENDCHAR
STARTCHAR 4E43
ENCODING 20035
SWIDTH 520 0
DWIDTH 12 0
BBX 12 12 0 -2
BITMAP
7f80
0880
0880
0880
09e0
0820
1020
1020
2020
4240
8180
0000
ENDCHAR
STARTCHAR 4E45
ENCODING 20037
SWIDTH 520 0
DWIDTH 12 0
BBX 12 12 0 -2
BITMAP
0800
0800
1f00
1100
2200
4200
0500
0900
1080
2040
c020
0000
ENDCHAR
STARTCHAR 4E47
ENCODING 20039
SWIDTH 520 0
DWIDTH 12 0
BBX 12 12 0 -2
BITMAP
03c0
7c00
0400
0400
07e0
fc00
0400
0400
0420
0420
07e0
0000
ENDCHAR
STARTCHAR 4E48
ENCODING 20040
SWIDTH 520 0
DWIDTH 12 0
BBX 12 12 0 -2
BITMAP
0400
0400
0800
1100
2100
4200
8400
0900
1080
3fc0
0040
0000
ENDCHAR
STARTCHAR 4E49
ENCODING 20041
SWIDTH 520 0
DWIDTH 12 0
BBX 12 12 0 -2
BITMAP
0800
2480
2480
2080
1100
1100
0a00
0400
0a00
3180
c060
0000
ENDCHAR
STARTCHAR 4E4B
ENCODING 20043
SWIDTH 520 0
DWIDTH 12 0
BBX 12 12 0 -2
BITMAP
0800
0400
ff80
0100
0200
0400
0800
1000
2000
d000
0fe0
0000
ENDCHAR
STARTCHAR 4E4C
ENCODING 20044
SWIDTH 520 0
DWIDTH 12 0
BBX 12 12 0 -2
BITMAP
0800
3f80
2080
2080
2700
2000
3fc0
0040
ff40
0040
0380
0000
ENDCHAR
STARTCHAR 4E4D
ENCODING 20045
SWIDTH 520 0
DWIDTH 12 0
BBX 12 12 0 -2
BITMAP
1000
1040
3fe0
4800
8800
0fc0
0800
0800
0fe0
0800
0800
0000
ENDCHAR
STARTCHAR 4E4E
ENCODING 20046
SWIDTH 520 0
DWIDTH 12 0
BBX 12 12 0 -2
BITMAP
03c0
7c00
2480
1480
1500
ffe0
0400
0400
0400
0400
1c00
0000
ENDCHAR
STARTCHAR 4E4F
ENCODING 20047
SWIDTH 520 0
DWIDTH 12 0
BBX 12 12 0 -2
BITMAP
0380
fc00
0800
0400
7f80
0100
0600
1800
6000
9000
0fe0
0000
ENDCHAR
STARTCHAR 4E50
ENCODING 20048
SWIDTH 520 0
DWIDTH 12 0
BBX 12 12 0 -2
BITMAP
0380
3c00
2200
2200
4240
7fe0
1300
2280
4240
8220
0e00
0000
ENDCHAR
STARTCHAR 4E52
ENCODING 20050
SWIDTH 520 0
DWIDTH 12 0
BBX 12 12 0 -2
BITMAP
0380
3c00
2000
3fc0
2100
2100
2100
ffe0
1000
2000
c000
0000
ENDCHAR
STARTCHAR 4E53
ENCODING 20051
SWIDTH 520 0
DWIDTH 12 0
BBX 12 12 0 -2
BITMAP
0180
3e00
2000
3fc0
2100
2100
2100
ffe0
0100
0080
0040
0000
ENDCHAR
STARTCHAR 4E54
ENCODING 20052
SWIDTH 520 0
DWIDTH 12 0
BBX 12 12 0 -2
BITMAP
0780
7800
0800
ffe0
1100
2080
d160
1100
1100
2100
c100
0000
ENDCHAR
STARTCHAR 4E56
ENCODING 20054
SWIDTH 520 0
DWIDTH 12 0
BBX 12 12 0 -2
BITMAP
7f80
0400
ffe0
0400
1500
f560
1580
3520
d5e0
0400
0400
0000
ENDCHAR
STARTCHAR 4E58
ENCODING 20056
SWIDTH 520 0
DWIDTH 12 0
BBX 12 12 0 -2
BITMAP
7f80
0400
ffe0
1500
f5c0
1520
f5e0
0e00
1500
2480
c460
0000
ENDCHAR
STARTCHAR 4E59
ENCODING 20057
SWIDTH 520 0
DWIDTH 12 0
BBX 12 12 0 -2
BITMAP
0100
7f80
0200
0400
0800
1000
2000
4020
4020
4020
3fc0
0000
ENDCHAR
STARTCHAR 4E5C
ENCODING 20060
SWIDTH 520 0
DWIDTH 12 0
BBX 12 12 0 -2
BITMAP
1000
1000
1380
1c80
3080
d080
1080
1780
1020
1020
1fe0
0000
ENDCHAR
STARTCHAR 4E5D
ENCODING 20061
SWIDTH 520 0
DWIDTH 12 0
BBX 12 12 0 -2
BITMAP
0800
0800
0900
ff80
0900
0900
0900
1100
1120
2120
c1e0
0000
ENDCHAR
STARTCHAR 4E5E
ENCODING 20062
SWIDTH 520 0
DWIDTH 12 0
BBX 12 12 0 -2
BITMAP
1000
1040
3fe0
4000
bf00
0200
0400
0820
1020
1020
1fe0
0000
ENDCHAR
STARTCHAR 4E5F
ENCODING 20063
SWIDTH 520 0
DWIDTH 12 0
BBX 12 12 0 -2
BITMAP
0400
2400
24c0
2740
3c40
e440
2540
2480
2420
2020
3fe0
0000
ENDCHAR
STARTCHAR 4E60
ENCODING 20064
SWIDTH 520 0
DWIDTH 12 0
BBX 12 12 0 -2
BITMAP
0040
7fe0
1040
0840
0840
0040
0340
0c40
f040
4040
0380
0000
ENDCHAR
STARTCHAR 4E61
ENCODING 20065
SWIDTH 520 0
DWIDTH 12 0
BBX 12 12 0 -2
BITMAP
0400
0880
1080
3f00
0200
0c40
3f80
0100
0200
0c00
7000
0000
ENDCHAR
STARTCHAR 4E66
ENCODING 20070
SWIDTH 520 0
DWIDTH 12 0
BBX 12 12 0 -2
BITMAP
08c0
0820
7f80
0880
0880
ffe0
0820
0820
0920
08c0
0800
0000
ENDCHAR
STARTCHAR 4E69
ENCODING 20073
SWIDTH 520 0
DWIDTH 12 0
BBX 12 12 0 -2
BITMAP
2100
2100
3d00
2100
2100
f900
8900
8900
8920
f920
89e0
0000
ENDCHAR
STARTCHAR 4E70
ENCODING 20080
SWIDTH 520 0
DWIDTH 12 0
BBX 12 12 0 -2
BITMAP
7fe0
0020
1240
0a00
2200
1200
ffe0
0200
0580
1840
e020
0000
ENDCHAR
STARTCHAR 4E71
ENCODING 20081
SWIDTH 520 0
DWIDTH 12 0
BBX 12 12 0 -2
BITMAP
0d00
f100
1100
ff00
1100
1100
7d00
4500
4520
7d20
45e0
0000
ENDCHAR
STARTCHAR 4E73
ENCODING 20083
SWIDTH 520 0
DWIDTH 12 0
BBX 12 12 0 -2
BITMAP
0d00
f500
5500
4900
fd00
0900
1100
3d00
d120
1120
71e0
0000
ENDCHAR
STARTCHAR 4E7E
ENCODING 20094
SWIDTH 520 0
DWIDTH 12 0
BBX 12 12 0 -2
BITMAP
1100
fd00
11e0
7a00
4f80
7880
4900
7900
1220
fe20
13e0
0000
ENDCHAR
STARTCHAR 4E86
ENCODING 20102
SWIDTH 520 0
DWIDTH 12 0
BBX 12 12 0 -2
BITMAP
7fc0
0080
0100
0600
0400
0400
0400
0400
0400
0400
1c00
0000
ENDCHAR
STARTCHAR 4E88
ENCODING 20104
SWIDTH 520 0
DWIDTH 12 0
BBX 12 12 0 -2
BITMAP
7f80
0100
0a00
0400
ffe0
0420
0440
0400
0400
0400
1c00
0000
ENDCHAR
STARTCHAR 4E89
ENCODING 20105
SWIDTH 520 0
DWIDTH 12 0
BBX 12 12 0 -2
BITMAP
1f00
1100
2200
df80
0480
ffe0
0480
7f80
0400
0400
1c00
0000
ENDCHAR
STARTCHAR 4E8B
ENCODING 20107
SWIDTH 520 0
DWIDTH 12 0
BBX 12 12 0 -2
BITMAP
0400
ffe0
2480
2480
7fc0
0440
ffe0
0440
7fc0
0400
1c00
0000
ENDCHAR
STARTCHAR 4E8C
ENCODING 20108
SWIDTH 520 0
DWIDTH 12 0
BBX 12 12 0 -2
BITMAP
0000
0080
7fc0
0000
0000
0000
0000
0000
0000
ffe0
0000
0000
ENDCHAR
STARTCHAR 4E8D
ENCODING 20109
SWIDTH 520 0
DWIDTH 12 0
BBX 12 12 0 -2
BITMAP
7fc0
0000
0000
0000
ffe0
0400
0400
0400
0400
0400
1c00
0000
ENDCHAR
STARTCHAR 4E8E
ENCODING 20110
SWIDTH 520 0
DWIDTH 12 0
BBX 12 12 0 -2
BITMAP
7fc0
0400
0400
0400
ffe0
0400
0400
0400
0400
0400
1c00
0000
ENDCHAR
STARTCHAR 4E8F
ENCODING 20111
SWIDTH 520 0
DWIDTH 12 0
BBX 12 12 0 -2
BITMAP
3f80
0000
0000
ffe0
1000
1000
1f80
0080
0080
0880
0700
0000
ENDCHAR
STARTCHAR 4E91
ENCODING 20113
SWIDTH 520 0
DWIDTH 12 0
BBX 12 12 0 -2
BITMAP
0080
7fc0
0000
0000
ffe0
0800
0800
1100
2080
7fc0
0040
0000
ENDCHAR
STARTCHAR 4E92
ENCODING 20114
SWIDTH 520 0
DWIDTH 12 0
BBX 12 12 0 -2
BITMAP
0040
ffe0
1000
1f00
1100
1100
1100
3f00
0100
0100
ffe0
0000
ENDCHAR
STARTCHAR 4E93
ENCODING 20115
SWIDTH 520 0
DWIDTH 12 0
BBX 12 12 0 -2
BITMAP
7fc0
0000
0000
0000
ffe0
1100
1100
1100
1100
2100
c100
0000
ENDCHAR
STARTCHAR 4E94
ENCODING 20116
SWIDTH 520 0
DWIDTH 12 0
BBX 12 12 0 -2
BITMAP
7fc0
0800
0800
0800
7f80
0880
0880
1080
1080
1080
ffe0
0000
ENDCHAR
STARTCHAR 4E95
ENCODING 20117
SWIDTH 520 0
DWIDTH 12 0
BBX 12 12 0 -2
BITMAP
1100
1100
ffc0
1100
1100
1100
ffe0
1100
1100
2100
c100
0000
ENDCHAR
STARTCHAR 4E98
ENCODING 20120
SWIDTH 520 0
DWIDTH 12 0
BBX 12 12 0 -2
BITMAP
0040
7fe0
0000
3f80
2080
3f80
2080
2080
3f80
0000
ffe0
0000
ENDCHAR
STARTCHAR 4E9A
ENCODING 20122
SWIDTH 520 0
DWIDTH 12 0
BBX 12 12 0 -2
BITMAP
0040
7fe0
0a00
4a40
4a40
2a80
2a80
2b00
0a00
0a00
ffe0
0000
ENDCHAR
STARTCHAR 4E9B
ENCODING 20123
SWIDTH 520 0
DWIDTH 12 0
BBX 12 12 0 -2
BITMAP
1100
5120
5dc0
5100
5120
5d20
e1e0
0000
7fc0
0000
ffe0
0000
ENDCHAR
STARTCHAR 4E9F
ENCODING 20127
SWIDTH 520 0
DWIDTH 12 0
BBX 12 12 0 -2
BITMAP
7fc0
0100
0600
75e0
5420
5540
54c0
7520
0e20
0000
ffe0
0000
ENDCHAR
STARTCHAR 4EA0
ENCODING 20128
SWIDTH 520 0
DWIDTH 12 0
BBX 12 12 0 -2
BITMAP
0000
0800
0400
0400
ffe0
0000
0000
0000
0000
0000
0000
0000
ENDCHAR
STARTCHAR 4EA1
ENCODING 20129
SWIDTH 520 0
DWIDTH 12 0
BBX 12 12 0 -2
BITMAP
0400
0200
ffe0
2000
2000
2000
2000
2000
2000
2000
3fe0
0000
ENDCHAR
STARTCHAR 4EA2
ENCODING 20130
SWIDTH 520 0
DWIDTH 12 0
BBX 12 12 0 -2
BITMAP
0800
0440
ffe0
0000
1f00
1100
1100
1100
1120
2120
c1e0
0000
ENDCHAR
STARTCHAR 4EA4
ENCODING 20132
SWIDTH 520 0
DWIDTH 12 0
BBX 12 12 0 -2
BITMAP
0400
ffe0
1100
2080
5140
9100
1100
0a00
0400
1b00
e0e0
0000
ENDCHAR
STARTCHAR 4EA5
ENCODING 20133
SWIDTH 520 0
DWIDTH 12 0
BBX 12 12 0 -2
BITMAP
0400
ffe0
0800
1100
2200
3c80
0900
1200
6500
1880
6040
0000
ENDCHAR
STARTCHAR 4EA6
ENCODING 20134
SWIDTH 520 0
DWIDTH 12 0
BBX 12 12 0 -2
BITMAP
0800
0440
ffe0
0900
2980
2940
4920
8920
1100
2100
c700
0000
ENDCHAR
STARTCHAR 4EA7
ENCODING 20135
SWIDTH 520 0
DWIDTH 12 0
BBX 12 12 0 -2
BITMAP
0400
ffe0
1080
0900
7fe0
4000
4000
4000
4000
8000
8000
0000
ENDCHAR
STARTCHAR 4EA8
ENCODING 20136
SWIDTH 520 0
DWIDTH 12 0
BBX 12 12 0 -2
BITMAP
0400
ffe0
0000
3f80
2080
3f80
0000
7f80
0200
0400
1c00
0000
ENDCHAR
STARTCHAR 4EA9
ENCODING 20137
SWIDTH 520 0
DWIDTH 12 0
BBX 12 12 0 -2
BITMAP
0800
0400
ffe0
0000
3fc0
2440
2440
3fc0
2440
2440
3fc0
0000
ENDCHAR
STARTCHAR 4EAB
ENCODING 20139
SWIDTH 520 0
DWIDTH 12 0
BBX 12 12 0 -2
BITMAP
0400
ffe0
0000
3f80
2080
7fc0
0100
0600
ffe0
0400
1c00
0000
ENDCHAR
STARTCHAR 4EAC
ENCODING 20140
SWIDTH 520 0
DWIDTH 12 0
BBX 12 12 0 -2
BITMAP
0400
ffe0
0000
3f80
2080
2080
3f80
1500
2480
4440
9c40
0000
ENDCHAR
STARTCHAR 4EAD
ENCODING 20141
SWIDTH 520 0
DWIDTH 12 0
BBX 12 12 0 -2
BITMAP
0400
7fc0
0000
1f80
1080
ffe0
8020
3f80
0400
0400
1c00
0000
ENDCHAR
STARTCHAR 4EAE
ENCODING 20142
SWIDTH 520 0
DWIDTH 12 0
BBX 12 12 0 -2
BITMAP
0400
ffe0
0000
3f80
2080
ffe0
8020
1f00
1120
2120
c1e0
0000
ENDCHAR
STARTCHAR 4EB2
ENCODING 20146
SWIDTH 520 0
DWIDTH 12 0
BBX 12 12 0 -2
BITMAP
0400
7fc0
1100
0a00
ffe0
0400
7fc0
0400
2500
4480
9c40
0000
ENDCHAR
STARTCHAR 4EB3
ENCODING 20147
SWIDTH 520 0
DWIDTH 12 0
BBX 12 12 0 -2
BITMAP
0400
ffe0
0000
3f80
2080
ffe0
83a0
7c00
07c0
7c20
07e0
0000
ENDCHAR
STARTCHAR 4EB5
ENCODING 20149
SWIDTH 520 0
DWIDTH 12 0
BBX 12 12 0 -2
BITMAP
0400
ffe0
2200
f7c0
2240
f560
2820
6c80
1300
f580
1860
0000
ENDCHAR
STARTCHAR 4EBA
ENCODING 20154
SWIDTH 520 0
DWIDTH 12 0
BBX 12 12 0 -2
BITMAP
0400
0400
0400
0400
0400
0a00
0a00
1100
1100
2080
c060
0000
ENDCHAR
STARTCHAR 4EBB
ENCODING 20155
SWIDTH 520 0
DWIDTH 12 0
BBX 12 12 0 -2
BITMAP
0800
0800
1000
1000
3000
5000
9000
1000
1000
1000
1000
0000
ENDCHAR
STARTCHAR 4EBF
ENCODING 20159
SWIDTH 520 0
DWIDTH 12 0
BBX 12 12 0 -2
BITMAP
1000
1fc0
2080
2100
6200
a400
2400
2820
2820
2820
27e0
0000
ENDCHAR
STARTCHAR 4EC0
ENCODING 20160
SWIDTH 520 0
DWIDTH 12 0
BBX 12 12 0 -2
BITMAP
1100
1100
2100
2100
7fe0
a100
2100
2100
2100
2100
2100
0000
ENDCHAR
STARTCHAR 4EC1
ENCODING 20161
SWIDTH 520 0
DWIDTH 12 0
BBX 12 12 0 -2
BITMAP
1000
1000
2fc0
2000
6000
a000
2000
2000
2000
3fe0
2000
0000
ENDCHAR
STARTCHAR 4EC2
ENCODING 20162
SWIDTH 520 0
DWIDTH 12 0
BBX 12 12 0 -2
BITMAP
2200
2200
2200
2fe0
6220
a220
2220
2420
2420
2820
31c0
0000
ENDCHAR
STARTCHAR 4EC3
ENCODING 20163
SWIDTH 520 0
DWIDTH 12 0
BBX 12 12 0 -2
BITMAP
1000
1fe0
2100
2100
6100
a100
2100
2100
2100
2100
2700
0000
ENDCHAR
STARTCHAR 4EC4
ENCODING 20164
SWIDTH 520 0
DWIDTH 12 0
BBX 12 12 0 -2
BITMAP
7fe0
4000
4400
4400
4400
4400
4600
4500
4900
9080
a060
0000
ENDCHAR
STARTCHAR 4EC5
ENCODING 20165
SWIDTH 520 0
DWIDTH 12 0
BBX 12 12 0 -2
BITMAP
2000
2fc0
2840
6840
a480
2480
2280
2100
2300
2480
3860
0000
ENDCHAR
STARTCHAR 4EC6
ENCODING 20166
SWIDTH 520 0
DWIDTH 12 0
BBX 12 12 0 -2
BITMAP
1100
1100
1100
3100
3180
5140
9120
1100
1100
1100
1100
0000
ENDCHAR
STARTCHAR 4EC7
ENCODING 20167
SWIDTH 520 0
DWIDTH 12 0
BBX 12 12 0 -2
BITMAP
2400
2400
4400
5f80
c480
4480
4480
4480
44a0
48a0
50e0
0000
ENDCHAR
STARTCHAR 4EC9
ENCODING 20169
SWIDTH 520 0
DWIDTH 12 0
BBX 12 12 0 -2
BITMAP
2000
2f80
4880
4880
c880
4880
4880
4880
48a0
50a0
60e0
0000
ENDCHAR
STARTCHAR 4ECA
ENCODING 20170
SWIDTH 520 0
DWIDTH 12 0
BBX 12 12 0 -2
BITMAP
0400
0a00
1100
2880
c460
0400
3f00
0100
0200
0200
0400
0000
ENDCHAR
STARTCHAR 4ECB
ENCODING 20171
SWIDTH 520 0
DWIDTH 12 0
BBX 12 12 0 -2
BITMAP
0400
0a00
1100
2080
d160
1100
1100
1100
1100
2100
4100
0000
ENDCHAR
STARTCHAR 4ECD
ENCODING 20173
SWIDTH 520 0
DWIDTH 12 0
BBX 12 12 0 -2
BITMAP
2000
2fc0
2440
6480
a4e0
2420
2420
2420
2820
2920
30c0
0000
ENDCHAR
STARTCHAR 4ECE
ENCODING 20174
SWIDTH 520 0
DWIDTH 12 0
BBX 12 12 0 -2
BITMAP
1100
1100
1100
1100
1100
1100
2a80
2a80
4440
4840
9020
0000
ENDCHAR
STARTCHAR 4ED1
ENCODING 20177
SWIDTH 520 0
DWIDTH 12 0
BBX 12 12 0 -2
BITMAP
0400
0400
0a00
1100
2080
d160
1200
1c00
1040
1040
0fc0
0000
ENDCHAR
STARTCHAR 4ED3
ENCODING 20179
SWIDTH 520 0
DWIDTH 12 0
BBX 12 12 0 -2
BITMAP
0400
0a00
1100
2080
5f60
9100
1100
1500
1240
1040
1fc0
0000
ENDCHAR
STARTCHAR 4ED4
ENCODING 20180
SWIDTH 520 0
DWIDTH 12 0
BBX 12 12 0 -2
BITMAP
2fc0
2040
2080
2100
6100
bfe0
2100
2100
2100
2100
2700
0000
ENDCHAR
STARTCHAR 4ED5
ENCODING 20181
SWIDTH 520 0
DWIDTH 12 0
BBX 12 12 0 -2
BITMAP
1100
1100
2100
2100
6fe0
a100
2100
2100
2100
2100
2fe0
0000
ENDCHAR
STARTCHAR 4ED6
ENCODING 20182
SWIDTH 520 0
DWIDTH 12 0
BBX 12 12 0 -2
BITMAP
2100
2100
2900
29c0
6f40
b940
2940
29c0
2920
2820
27e0
0000
ENDCHAR
STARTCHAR 4ED7
ENCODING 20183
SWIDTH 520 0
DWIDTH 12 0
BBX 12 12 0 -2
BITMAP
2100
2100
2100
7fe0
6900
a900
2500
2200
2300
2480
3860
0000
ENDCHAR
STARTCHAR 4ED8
ENCODING 20184
SWIDTH 520 0
DWIDTH 12 0
BBX 12 12 0 -2
BITMAP
1080
1080
2080
2fe0
6080
a880
2480
2480
2080
2080
2380
0000
ENDCHAR
STARTCHAR 4ED9
ENCODING 20185
SWIDTH 520 0
DWIDTH 12 0
BBX 12 12 0 -2
BITMAP
1100
1100
2100
2920
6920
a920
2920
2920
2920
2920
2fe0
0000
ENDCHAR
STARTCHAR 4EDD
ENCODING 20189
SWIDTH 520 0
DWIDTH 12 0
BBX 12 12 0 -2
BITMAP
0400
0a00
1100
2080
4040
bfa0
0400
0400
0400
0400
ffe0
0000
ENDCHAR
STARTCHAR 4EDE
ENCODING 20190
SWIDTH 520 0
DWIDTH 12 0
BBX 12 12 0 -2
BITMAP
2000
2fe0
2220
2220
6a20
aa20
3220
2220
2420
2820
31c0
0000
ENDCHAR
STARTCHAR 4EDF
ENCODING 20191
SWIDTH 520 0
DWIDTH 12 0
BBX 12 12 0 -2
BITMAP
10c0
1700
2100
2100
6100
bfe0
2100
2100
2100
2100
2100
0000
ENDCHAR
STARTCHAR 4EE1
ENCODING 20193
SWIDTH 520 0
DWIDTH 12 0
BBX 12 12 0 -2
BITMAP
1200
1200
27e0
2800
7780
a100
2200
2400
2820
2820
27e0
0000
ENDCHAR
STARTCHAR 4EE3
ENCODING 20195
SWIDTH 520 0
DWIDTH 12 0
BBX 12 12 0 -2
BITMAP
1280
1240
2240
23e0
7e00
a200
2200
2100
2120
20a0
2060
0000
ENDCHAR
STARTCHAR 4EE4
ENCODING 20196
SWIDTH 520 0
DWIDTH 12 0
BBX 12 12 0 -2
BITMAP
0400
0a00
1100
2880
c460
0200
3f80
0100
1a00
0400
0200
0000
ENDCHAR
STARTCHAR 4EE5
ENCODING 20197
SWIDTH 520 0
DWIDTH 12 0
BBX 12 12 0 -2
BITMAP
0080
4880
4480
4480
4080
4080
4880
5080
6140
4620
1820
0000
ENDCHAR
STARTCHAR 4EE8
ENCODING 20200
SWIDTH 520 0
DWIDTH 12 0
BBX 12 12 0 -2
BITMAP
2000
2fe0
4000
4000
c000
4fc0
4000
4000
4000
4000
5fe0
0000
ENDCHAR
STARTCHAR 4EEA
ENCODING 20202
SWIDTH 520 0
DWIDTH 12 0
BBX 12 12 0 -2
BITMAP
1200
1100
2940
2840
6880
a480
2500
2200
2300
2480
3860
0000
ENDCHAR
STARTCHAR 4EEB
ENCODING 20203
SWIDTH 520 0
DWIDTH 12 0
BBX 12 12 0 -2
BITMAP
1100
1100
2200
2240
6480
a900
2100
2280
2440
28e0
2f20
0000
ENDCHAR
STARTCHAR 4EEC
ENCODING 20204
SWIDTH 520 0
DWIDTH 12 0
BBX 12 12 0 -2
BITMAP
2800
25e0
4a20
4820
c820
4820
4820
4820
4820
4820
48e0
0000
ENDCHAR
STARTCHAR 4EF0
ENCODING 20208
SWIDTH 520 0
DWIDTH 12 0
BBX 12 12 0 -2
BITMAP
2200
2de0
2920
6920
a920
2920
2b20
2d20
2960
2100
2100
0000
ENDCHAR
STARTCHAR 4EF2
ENCODING 20210
SWIDTH 520 0
DWIDTH 12 0
BBX 12 12 0 -2
BITMAP
1100
1100
2fe0
2920
6920
a920
2fe0
2100
2100
2100
2100
0000
ENDCHAR
STARTCHAR 4EF3
ENCODING 20211
SWIDTH 520 0
DWIDTH 12 0
BBX 12 12 0 -2
BITMAP
2900
2900
2900
4920
4fc0
c900
4900
4900
4b20
4d20
48e0
0000
ENDCHAR
STARTCHAR 4EF5
ENCODING 20213
SWIDTH 520 0
DWIDTH 12 0
BBX 12 12 0 -2
BITMAP
2400
2400
27e0
6900
b100
2100
2fe0
2100
2100
2100
2100
0000
ENDCHAR
STARTCHAR 4EF6
ENCODING 20214
SWIDTH 520 0
DWIDTH 12 0
BBX 12 12 0 -2
BITMAP
2100
2900
2940
4fe0
d100
4100
5fe0
4100
4100
4100
4100
0000
ENDCHAR
STARTCHAR 4EF7
ENCODING 20215
SWIDTH 520 0
DWIDTH 12 0
BBX 12 12 0 -2
BITMAP
1200
2300
2480
6840
b4a0
2480
2480
2480
2480
2880
3080
0000
ENDCHAR
STARTCHAR 4EFB
ENCODING 20219
SWIDTH 520 0
DWIDTH 12 0
BBX 12 12 0 -2
BITMAP
1000
11c0
2f00
2100
6100
bfe0
2100
2100
2100
2100
2fe0
0000
ENDCHAR
STARTCHAR 4EFD
ENCODING 20221
SWIDTH 520 0
DWIDTH 12 0
BBX 12 12 0 -2
BITMAP
2500
2500
2480
4880
5040
cfa0
4480
4480
4480
4880
5380
0000
ENDCHAR
STARTCHAR 4EFF
ENCODING 20223
SWIDTH 520 0
DWIDTH 12 0
BBX 12 12 0 -2
BITMAP
1200
2100
3fe0
6200
a3c0
2240
2240
2440
2440
2840
3180
0000
ENDCHAR
STARTCHAR 4F01
ENCODING 20225
SWIDTH 520 0
DWIDTH 12 0
BBX 12 12 0 -2
BITMAP
0400
0600
0900
1080
2460
c400
1780
1400
1400
1400
ffe0
0000
ENDCHAR
STARTCHAR 4F09
ENCODING 20233
SWIDTH 520 0
DWIDTH 12 0
BBX 12 12 0 -2
BITMAP
2200
2100
3fe0
4000
c780
4480
4480
4480
44a0
48a0
50e0
0000
ENDCHAR
STARTCHAR 4F0A
ENCODING 20234
SWIDTH 520 0
DWIDTH 12 0
BBX 12 12 0 -2
BITMAP
2000
2fc0
4440
4440
dfe0
4440
4440
4fc0
4400
4800
5000
0000
ENDCHAR
STARTCHAR 4F0D
ENCODING 20237
SWIDTH 520 0
DWIDTH 12 0
BBX 12 12 0 -2
BITMAP
2040
2fe0
4200
4200
cfc0
4440
4440
4440
4440
4440
5fe0
0000
ENDCHAR
STARTCHAR 4F0E
ENCODING 20238
SWIDTH 520 0
DWIDTH 12 0
BBX 12 12 0 -2
BITMAP
1100
1100
2fe0
2100
6100
afc0
2440
2280
2100
2280
3c60
0000
ENDCHAR
STARTCHAR 4F0F
ENCODING 20239
SWIDTH 520 0
DWIDTH 12 0
BBX 12 12 0 -2
BITMAP
1200
1280
2240
3fe0
6200
a200
2300
2480
2480
2840
3020
0000
ENDCHAR
STARTCHAR 4F10
ENCODING 20240
SWIDTH 520 0
DWIDTH 12 0
BBX 12 12 0 -2
BITMAP
1280
1240
2200
23e0
7e00
a240
2280
2100
2320
24a0
3860
0000
ENDCHAR
STARTCHAR 4F11
ENCODING 20241
SWIDTH 520 0
DWIDTH 12 0
BBX 12 12 0 -2
BITMAP
2200
2200
3fe0
2200
6200
a700
2a80
3240
2220
2200
2200
0000
ENDCHAR
STARTCHAR 4F17
ENCODING 20247
SWIDTH 520 0
DWIDTH 12 0
BBX 12 12 0 -2
BITMAP
0400
0400
0a00
1100
e0e0
2100
2100
3100
2a80
4440
8820
0000
ENDCHAR
STARTCHAR 4F18
ENCODING 20248
SWIDTH 520 0
DWIDTH 12 0
BBX 12 12 0 -2
BITMAP
2280
2240
2200
7fe0
a300
2300
2500
2500
2520
2920
31e0
0000
ENDCHAR
STARTCHAR 4F19
ENCODING 20249
SWIDTH 520 0
DWIDTH 12 0
BBX 12 12 0 -2
BITMAP
2200
2200
2200
6a40
aa40
2a80
3300
2280
2480
2840
3020
0000
ENDCHAR
STARTCHAR 4F1A
ENCODING 20250
SWIDTH 520 0
DWIDTH 12 0
BBX 12 12 0 -2
BITMAP
0400
0a00
1100
2080
5f60
8000
0000
7fc0
1100
2080
7fc0
0000
ENDCHAR
STARTCHAR 4F1B
ENCODING 20251
SWIDTH 520 0
DWIDTH 12 0
BBX 12 12 0 -2
BITMAP
2000
2fe0
2840
2c40
6a80
a900
2980
2a40
2c40
2800
2fe0
0000
ENDCHAR
STARTCHAR 4F1E
ENCODING 20254
SWIDTH 520 0
DWIDTH 12 0
BBX 12 12 0 -2
BITMAP
0400
0a00
1100
2480
c460
2480
1480
1500
ffe0
0400
0400
0000
ENDCHAR
STARTCHAR 4F1F
ENCODING 20255
SWIDTH 520 0
DWIDTH 12 0
BBX 12 12 0 -2
BITMAP
2200
3fe0
2200
6fc0
a200
3fe0
2220
2220
2220
22c0
2200
0000
ENDCHAR
STARTCHAR 4F20
ENCODING 20256
SWIDTH 520 0
DWIDTH 12 0
BBX 12 12 0 -2
BITMAP
1100
1100
2fe0
2200
6200
bfe0
2400
27c0
2080
2700
20c0
0000
ENDCHAR
STARTCHAR 4F22
ENCODING 20258
SWIDTH 520 0
DWIDTH 12 0
BBX 12 12 0 -2
BITMAP
2000
2fe0
2080
4880
c880
4fe0
4180
4280
4480
4880
5380
0000
ENDCHAR
STARTCHAR 4F24
ENCODING 20260
SWIDTH 520 0
DWIDTH 12 0
BBX 12 12 0 -2
BITMAP
2400
27e0
2800
6a00
b200
2fe0
2220
2220
2220
2440
39c0
0000
ENDCHAR
STARTCHAR 4F25
ENCODING 20261
SWIDTH 520 0
DWIDTH 12 0
BBX 12 12 0 -2
BITMAP
2400
2440
2480
4500
c600
5fe0
4500
4500
4480
4540
4620
0000
ENDCHAR
STARTCHAR 4F26
ENCODING 20262
SWIDTH 520 0
DWIDTH 12 0
BBX 12 12 0 -2
BITMAP
2200
2200
4500
6880
b060
2480
2500
2600
2420
2420
27e0
0000
ENDCHAR
STARTCHAR 4F27
ENCODING 20263
SWIDTH 520 0
DWIDTH 12 0
BBX 12 12 0 -2
BITMAP
1200
1300
2480
2840
77a0
a480
2480
2480
25a0
2420
27e0
0000
ENDCHAR
STARTCHAR 4F2A
ENCODING 20266
SWIDTH 520 0
DWIDTH 12 0
BBX 12 12 0 -2
BITMAP
2100
2900
2500
4100
5fe0
c220
4320
44a0
4420
4840
51c0
0000
ENDCHAR
STARTCHAR 4F2B
ENCODING 20267
SWIDTH 520 0
DWIDTH 12 0
BBX 12 12 0 -2
BITMAP
2200
2100
2fe0
6820
b040
2000
2000
2000
2000
2000
2fe0
0000
ENDCHAR
STARTCHAR 4F2F
ENCODING 20271
SWIDTH 520 0
DWIDTH 12 0
BBX 12 12 0 -2
BITMAP
2100
2200
4fc0
4840
c840
4840
4fc0
4840
4840
4840
4fc0
0000
ENDCHAR
STARTCHAR 4F30
ENCODING 20272
SWIDTH 520 0
DWIDTH 12 0
BBX 12 12 0 -2
BITMAP
1100
1100
3fe0
6100
a100
2100
2fc0
2840
2840
2840
2fc0
0000
ENDCHAR
STARTCHAR 4F32
ENCODING 20274
SWIDTH 520 0
DWIDTH 12 0
BBX 12 12 0 -2
BITMAP
2fe0
2820
2820
4fe0
4800
ca00
4ac0
4b00
4a20
5220
53e0
0000
ENDCHAR
STARTCHAR 4F34
ENCODING 20276
SWIDTH 520 0
DWIDTH 12 0
BBX 12 12 0 -2
BITMAP
2200
3240
4a80
4700
dfc0
4200
4200
5fe0
4200
4200
4200
0000
ENDCHAR
STARTCHAR 4F36
ENCODING 20278
SWIDTH 520 0
DWIDTH 12 0
BBX 12 12 0 -2
BITMAP
2200
2200
4500
4880
d260
6100
4fc0
4080
4500
4200
4100
0000
ENDCHAR
STARTCHAR 4F38
ENCODING 20280
SWIDTH 520 0
DWIDTH 12 0
BBX 12 12 0 -2
BITMAP
2100
2100
4fe0
4920
cfe0
4920
4920
4fe0
4100
4100
4100
0000
ENDCHAR
STARTCHAR 4F3A
ENCODING 20282
SWIDTH 520 0
DWIDTH 12 0
BBX 12 12 0 -2
BITMAP
2fe0
2020
2020
6fa0
a020
2f20
2920
2920
2f20
2020
20e0
0000
ENDCHAR
STARTCHAR 4F3C
ENCODING 20284
SWIDTH 520 0
DWIDTH 12 0
BBX 12 12 0 -2
BITMAP
2040
2840
4a40
4940
c940
4840
4840
4a40
4cc0
4120
4e20
0000
ENDCHAR
STARTCHAR 4F3D
ENCODING 20285
SWIDTH 520 0
DWIDTH 12 0
BBX 12 12 0 -2
BITMAP
2800
2800
5ee0
4aa0
caa0
4aa0
4aa0
4aa0
4aa0
52e0
6ca0
0000
ENDCHAR
STARTCHAR 4F43
ENCODING 20291
SWIDTH 520 0
DWIDTH 12 0
BBX 12 12 0 -2
BITMAP
1000
1fe0
2920
6920
a920
2fe0
2920
2920
2920
2fe0
2820
0000
ENDCHAR
STARTCHAR 4F46
ENCODING 20294
SWIDTH 520 0
DWIDTH 12 0
BBX 12 12 0 -2
BITMAP
2000
2fc0
4840
4840
cfc0
4840
4840
4fc0
4840
4000
5fe0
0000
ENDCHAR
STARTCHAR 4F4D
ENCODING 20301
SWIDTH 520 0
DWIDTH 12 0
BBX 12 12 0 -2
BITMAP
2400
2200
5fe0
4000
c880
4880
4480
4500
4500
4100
5fe0
0000
ENDCHAR
STARTCHAR 4F4E
ENCODING 20302
SWIDTH 520 0
DWIDTH 12 0
BBX 12 12 0 -2
BITMAP
20c0
2f00
4900
4900
c940
4fe0
4900
4900
4aa0
4c60
4b20
0000
ENDCHAR
STARTCHAR 4F4F
ENCODING 20303
SWIDTH 520 0
DWIDTH 12 0
BBX 12 12 0 -2
BITMAP
2400
2200
3fe0
6200
a200
2200
2fc0
2200
2200
2200
3fe0
0000
ENDCHAR
STARTCHAR 4F50
ENCODING 20304
SWIDTH 520 0
DWIDTH 12 0
BBX 12 12 0 -2
BITMAP
2200
2200
5fe0
4400
c400
47c0
4900
4900
5100
4100
5fe0
0000
ENDCHAR
STARTCHAR 4F51
ENCODING 20305
SWIDTH 520 0
DWIDTH 12 0
BBX 12 12 0 -2
BITMAP
2200
2200
3fe0
6200
6400
a7c0
2c40
3440
2440
2440
27c0
0000
ENDCHAR
STARTCHAR 4F53
ENCODING 20307
SWIDTH 520 0
DWIDTH 12 0
BBX 12 12 0 -2
BITMAP
1100
1100
2fe0
2100
6300
a580
2940
3120
2fc0
2100
2100
0000
ENDCHAR
STARTCHAR 4F55
ENCODING 20309
SWIDTH 520 0
DWIDTH 12 0
BBX 12 12 0 -2
BITMAP
2000
3fe0
4040
4f40
c940
4940
4940
4f40
4040
4040
41c0
0000
ENDCHAR
STARTCHAR 4F57
ENCODING 20311
SWIDTH 520 0
DWIDTH 12 0
BBX 12 12 0 -2
BITMAP
2200
2100
3fe0
5020
c400
4440
4480
4700
4420
4420
47e0
0000
ENDCHAR
STARTCHAR 4F58
ENCODING 20312
SWIDTH 520 0
DWIDTH 12 0
BBX 12 12 0 -2
BITMAP
0400
0a00
1100
2080
df60
0000
7fc0
1500
2480
c460
1c00
0000
ENDCHAR
STARTCHAR 4F59
ENCODING 20313
SWIDTH 520 0
DWIDTH 12 0
BBX 12 12 0 -2
BITMAP
0400
0a00
1100
2080
df60
0400
7fc0
1500
2480
4440
9c40
0000
ENDCHAR
STARTCHAR 4F5A
ENCODING 20314
SWIDTH 520 0
DWIDTH 12 0
BBX 12 12 0 -2
BITMAP
2100
2900
2fe0
6900
b100
3fe0
2100
2280
2480
2840
3020
0000
ENDCHAR
STARTCHAR 4F5B
ENCODING 20315
SWIDTH 520 0
DWIDTH 12 0
BBX 12 12 0 -2
BITMAP
2500
2500
5fc0
4540
dfc0
5500
5fe0
4520
4520
49c0
5100
0000
ENDCHAR
STARTCHAR 4F5C
ENCODING 20316
SWIDTH 520 0
DWIDTH 12 0
BBX 12 12 0 -2
BITMAP
1200
1200
27e0
6a00
b200
23c0
2200
2200
23e0
2200
2200
0000
ENDCHAR
STARTCHAR 4F5D
ENCODING 20317
SWIDTH 520 0
DWIDTH 12 0
BBX 12 12 0 -2
BITMAP
2400
2400
2fe0
2820
7f20
a920
2920
2920
2f20
2020
21c0
0000
ENDCHAR
STARTCHAR 4F5E
ENCODING 20318
SWIDTH 520 0
DWIDTH 12 0
BBX 12 12 0 -2
BITMAP
2fc0
2000
4000
5fe0
c200
5fe0
4480
4480
4700
4280
5c40
0000
ENDCHAR
STARTCHAR 4F5F
ENCODING 20319
SWIDTH 520 0
DWIDTH 12 0
BBX 12 12 0 -2
BITMAP
2400
2780
4880
4d00
d300
4480
4860
5300
4080
4600
4180
0000
ENDCHAR
STARTCHAR 4F60
ENCODING 20320
SWIDTH 520 0
DWIDTH 12 0
BBX 12 12 0 -2
BITMAP
1200
1400
27e0
6820
b100
2540
2540
2920
3120
2100
2700
0000
ENDCHAR
STARTCHAR 4F63
ENCODING 20323
SWIDTH 520 0
DWIDTH 12 0
BBX 12 12 0 -2
BITMAP
2fe0
2920
4920
4920
cfe0
4920
4fe0
4920
4920
5120
5160
0000
ENDCHAR
STARTCHAR 4F64
ENCODING 20324
SWIDTH 520 0
DWIDTH 12 0
BBX 12 12 0 -2
BITMAP
2fe0
2400
2400
6780
a480
2680
2580
2880
28a0
2ea0
28e0
0000
ENDCHAR
STARTCHAR 4F65
ENCODING 20325
SWIDTH 520 0
DWIDTH 12 0
BBX 12 12 0 -2
BITMAP
0400
0a00
1100
2080
df60
0000
2880
1480
1500
0100
ffe0
0000
ENDCHAR
STARTCHAR 4F67
ENCODING 20327
SWIDTH 520 0
DWIDTH 12 0
BBX 12 12 0 -2
BITMAP
2200
2200
23e0
4200
c200
5fe0
4200
4380
4240
4220
4200
0000
ENDCHAR
STARTCHAR 4F69
ENCODING 20329
SWIDTH 520 0
DWIDTH 12 0
BBX 12 12 0 -2
BITMAP
5fc0
5040
5fc0
5240
df40
5b40
5b40
5b40
6b60
6220
4220
0000
ENDCHAR
STARTCHAR 4F6C
ENCODING 20332
SWIDTH 520 0
DWIDTH 12 0
BBX 12 12 0 -2
BITMAP
2200
2240
2fc0
4280
dfe0
4200
4440
4c80
5720
4420
47e0
0000
ENDCHAR
STARTCHAR 4F6F
ENCODING 20335
SWIDTH 520 0
DWIDTH 12 0
BBX 12 12 0 -2
BITMAP
1440
2280
3fe0
6100
a100
2fc0
2100
3fe0
2100
2100
2100
0000
ENDCHAR
STARTCHAR 4F70
ENCODING 20336
SWIDTH 520 0
DWIDTH 12 0
BBX 12 12 0 -2
BITMAP
2040
3fe0
6200
4fc0
c840
4840
4fc0
4840
4840
4840
4fc0
0000
ENDCHAR
STARTCHAR 4F73
ENCODING 20339
SWIDTH 520 0
DWIDTH 12 0
BBX 12 12 0 -2
BITMAP
1100
2100
2fe0
6100
afe0
2100
2100
2fe0
2100
2100
3fe0
0000
ENDCHAR
STARTCHAR 4F74
ENCODING 20340
SWIDTH 520 0
DWIDTH 12 0
BBX 12 12 0 -2
BITMAP
2fe0
2440
4440
47c0
c440
47c0
4440
4440
7fe0
4040
4040
0000
ENDCHAR
STARTCHAR 4F76
ENCODING 20342
SWIDTH 520 0
DWIDTH 12 0
BBX 12 12 0 -2
BITMAP
2200
2200
5fe0
4200
5fe0
c000
4fc0
4840
4840
4840
4fc0
0000
ENDCHAR
STARTCHAR 4F7B
ENCODING 20347
SWIDTH 520 0
DWIDTH 12 0
BBX 12 12 0 -2
BITMAP
2500
2500
4540
5580
4d00
c580
4d40
5520
4500
4920
50e0
0000
ENDCHAR
STARTCHAR 4F7C
ENCODING 20348
SWIDTH 520 0
DWIDTH 12 0
BBX 12 12 0 -2
BITMAP
2200
2100
5fe0
4480
4840
d480
4480
4300
4200
4580
5860
0000
ENDCHAR
STARTCHAR 4F7E
ENCODING 20350
SWIDTH 520 0
DWIDTH 12 0
BBX 12 12 0 -2
BITMAP
2500
2480
4840
5fe0
e840
4fc0
4840
4840
4fc0
4840
48c0
0000
ENDCHAR
STARTCHAR 4F7F
ENCODING 20351
SWIDTH 520 0
DWIDTH 12 0
BBX 12 12 0 -2
BITMAP
1100
2fe0
2100
6fe0
a920
2920
2fe0
2500
2200
2500
38e0
0000
ENDCHAR
STARTCHAR 4F83
ENCODING 20355
SWIDTH 520 0
DWIDTH 12 0
BBX 12 12 0 -2
BITMAP
2fc0
2840
2840
4840
cfc0
4000
4a80
4a80
4aa0
4aa0
52e0
0000
ENDCHAR
STARTCHAR 4F84
ENCODING 20356
SWIDTH 520 0
DWIDTH 12 0
BBX 12 12 0 -2
BITMAP
2040
3fe0
4400
4880
dfc0
4200
4200
5fc0
4200
4200
7fe0
0000
ENDCHAR
STARTCHAR 4F88
ENCODING 20360
SWIDTH 520 0
DWIDTH 12 0
BBX 12 12 0 -2
BITMAP
1200
27c0
2840
5480
c300
4500
5be0
4440
5a80
4300
5c00
0000
ENDCHAR
STARTCHAR 4F89
ENCODING 20361
SWIDTH 520 0
DWIDTH 12 0
BBX 12 12 0 -2
BITMAP
2200
3fe0
4500
4880
d760
4000
5fc0
4400
47c0
4040
4380
0000
ENDCHAR
STARTCHAR 4F8B
ENCODING 20363
SWIDTH 520 0
DWIDTH 12 0
BBX 12 12 0 -2
BITMAP
2020
3f20
48a0
4ea0
caa0
52a0
6aa0
44a0
48a0
5020
60e0
0000
ENDCHAR
STARTCHAR 4F8D
ENCODING 20365
SWIDTH 520 0
DWIDTH 12 0
BBX 12 12 0 -2
BITMAP
1200
2fc0
2200
6200
bfe0
2080
3fe0
2880
2480
2080
2380
0000
ENDCHAR
STARTCHAR 4F8F
ENCODING 20367
SWIDTH 520 0
DWIDTH 12 0
BBX 12 12 0 -2
BITMAP
2100
2900
4fe0
4900
d100
5fe0
4300
4580
4940
5120
4100
0000
ENDCHAR
STARTCHAR 4F91
ENCODING 20369
SWIDTH 520 0
DWIDTH 12 0
BBX 12 12 0 -2
BITMAP
2200
3fe0
4200
47c0
cc40
57c0
6440
47c0
4440
4440
45c0
0000
ENDCHAR
STARTCHAR 4F94
ENCODING 20372
SWIDTH 520 0
DWIDTH 12 0
BBX 12 12 0 -2
BITMAP
2200
2480
4fc0
4040
c900
4fe0
5100
4100
5fe0
4100
4100
0000
ENDCHAR
STARTCHAR 4F97
ENCODING 20375
SWIDTH 520 0
DWIDTH 12 0
BBX 12 12 0 -2
BITMAP
2040
3fe0
5040
5fc0
d040
5740
5540
5740
5540
5040
50c0
0000
ENDCHAR
STARTCHAR 4F9B
ENCODING 20379
SWIDTH 520 0
DWIDTH 12 0
BBX 12 12 0 -2
BITMAP
2480
2480
3fe0
4480
c480
4480
5fe0
4000
4480
4840
5020
0000
ENDCHAR
STARTCHAR 4F9D
ENCODING 20381
SWIDTH 520 0
DWIDTH 12 0
BBX 12 12 0 -2
BITMAP
2200
2240
3fe0
4200
c540
4d80
5500
4480
4480
4640
4420
0000
ENDCHAR
STARTCHAR 4FA0
ENCODING 20384
SWIDTH 520 0
DWIDTH 12 0
BBX 12 12 0 -2
BITMAP
2200
2200
3fe0
4200
ca40
4680
5fe0
4300
4480
4840
5020
0000
ENDCHAR
STARTCHAR 4FA3
ENCODING 20387
SWIDTH 520 0
DWIDTH 12 0
BBX 12 12 0 -2
BITMAP
27c0
2440
6440
6440
a7c0
2000
2fe0
2820
2820
2fe0
2820
0000
ENDCHAR
STARTCHAR 4FA5
ENCODING 20389
SWIDTH 520 0
DWIDTH 12 0
BBX 12 12 0 -2
BITMAP
2400
24e0
3f40
4280
c720
58e0
4000
5fc0
4500
4920
71e0
0000
ENDCHAR
STARTCHAR 4FA6
ENCODING 20390
SWIDTH 520 0
DWIDTH 12 0
BBX 12 12 0 -2
BITMAP
2200
23e0
2200
4fc0
c840
4a40
4a40
4a40
4a40
4480
5860
0000
ENDCHAR
STARTCHAR 4FA7
ENCODING 20391
SWIDTH 520 0
DWIDTH 12 0
BBX 12 12 0 -2
BITMAP
2020
3e20
52a0
56a0
d6a0
56a0
56a0
56a0
4ca0
5220
6160
0000
ENDCHAR
STARTCHAR 4FA8
ENCODING 20392
SWIDTH 520 0
DWIDTH 12 0
BBX 12 12 0 -2
BITMAP
20c0
2f00
2200
3fe0
4500
c880
54e0
4480
4480
4880
5080
0000
ENDCHAR
STARTCHAR 4FA9
ENCODING 20393
SWIDTH 520 0
DWIDTH 12 0
BBX 12 12 0 -2
BITMAP
2200
2300
4480
4840
d7a0
4000
5fe0
4200
4480
4840
4fc0
0000
ENDCHAR
STARTCHAR 4FAA
ENCODING 20394
SWIDTH 520 0
DWIDTH 12 0
BBX 12 12 0 -2
BITMAP
2200
3fe0
4880
4500
4300
ccc0
54a0
4480
4480
4880
5080
0000
ENDCHAR
STARTCHAR 4FAC
ENCODING 20396
SWIDTH 520 0
DWIDTH 12 0
BBX 12 12 0 -2
BITMAP
2200
2200
5fe0
5220
c500
4540
4c80
5480
6440
4540
4620
0000
ENDCHAR
STARTCHAR 4FAE
ENCODING 20398
SWIDTH 520 0
DWIDTH 12 0
BBX 12 12 0 -2
BITMAP
2400
2fe0
5000
4fc0
c840
4940
5fe0
4940
4840
5fe0
4080
0000
ENDCHAR
STARTCHAR 4FAF
ENCODING 20399
SWIDTH 520 0
DWIDTH 12 0
BBX 12 12 0 -2
BITMAP
2f80
2080
5fe0
4800
cfc0
5200
4200
5fe0
4300
4480
5860
0000
ENDCHAR
STARTCHAR 4FB5
ENCODING 20405
SWIDTH 520 0
DWIDTH 12 0
BBX 12 12 0 -2
BITMAP
2fc0
2040
4fc0
4040
dfe0
5020
4f80
4480
4500
4300
5ce0
0000
ENDCHAR
STARTCHAR 4FBF
ENCODING 20415
SWIDTH 520 0
DWIDTH 12 0
BBX 12 12 0 -2
BITMAP
3fe0
2100
4fc0
4940
cfc0
4940
4fc0
4100
4900
4600
59e0
0000
ENDCHAR
STARTCHAR 4FC3
ENCODING 20419
SWIDTH 520 0
DWIDTH 12 0
BBX 12 12 0 -2
BITMAP
2fc0
2840
4840
4840
cfc0
4100
49e0
4900
4900
5500
63e0
0000
ENDCHAR
STARTCHAR 4FC4
ENCODING 20420
SWIDTH 520 0
DWIDTH 12 0
BBX 12 12 0 -2
BITMAP
2300
2d40
4520
5fe0
c500
4720
4d40
5480
44a0
4560
5c20
0000
ENDCHAR
STARTCHAR 4FC5
ENCODING 20421
SWIDTH 520 0
DWIDTH 12 0
BBX 12 12 0 -2
BITMAP
2280
2240
5fe0
4200
d220
4b40
4680
4a80
5240
6220
4e00
0000
ENDCHAR
STARTCHAR 4FCA
ENCODING 20426
SWIDTH 520 0
DWIDTH 12 0
BBX 12 12 0 -2
BITMAP
2200
2440
4fe0
4480
c840
5420
4780
4880
5500
4300
5ce0
0000
ENDCHAR
STARTCHAR 4FCE
ENCODING 20430
SWIDTH 520 0
DWIDTH 12 0
BBX 12 12 0 -2
BITMAP
27c0
2440
2440
57c0
8c40
2440
27c0
2440
5440
4440
9fe0
0000
ENDCHAR
STARTCHAR 4FCF
ENCODING 20431
SWIDTH 520 0
DWIDTH 12 0
BBX 12 12 0 -2
BITMAP
2100
2940
2580
4fc0
c840
4fc0
4840
4fc0
4840
4840
49c0
0000
ENDCHAR
STARTCHAR 4FD0
ENCODING 20432
SWIDTH 520 0
DWIDTH 12 0
BBX 12 12 0 -2
BITMAP
2220
3c20
44a0
5ea0
c4a0
44a0
4ea0
54a0
6420
4420
44e0
0000
ENDCHAR
STARTCHAR 4FD1
ENCODING 20433
SWIDTH 520 0
DWIDTH 12 0
BBX 12 12 0 -2
BITMAP
2fc0
2280
2100
4fe0
c920
4fe0
4920
4fe0
4920
4920
4960
0000
ENDCHAR
STARTCHAR 4FD7
ENCODING 20439
SWIDTH 520 0
DWIDTH 12 0
BBX 12 12 0 -2
BITMAP
2480
2440
4a20
5300
c480
4840
57e0
4440
4440
4440
47c0
0000
ENDCHAR
STARTCHAR 4FD8
ENCODING 20440
SWIDTH 520 0
DWIDTH 12 0
BBX 12 12 0 -2
BITMAP
21c0
3e40
4940
4480
cfc0
4080
4100
5fe0
4100
4100
4700
0000
ENDCHAR
STARTCHAR 4FDA
ENCODING 20442
SWIDTH 520 0
DWIDTH 12 0
BBX 12 12 0 -2
BITMAP
2fe0
2920
4920
4fe0
4920
cfe0
4100
4100
4fc0
4100
5fe0
0000
ENDCHAR
STARTCHAR 4FDC
ENCODING 20444
SWIDTH 520 0
DWIDTH 12 0
BBX 12 12 0 -2
BITMAP
2100
2fc0
4940
4fc0
c940
4fc0
5fe0
4400
47c0
4040
4380
0000
ENDCHAR
STARTCHAR 4FDD
ENCODING 20445
SWIDTH 520 0
DWIDTH 12 0
BBX 12 12 0 -2
BITMAP
2fc0
2840
4840
4fc0
c940
4100
5fe0
4300
4580
4940
5120
0000
ENDCHAR
STARTCHAR 4FDE
ENCODING 20446
SWIDTH 520 0
DWIDTH 12 0
BBX 12 12 0 -2
BITMAP
0400
0a00
3180
df60
0000
7940
4940
7940
4940
7840
48c0
0000
ENDCHAR
STARTCHAR 4FDF
ENCODING 20447
SWIDTH 520 0
DWIDTH 12 0
BBX 12 12 0 -2
BITMAP
2200
2440
2fe0
2020
6400
afc0
2900
3fe0
2280
2440
3820
0000
ENDCHAR
STARTCHAR 4FE1
ENCODING 20449
SWIDTH 520 0
DWIDTH 12 0
BBX 12 12 0 -2
BITMAP
2100
3fe0
2000
4fc0
4000
cfc0
4000
4fc0
4840
4fc0
4840
0000
ENDCHAR
STARTCHAR 4FE3
ENCODING 20451
SWIDTH 520 0
DWIDTH 12 0
BBX 12 12 0 -2
BITMAP
2fc0
2840
4840
4fc0
c000
4fe0
4100
5fe0
4280
4440
5820
0000
ENDCHAR
STARTCHAR 4FE6
ENCODING 20454
SWIDTH 520 0
DWIDTH 12 0
BBX 12 12 0 -2
BITMAP
2200
3fe0
2200
6fc0
6200
bfe0
2480
2fe0
3480
2280
2180
0000
ENDCHAR
STARTCHAR 4FE8
ENCODING 20456
SWIDTH 520 0
DWIDTH 12 0
BBX 12 12 0 -2
BITMAP
2fe0
2280
4aa0
46c0
c280
4fe0
4800
4800
4800
4800
5000
0000
ENDCHAR
STARTCHAR 4FE9
ENCODING 20457
SWIDTH 520 0
DWIDTH 12 0
BBX 12 12 0 -2
BITMAP
2040
3fe0
4480
5fe0
d4a0
54a0
57a0
5960
5220
5020
50e0
0000
ENDCHAR
STARTCHAR 4FEA
ENCODING 20458
SWIDTH 520 0
DWIDTH 12 0
BBX 12 12 0 -2
BITMAP
2000
3fe0
4000
5de0
5520
d5a0
5d60
5520
5520
5520
5560
0000
ENDCHAR
STARTCHAR 4FED
ENCODING 20461
SWIDTH 520 0
DWIDTH 12 0
BBX 12 12 0 -2
BITMAP
1200
1300
2480
2840
77a0
a000
2a40
2540
2480
2080
3fe0
0000
ENDCHAR
STARTCHAR 4FEE
ENCODING 20462
SWIDTH 520 0
DWIDTH 12 0
BBX 12 12 0 -2
BITMAP
2200
23c0
5680
5900
d280
5d60
5280
5500
5240
4180
4e00
0000
ENDCHAR
STARTCHAR 4FEF
ENCODING 20463
SWIDTH 520 0
DWIDTH 12 0
BBX 12 12 0 -2
BITMAP
2100
2fe0
2a40
4a40
4be0
ce40
4b40
4ac0
5240
5240
62c0
0000
ENDCHAR
STARTCHAR 4FF1
ENCODING 20465
SWIDTH 520 0
DWIDTH 12 0
BBX 12 12 0 -2
BITMAP
2fc0
2840
4840
4fc0
c840
4fc0
4840
7fe0
4480
4840
5020
0000
ENDCHAR
STARTCHAR 4FF3
ENCODING 20467
SWIDTH 520 0
DWIDTH 12 0
BBX 12 12 0 -2
BITMAP
2500
2500
5de0
4500
4500
dde0
4500
4500
5de0
4500
4500
0000
ENDCHAR
STARTCHAR 4FF8
ENCODING 20472
SWIDTH 520 0
DWIDTH 12 0
BBX 12 12 0 -2
BITMAP
2200
3fe0
4200
5fc0
4480
dfe0
4a40
57a0
4200
5fc0
4200
0000
ENDCHAR
STARTCHAR 4FFA
ENCODING 20474
SWIDTH 520 0
DWIDTH 12 0
BBX 12 12 0 -2
BITMAP
2200
3fe0
4500
4a80
cfc0
5aa0
6f80
4a80
4fa0
4220
43e0
0000
ENDCHAR
STARTCHAR 4FFE
ENCODING 20478
SWIDTH 520 0
DWIDTH 12 0
BBX 12 12 0 -2
BITMAP
2200
2fc0
4940
4fc0
c940
4fc0
4200
4500
5fe0
4100
4100
0000
ENDCHAR
STARTCHAR 500C
ENCODING 20492
SWIDTH 520 0
DWIDTH 12 0
BBX 12 12 0 -2
BITMAP
2100
2fe0
2820
47c0
c440
47c0
4400
47c0
4440
4440
47c0
0000
ENDCHAR
STARTCHAR 500D
ENCODING 20493
SWIDTH 520 0
DWIDTH 12 0
BBX 12 12 0 -2
BITMAP
2200
3fe0
4880
4480
c500
5fe0
4000
4fc0
4840
4840
4fc0
0000
ENDCHAR
STARTCHAR 500F
ENCODING 20495
SWIDTH 520 0
DWIDTH 12 0
BBX 12 12 0 -2
BITMAP
2200
23c0
5640
5980
5260
dd00
5140
5fe0
5280
4440
5820
0000
ENDCHAR
STARTCHAR 5012
ENCODING 20498
SWIDTH 520 0
DWIDTH 12 0
BBX 12 12 0 -2
BITMAP
2020
3f20
48a0
52a0
dfa0
44a0
44a0
5fa0
44a0
4720
58e0
0000
ENDCHAR
STARTCHAR 5014
ENCODING 20500
SWIDTH 520 0
DWIDTH 12 0
BBX 12 12 0 -2
BITMAP
2fe0
2820
4fe0
4900
cd20
4d20
4fe0
4900
5520
5520
67e0
0000
ENDCHAR
STARTCHAR 5018
ENCODING 20504
SWIDTH 520 0
DWIDTH 12 0
BBX 12 12 0 -2
BITMAP
2100
2920
2540
4100
4fe0
c820
4ba0
4aa0
4ba0
4820
48e0
0000
ENDCHAR
STARTCHAR 5019
ENCODING 20505
SWIDTH 520 0
DWIDTH 12 0
BBX 12 12 0 -2
BITMAP
2780
2080
57e0
5200
d7c0
5500
5100
5fe0
5280
4440
4820
0000
ENDCHAR
STARTCHAR 501A
ENCODING 20506
SWIDTH 520 0
DWIDTH 12 0
BBX 12 12 0 -2
BITMAP
2200
2fe0
2200
4500
c880
7fe0
4040
4f40
4940
4f40
40c0
0000
ENDCHAR
STARTCHAR 501C
ENCODING 20508
SWIDTH 520 0
DWIDTH 12 0
BBX 12 12 0 -2
BITMAP
2fe0
2920
4ba0
4920
4fe0
c820
4ba0
4aa0
4ba0
5020
50e0
0000
ENDCHAR
STARTCHAR 501F
ENCODING 20511
SWIDTH 520 0
DWIDTH 12 0
BBX 12 12 0 -2
BITMAP
2480
2480
3fe0
4480
dfe0
4000
4fc0
4840
4fc0
4840
4fc0
0000
ENDCHAR
STARTCHAR 5021
ENCODING 20513
SWIDTH 520 0
DWIDTH 12 0
BBX 12 12 0 -2
BITMAP
17c0
1440
27c0
6440
a7c0
2000
2fe0
2820
2fe0
2820
2fe0
0000
ENDCHAR
STARTCHAR 5025
ENCODING 20517
SWIDTH 520 0
DWIDTH 12 0
BBX 12 12 0 -2
BITMAP
2100
2fe0
2820
2280
6440
a820
27c0
2100
2100
2100
2fe0
0000
ENDCHAR
STARTCHAR 5026
ENCODING 20518
SWIDTH 520 0
DWIDTH 12 0
BBX 12 12 0 -2
BITMAP
2a40
2a80
5fe0
4200
dfe0
4480
4fc0
54a0
4580
4440
47c0
0000
ENDCHAR
STARTCHAR 5028
ENCODING 20520
SWIDTH 520 0
DWIDTH 12 0
BBX 12 12 0 -2
BITMAP
2fe0
2820
4fe0
4900
4900
cfe0
4900
4fe0
5420
5420
67e0
0000
ENDCHAR
STARTCHAR 5029
ENCODING 20521
SWIDTH 520 0
DWIDTH 12 0
BBX 12 12 0 -2
BITMAP
2200
3fe0
4200
4fc0
c200
5fe0
4840
4fc0
4840
4fc0
4840
0000
ENDCHAR
STARTCHAR 502A
ENCODING 20522
SWIDTH 520 0
DWIDTH 12 0
BBX 12 12 0 -2
BITMAP
2600
28e0
4820
4ee0
c820
4fe0
4280
4280
42a0
44a0
58e0
0000
ENDCHAR
STARTCHAR 502C
ENCODING 20524
SWIDTH 520 0
DWIDTH 12 0
BBX 12 12 0 -2
BITMAP
2200
23e0
4200
4fc0
4840
cfc0
4840
4fc0
4200
5fe0
4200
0000
ENDCHAR
STARTCHAR 502D
ENCODING 20525
SWIDTH 520 0
DWIDTH 12 0
BBX 12 12 0 -2
BITMAP
2fc0
2200
5fe0
4680
ca40
5020
4200
5fe0
4480
4300
5cc0
0000
ENDCHAR
STARTCHAR 502E
ENCODING 20526
SWIDTH 520 0
DWIDTH 12 0
BBX 12 12 0 -2
BITMAP
2fc0
2a40
4fc0
4a40
cfc0
4200
5fe0
4700
4a80
5240
6220
0000
ENDCHAR
STARTCHAR 503A
ENCODING 20538
SWIDTH 520 0
DWIDTH 12 0
BBX 12 12 0 -2
BITMAP
2100
3fe0
2100
5fe0
c000
4fc0
4940
4940
4940
4280
5c60
0000
ENDCHAR
STARTCHAR 503C
ENCODING 20540
SWIDTH 520 0
DWIDTH 12 0
BBX 12 12 0 -2
BITMAP
2200
3fe0
2200
4fc0
4840
c840
4fc0
4840
4fc0
4840
5fe0
0000
ENDCHAR
STARTCHAR 503E
ENCODING 20542
SWIDTH 520 0
DWIDTH 12 0
BBX 12 12 0 -2
BITMAP
27e0
3100
53e0
5220
dea0
52a0
56a0
5aa0
5100
4240
4c20
0000
ENDCHAR
STARTCHAR 5043
ENCODING 20547
SWIDTH 520 0
DWIDTH 12 0
BBX 12 12 0 -2
BITMAP
2fe0
2800
4bc0
4a40
cbc0
4a40
4fe0
4a80
4980
4a40
4fe0
0000
ENDCHAR
STARTCHAR 5047
ENCODING 20551
SWIDTH 520 0
DWIDTH 12 0
BBX 12 12 0 -2
BITMAP
5ee0
5220
5220
5ee0
d000
5de0
5140
5f40
5080
5140
5220
0000
ENDCHAR
STARTCHAR 5048
ENCODING 20552
SWIDTH 520 0
DWIDTH 12 0
BBX 12 12 0 -2
BITMAP
27c0
2440
27c0
4440
47c0
c400
4fe0
5920
4aa0
4fa0
4060
0000
ENDCHAR
STARTCHAR 504C
ENCODING 20556
SWIDTH 520 0
DWIDTH 12 0
BBX 12 12 0 -2
BITMAP
2480
2fe0
2480
4200
c200
5fe0
4400
4fc0
5440
4440
47c0
0000
ENDCHAR
STARTCHAR 504E
ENCODING 20558
SWIDTH 520 0
DWIDTH 12 0
BBX 12 12 0 -2
BITMAP
2fc0
2940
4fc0
4940
cfc0
4000
5fe0
4a40
4980
4a80
4c60
0000
ENDCHAR
STARTCHAR 504F
ENCODING 20559
SWIDTH 520 0
DWIDTH 12 0
BBX 12 12 0 -2
BITMAP
2100
2fe0
4820
4fe0
c800
4fe0
4aa0
4fe0
5aa0
6aa0
4860
0000
ENDCHAR
STARTCHAR 5055
ENCODING 20565
SWIDTH 520 0
DWIDTH 12 0
BBX 12 12 0 -2
BITMAP
2880
28a0
2ec0
48a0
4ee0
c200
4fc0
4840
4fc0
4840
4fc0
0000
ENDCHAR
STARTCHAR 505A
ENCODING 20570
SWIDTH 520 0
DWIDTH 12 0
BBX 12 12 0 -2
BITMAP
2880
2880
3fe0
4940
4940
dd40
5540
5480
5480
5d40
4220
0000
ENDCHAR
STARTCHAR 505C
ENCODING 20572
SWIDTH 520 0
DWIDTH 12 0
BBX 12 12 0 -2
BITMAP
2200
3fe0
4000
4fc0
c840
5fe0
5020
4fc0
4100
4100
4700
0000
ENDCHAR
STARTCHAR 5065
ENCODING 20581
SWIDTH 520 0
DWIDTH 12 0
BBX 12 12 0 -2
BITMAP
2100
3bc0
4940
53e0
dd40
47c0
6500
57e0
4900
4d00
53e0
0000
ENDCHAR
STARTCHAR 506C
ENCODING 20588
SWIDTH 520 0
DWIDTH 12 0
BBX 12 12 0 -2
BITMAP
2400
27e0
4aa0
56a0
4520
caa0
54c0
4200
5520
54a0
4780
0000
ENDCHAR
STARTCHAR 5076
ENCODING 20598
SWIDTH 520 0
DWIDTH 12 0
BBX 12 12 0 -2
BITMAP
2fc0
2940
4fc0
4940
cfc0
4100
5fe0
5120
57a0
5020
50e0
0000
ENDCHAR
STARTCHAR 5077
ENCODING 20599
SWIDTH 520 0
DWIDTH 12 0
BBX 12 12 0 -2
BITMAP
2200
2500
2880
5760
6000
dd40
5540
5d40
5540
5d40
54c0
0000
ENDCHAR
STARTCHAR 507B
ENCODING 20603
SWIDTH 520 0
DWIDTH 12 0
BBX 12 12 0 -2
BITMAP
2940
2580
5fe0
4580
4940
d120
4200
5fe0
4480
4300
5cc0
0000
ENDCHAR
STARTCHAR 507E
ENCODING 20606
SWIDTH 520 0
DWIDTH 12 0
BBX 12 12 0 -2
BITMAP
2200
3fe0
4a80
5fe0
c880
4fc0
4840
4a40
4a40
44c0
5820
0000
ENDCHAR
STARTCHAR 507F
ENCODING 20607
SWIDTH 520 0
DWIDTH 12 0
BBX 12 12 0 -2
BITMAP
2200
2a40
4680
5fe0
d020
4fc0
4000
5fe0
4480
4840
4fc0
0000
ENDCHAR
STARTCHAR 5080
ENCODING 20608
SWIDTH 520 0
DWIDTH 12 0
BBX 12 12 0 -2
BITMAP
2200
2fc0
2a40
4fc0
4a40
cfc0
4a00
4340
45c0
4920
51e0
0000
ENDCHAR
STARTCHAR 5085
ENCODING 20613
SWIDTH 520 0
DWIDTH 12 0
BBX 12 12 0 -2
BITMAP
2280
3fe0
4a40
4fc0
ca40
4fc0
4a40
4080
5fe0
4480
4180
0000
ENDCHAR
STARTCHAR 5088
ENCODING 20616
SWIDTH 520 0
DWIDTH 12 0
BBX 12 12 0 -2
BITMAP
5fe0
4500
5fc0
d540
5fc0
4200
7fe0
4700
4a80
5240
6220
0000
ENDCHAR
STARTCHAR 508D
ENCODING 20621
SWIDTH 520 0
DWIDTH 12 0
BBX 12 12 0 -2
BITMAP
2200
3fe0
4880
4500
dfe0
5220
5fe0
4400
47c0
4440
5980
0000
ENDCHAR
STARTCHAR 50A3
ENCODING 20643
SWIDTH 520 0
DWIDTH 12 0
BBX 12 12 0 -2
BITMAP
2200
3fe0
4200
5fc0
c400
5fe0
4a40
7aa0
4700
4a80
5640
0000
ENDCHAR
STARTCHAR 50A5
ENCODING 20645
SWIDTH 520 0
DWIDTH 12 0
BBX 12 12 0 -2
BITMAP
2a40
2680
5fe0
5020
4f80
c880
4880
4f80
4520
4520
59e0
0000
ENDCHAR
STARTCHAR 50A7
ENCODING 20647
SWIDTH 520 0
DWIDTH 12 0
BBX 12 12 0 -2
BITMAP
2200
3fe0
5020
4780
c400
47e0
4480
4480
5fe0
4480
5860
0000
ENDCHAR
STARTCHAR 50A8
ENCODING 20648
SWIDTH 520 0
DWIDTH 12 0
BBX 12 12 0 -2
BITMAP
2100
3120
57c0
4140
f7e0
5100
53c0
5640
53c0
5a40
43c0
0000
ENDCHAR
STARTCHAR 50A9
ENCODING 20649
SWIDTH 520 0
DWIDTH 12 0
BBX 12 12 0 -2
BITMAP
2180
2140
5be0
4e80
6be0
da80
4a80
57e0
6280
4280
43e0
0000
ENDCHAR
STARTCHAR 50AC
ENCODING 20652
SWIDTH 520 0
DWIDTH 12 0
BBX 12 12 0 -2
BITMAP
2920
2920
2fe0
4500
4fe0
c900
5fc0
6900
4fc0
4900
4fe0
0000
ENDCHAR
STARTCHAR 50B2
ENCODING 20658
SWIDTH 520 0
DWIDTH 12 0
BBX 12 12 0 -2
BITMAP
2880
3e80
4900
5de0
c940
7f40
5140
5c80
5480
5540
6a20
0000
ENDCHAR
STARTCHAR 50BA
ENCODING 20666
SWIDTH 520 0
DWIDTH 12 0
BBX 12 12 0 -2
BITMAP
2900
2fe0
4b40
5480
c840
57a0
4000
5fe0
4580
4940
5720
0000
ENDCHAR
STARTCHAR 50BB
ENCODING 20667
SWIDTH 520 0
DWIDTH 12 0
BBX 12 12 0 -2
BITMAP
2200
2fc0
4a40
4d40
cfc0
4440
4ba0
5480
4a80
4300
5ce0
0000
ENDCHAR
STARTCHAR 50CF
ENCODING 20687
SWIDTH 520 0
DWIDTH 12 0
BBX 12 12 0 -2
BITMAP
2780
2900
3fc0
4a40
cfc0
4440
5a80
4580
5b40
4520
5b00
0000
ENDCHAR
STARTCHAR 50D6
ENCODING 20694
SWIDTH 520 0
DWIDTH 12 0
BBX 12 12 0 -2
BITMAP
2200
3fe0
4200
4fc0
c840
4fc0
4480
5fe0
4fc0
4840
4fc0
0000
ENDCHAR
STARTCHAR 50DA
ENCODING 20698
SWIDTH 520 0
DWIDTH 12 0
BBX 12 12 0 -2
BITMAP
2200
3fe0
5540
4f80
c8c0
5fa0
4880
4f80
4a80
5240
6620
0000
ENDCHAR
STARTCHAR 50E6
ENCODING 20710
SWIDTH 520 0
DWIDTH 12 0
BBX 12 12 0 -2
BITMAP
2880
28a0
5ea0
41e0
dec0
52c0
5ec0
48c0
5d40
6940
5a60
0000
ENDCHAR
STARTCHAR 50E7
ENCODING 20711
SWIDTH 520 0
DWIDTH 12 0
BBX 12 12 0 -2
BITMAP
2880
2500
5fc0
5240
d740
5240
5fc0
4880
4f80
4880
4f80
0000
ENDCHAR
STARTCHAR 50EC
ENCODING 20716
SWIDTH 520 0
DWIDTH 12 0
BBX 12 12 0 -2
BITMAP
2900
2fe0
4900
5fe0
c900
4fe0
4900
4fe0
4000
5540
62a0
0000
ENDCHAR
STARTCHAR 50ED
ENCODING 20717
SWIDTH 520 0
DWIDTH 12 0
BBX 12 12 0 -2
BITMAP
5de0
4a80
5fe0
cc80
5540
6260
4fc0
4840
4fc0
4840
4fc0
0000
ENDCHAR
STARTCHAR 50EE
ENCODING 20718
SWIDTH 520 0
DWIDTH 12 0
BBX 12 12 0 -2
BITMAP
2200
2fc0
4480
5fe0
cfc0
4a40
4fc0
4a40
4fc0
4200
5fe0
0000
ENDCHAR
STARTCHAR 50F3
ENCODING 20723
SWIDTH 520 0
DWIDTH 12 0
BBX 12 12 0 -2
BITMAP
3fe0
2500
5fc0
5540
dfc0
5240
4a80
5fe0
4680
4a40
7220
0000
ENDCHAR
STARTCHAR 50F5
ENCODING 20725
SWIDTH 520 0
DWIDTH 12 0
BBX 12 12 0 -2
BITMAP
3fe0
2a40
4fc0
4a40
cfc0
4000
5fe0
4a40
4fc0
4a40
7fe0
0000
ENDCHAR
STARTCHAR 50FB
ENCODING 20731
SWIDTH 520 0
DWIDTH 12 0
BBX 12 12 0 -2
BITMAP
2080
3fe0
5540
5540
dc80
53e0
5c80
77e0
5480
5c80
4080
0000
ENDCHAR
STARTCHAR 5106
ENCODING 20742
SWIDTH 520 0
DWIDTH 12 0
BBX 12 12 0 -2
BITMAP
5480
7e80
54e0
5140
df40
6340
7ac0
6a80
7a80
4340
4d20
0000
ENDCHAR
STARTCHAR 5107
ENCODING 20743
SWIDTH 520 0
DWIDTH 12 0
BBX 12 12 0 -2
BITMAP
2fe0
2aa0
4fe0
4000
dfe0
4840
4fc0
4220
4540
5c80
4660
0000
ENDCHAR
STARTCHAR 510B
ENCODING 20747
SWIDTH 520 0
DWIDTH 12 0
BBX 12 12 0 -2
BITMAP
2780
2480
4fe0
5a40
4fe0
c800
4fc0
4800
57c0
5440
67c0
0000
ENDCHAR
STARTCHAR 5112
ENCODING 20754
SWIDTH 520 0
DWIDTH 12 0
BBX 12 12 0 -2
BITMAP
2fc0
2100
5fe0
55a0
c100
5fe0
4200
4fe0
4aa0
4aa0
4860
0000
ENDCHAR
STARTCHAR 5121
ENCODING 20769
SWIDTH 520 0
DWIDTH 12 0
BBX 12 12 0 -2
BITMAP
2fc0
2a40
4fc0
4a40
cfc0
4000
5fe0
52a0
5fe0
52a0
5fe0
0000
ENDCHAR
STARTCHAR 513F
ENCODING 20799
SWIDTH 520 0
DWIDTH 12 0
BBX 12 12 0 -2
BITMAP
1100
1100
1100
1100
1100
1100
1100
2120
2120
4120
81e0
0000
ENDCHAR
STARTCHAR 5140
ENCODING 20800
SWIDTH 520 0
DWIDTH 12 0
BBX 12 12 0 -2
BITMAP
0040
ffe0
1200
1200
1200
1200
1200
2220
2220
4220
83e0
0000
ENDCHAR
STARTCHAR 5141
ENCODING 20801
SWIDTH 520 0
DWIDTH 12 0
BBX 12 12 0 -2
BITMAP
0800
0900
1080
27c0
7a40
1200
1200
1200
1220
2220
c3e0
0000
ENDCHAR
STARTCHAR 5143
ENCODING 20803
SWIDTH 520 0
DWIDTH 12 0
BBX 12 12 0 -2
BITMAP
0080
7fc0
0000
0000
ffe0
1200
1200
1200
1220
2220
c3e0
0000
ENDCHAR
STARTCHAR 5144
ENCODING 20804
SWIDTH 520 0
DWIDTH 12 0
BBX 12 12 0 -2
BITMAP
3f80
2080
2080
2080
3f80
0a00
0a00
1200
1220
2220
c3e0
0000
ENDCHAR
STARTCHAR 5145
ENCODING 20805
SWIDTH 520 0
DWIDTH 12 0
BBX 12 12 0 -2
BITMAP
0400
ffe0
0800
1100
2080
7fc0
1240
1200
1220
2220
c3e0
0000
ENDCHAR
STARTCHAR 5146
ENCODING 20806
SWIDTH 520 0
DWIDTH 12 0
BBX 12 12 0 -2
BITMAP
0a00
0a00
4a40
2a80
0b00
3a80
ca40
0a00
1220
2220
c3e0
0000
ENDCHAR
STARTCHAR 5148
ENCODING 20808
SWIDTH 520 0
DWIDTH 12 0
BBX 12 12 0 -2
BITMAP
0400
2400
3fc0
4400
4400
ffe0
1200
1200
1220
2220
c1e0
0000
ENDCHAR
STARTCHAR 5149
ENCODING 20809
SWIDTH 520 0
DWIDTH 12 0
BBX 12 12 0 -2
BITMAP
0400
4440
2480
1500
ffe0
1200
1200
1200
1220
2220
c1e0
0000
ENDCHAR
STARTCHAR 514B
ENCODING 20811
SWIDTH 520 0
DWIDTH 12 0
BBX 12 12 0 -2
BITMAP
0400
ffe0
0400
3f80
2080
2080
3f80
0a00
0a20
1220
e3e0
0000
ENDCHAR
STARTCHAR 514D
ENCODING 20813
SWIDTH 520 0
DWIDTH 12 0
BBX 12 12 0 -2
BITMAP
1000
1f00
2200
7fc0
a440
2440
3fc0
0600
0a20
1220
e3e0
0000
ENDCHAR
STARTCHAR 5151
ENCODING 20817
SWIDTH 520 0
DWIDTH 12 0
BBX 12 12 0 -2
BITMAP
1100
0a00
3f80
2080
2080
2080
3f80
0a00
0a20
1220
e3e0
0000
ENDCHAR
STARTCHAR 5154
ENCODING 20820
SWIDTH 520 0
DWIDTH 12 0
BBX 12 12 0 -2
BITMAP
1000
1f00
2200
7fc0
a440
2440
3fc0
0a80
0aa0
1220
e3e0
0000
ENDCHAR
STARTCHAR 5155
ENCODING 20821
SWIDTH 520 0
DWIDTH 12 0
BBX 12 12 0 -2
BITMAP
7bc0
4a40
4a40
4e40
4040
7fc0
1200
1200
1220
2220
c3e0
0000
ENDCHAR
STARTCHAR 5156
ENCODING 20822
SWIDTH 520 0
DWIDTH 12 0
BBX 12 12 0 -2
BITMAP
0400
ffe0
1100
2480
c840
1100
3f80
1200
1220
2220
c3e0
0000
ENDCHAR
STARTCHAR 515A
ENCODING 20826
SWIDTH 520 0
DWIDTH 12 0
BBX 12 12 0 -2
BITMAP
2480
1500
7fe0
4020
9fc0
1080
1080
1f80
0a20
1220
e3e0
0000
ENDCHAR
STARTCHAR 515C
ENCODING 20828
SWIDTH 520 0
DWIDTH 12 0
BBX 12 12 0 -2
BITMAP
0400
6ec0
4a40
4e40
4a40
6ec0
4000
0a00
0a20
1220
e3e0
0000
ENDCHAR
STARTCHAR 5162
ENCODING 20834
SWIDTH 520 0
DWIDTH 12 0
BBX 12 12 0 -2
BITMAP
2080
fbe0
2080
fbc0
8a40
8a40
fbc0
5280
5aa0
54a0
88e0
0000
ENDCHAR
STARTCHAR 5165
ENCODING 20837
SWIDTH 520 0
DWIDTH 12 0
BBX 12 12 0 -2
BITMAP
1800
0400
0400
0400
0a00
0a00
1100
1100
2080
4040
8020
0000
ENDCHAR
STARTCHAR 5168
ENCODING 20840
SWIDTH 520 0
DWIDTH 12 0
BBX 12 12 0 -2
BITMAP
0400
0a00
1100
2080
df60
0400
0400
3f80
0400
0400
ffe0
0000
ENDCHAR
STARTCHAR 516B
ENCODING 20843
SWIDTH 520 0
DWIDTH 12 0
BBX 12 12 0 -2
BITMAP
0200
1200
1200
1200
1200
1100
1100
2080
2080
4040
8020
0000
ENDCHAR
STARTCHAR 516C
ENCODING 20844
SWIDTH 520 0
DWIDTH 12 0
BBX 12 12 0 -2
BITMAP
1200
1200
1100
2100
4480
8460
0800
0a00
1100
2380
7c80
0000
ENDCHAR
STARTCHAR 516D
ENCODING 20845
SWIDTH 520 0
DWIDTH 12 0
BBX 12 12 0 -2
BITMAP
0800
0400
0400
ffe0
0000
1200
1100
2080
2080
4040
8040
0000
ENDCHAR
STARTCHAR 516E
ENCODING 20846
SWIDTH 520 0
DWIDTH 12 0
BBX 12 12 0 -2
BITMAP
0a00
0a00
1100
2080
7fc0
8820
1f80
0080
0080
0100
0e00
0000
ENDCHAR
STARTCHAR 5170
ENCODING 20848
SWIDTH 520 0
DWIDTH 12 0
BBX 12 12 0 -2
BITMAP
2080
1100
0a00
7fc0
0000
0000
3f80
0000
0000
0000
ffe0
0000
ENDCHAR
STARTCHAR 5171
ENCODING 20849
SWIDTH 520 0
DWIDTH 12 0
BBX 12 12 0 -2
BITMAP
1100
1100
ffe0
1100
1100
1100
ffe0
0000
1180
2040
c020
0000
ENDCHAR
STARTCHAR 5173
ENCODING 20851
SWIDTH 520 0
DWIDTH 12 0
BBX 12 12 0 -2
BITMAP
1080
0900
7fc0
0400
0400
0400
ffe0
0a00
1100
2080
c060
0000
ENDCHAR
STARTCHAR 5174
ENCODING 20852
SWIDTH 520 0
DWIDTH 12 0
BBX 12 12 0 -2
BITMAP
1040
4840
2480
1480
1500
0100
ffe0
1100
2080
4040
8040
0000
ENDCHAR
STARTCHAR 5175
ENCODING 20853
SWIDTH 520 0
DWIDTH 12 0
BBX 12 12 0 -2
BITMAP
0380
3c00
2000
3fc0
2100
2100
2100
ffe0
1100
20c0
c040
0000
ENDCHAR
STARTCHAR 5176
ENCODING 20854
SWIDTH 520 0
DWIDTH 12 0
BBX 12 12 0 -2
BITMAP
1100
ffe0
1100
1f00
1100
1f00
1100
1100
ffe0
2080
c040
0000
ENDCHAR
STARTCHAR 5177
ENCODING 20855
SWIDTH 520 0
DWIDTH 12 0
BBX 12 12 0 -2
BITMAP
3f80
2080
3f80
2080
3f80
2080
3f80
2080
ffe0
1080
e060
0000
ENDCHAR
STARTCHAR 5178
ENCODING 20856
SWIDTH 520 0
DWIDTH 12 0
BBX 12 12 0 -2
BITMAP
0a00
0a00
3fc0
2a40
3fc0
2a40
2a40
ffe0
0900
1080
6040
0000
ENDCHAR
STARTCHAR 5179
ENCODING 20857
SWIDTH 520 0
DWIDTH 12 0
BBX 12 12 0 -2
BITMAP
1100
0a00
ffe0
2100
2940
4a40
7380
1080
2940
5ae0
6b20
0000
ENDCHAR
STARTCHAR 517B
ENCODING 20859
SWIDTH 520 0
DWIDTH 12 0
BBX 12 12 0 -2
BITMAP
1100
ffe0
0400
7fc0
0800
ffe0
2080
c960
0900
1100
6100
0000
ENDCHAR
STARTCHAR 517C
ENCODING 20860
SWIDTH 520 0
DWIDTH 12 0
BBX 12 12 0 -2
BITMAP
1100
ffe0
0a00
7f80
0a80
ffe0
0a80
7f80
1b00
2a80
ca60
0000
ENDCHAR
STARTCHAR 517D
ENCODING 20861
SWIDTH 520 0
DWIDTH 12 0
BBX 12 12 0 -2
BITMAP
1100
0a00
7fc0
4440
7fc0
4440
ffe0
0000
3f80
2080
3f80
0000
ENDCHAR
STARTCHAR 5180
ENCODING 20864
SWIDTH 520 0
DWIDTH 12 0
BBX 12 12 0 -2
BITMAP
fac0
0b20
f9e0
3f80
2480
3f80
2480
7fc0
1100
ffe0
2080
0000
ENDCHAR
STARTCHAR 5181
ENCODING 20865
SWIDTH 520 0
DWIDTH 12 0
BBX 12 12 0 -2
BITMAP
57e0
5420
ffe0
ad40
ffe0
ad40
ffe0
2680
faa0
2a40
3320
0000
ENDCHAR
STARTCHAR 5182
ENCODING 20866
SWIDTH 520 0
DWIDTH 12 0
BBX 12 12 0 -2
BITMAP
7fe0
4020
4020
4020
4020
4020
4020
4020
4020
4020
40e0
0000
ENDCHAR
STARTCHAR 5185
ENCODING 20869
SWIDTH 520 0
DWIDTH 12 0
BBX 12 12 0 -2
BITMAP
0400
0400
7fc0
4440
4440
4a40
4940
5140
6040
4040
41c0
0000
ENDCHAR
STARTCHAR 5188
ENCODING 20872
SWIDTH 520 0
DWIDTH 12 0
BBX 12 12 0 -2
BITMAP
ffc0
8040
a140
9140
8a40
8440
8a40
9140
a140
8040
80c0
0000
ENDCHAR
STARTCHAR 5189
ENCODING 20873
SWIDTH 520 0
DWIDTH 12 0
BBX 12 12 0 -2
BITMAP
0400
0400
3fc0
2440
3fc0
2440
2440
ffe0
2040
2040
21c0
0000
ENDCHAR
STARTCHAR 518C
ENCODING 20876
SWIDTH 520 0
DWIDTH 12 0
BBX 12 12 0 -2
BITMAP
7bc0
4a40
4a40
4a40
ffe0
4a40
4a40
4a40
4a40
4a40
9dc0
0000
ENDCHAR
STARTCHAR 518D
ENCODING 20877
SWIDTH 520 0
DWIDTH 12 0
BBX 12 12 0 -2
BITMAP
ffe0
0400
3fc0
2440
2440
3fc0
2440
ffe0
2040
2040
21c0
0000
ENDCHAR
STARTCHAR 5192
ENCODING 20882
SWIDTH 520 0
DWIDTH 12 0
BBX 12 12 0 -2
BITMAP
7fc0
4040
5f40
4040
3f80
2080
3f80
2080
3f80
2080
3f80
0000
ENDCHAR
STARTCHAR 5195
ENCODING 20885
SWIDTH 520 0
DWIDTH 12 0
BBX 12 12 0 -2
BITMAP
7fc0
4040
5f40
4840
1f00
2200
ff80
2480
3fa0
1220
e3e0
0000
ENDCHAR
STARTCHAR 5196
ENCODING 20886
SWIDTH 520 0
DWIDTH 12 0
BBX 12 12 0 -2
BITMAP
0000
7fe0
4020
8040
0000
0000
0000
0000
0000
0000
0000
0000
ENDCHAR
STARTCHAR 5197
ENCODING 20887
SWIDTH 520 0
DWIDTH 12 0
BBX 12 12 0 -2
BITMAP
ffc0
8040
8080
1e00
1200
1200
1200
1220
1220
2220
c3e0
0000
ENDCHAR
STARTCHAR 5199
ENCODING 20889
SWIDTH 520 0
DWIDTH 12 0
BBX 12 12 0 -2
BITMAP
7fe0
4040
9000
1fc0
1000
2000
3fc0
0040
ff40
0040
0380
0000
ENDCHAR
STARTCHAR 519B
ENCODING 20891
SWIDTH 520 0
DWIDTH 12 0
BBX 12 12 0 -2
BITMAP
ffe0
8820
0800
7fc0
1400
2400
3fc0
0400
ffe0
0400
0400
0000
ENDCHAR
STARTCHAR 519C
ENCODING 20892
SWIDTH 520 0
DWIDTH 12 0
BBX 12 12 0 -2
BITMAP
0400
0400
7fc0
c440
0a40
1280
3100
5100
9080
1660
1800
0000
ENDCHAR
STARTCHAR 51A0
ENCODING 20896
SWIDTH 520 0
DWIDTH 12 0
BBX 12 12 0 -2
BITMAP
7fe0
c020
0080
7880
03e0
fc80
2a80
2a80
49a0
4820
8fe0
0000
ENDCHAR
STARTCHAR 51A2
ENCODING 20898
SWIDTH 520 0
DWIDTH 12 0
BBX 12 12 0 -2
BITMAP
7fe0
4020
bf40
0800
3440
ca80
3700
ca80
3240
c220
1c00
0000
ENDCHAR
STARTCHAR 51A4
ENCODING 20900
SWIDTH 520 0
DWIDTH 12 0
BBX 12 12 0 -2
BITMAP
ffe0
9020
1f40
2200
7f80
a480
3f80
0500
0ca0
1420
e3e0
0000
ENDCHAR
STARTCHAR 51A5
ENCODING 20901
SWIDTH 520 0
DWIDTH 12 0
BBX 12 12 0 -2
BITMAP
ffe0
8020
bfa0
2080
3f80
2080
3f80
0400
ffe0
2080
c060
0000
ENDCHAR
STARTCHAR 51AB
ENCODING 20907
SWIDTH 520 0
DWIDTH 12 0
BBX 12 12 0 -2
BITMAP
0000
4000
2800
1000
1000
2000
4000
c000
4000
4000
4000
0000
ENDCHAR
STARTCHAR 51AC
ENCODING 20908
SWIDTH 520 0
DWIDTH 12 0
BBX 12 12 0 -2
BITMAP
0800
1f80
1100
2a00
4400
0a00
3180
c660
0000
1c00
0300
0000
ENDCHAR
STARTCHAR 51AF
ENCODING 20911
SWIDTH 520 0
DWIDTH 12 0
BBX 12 12 0 -2
BITMAP
9fc0
4040
4440
2480
2480
2fe0
4020
c020
5fa0
4020
41c0
0000
ENDCHAR
STARTCHAR 51B0
ENCODING 20912
SWIDTH 520 0
DWIDTH 12 0
BBX 12 12 0 -2
BITMAP
8200
4200
4240
3e80
4b00
4b00
8a80
8a80
9240
a220
0e00
0000
ENDCHAR
STARTCHAR 51B1
ENCODING 20913
SWIDTH 520 0
DWIDTH 12 0
BBX 12 12 0 -2
BITMAP
0000
bfe0
4400
0400
27c0
2840
4840
cf80
4080
4080
5fe0
0000
ENDCHAR
STARTCHAR 51B2
ENCODING 20914
SWIDTH 520 0
DWIDTH 12 0
BBX 12 12 0 -2
BITMAP
8100
4100
4fe0
0920
2920
2920
4fe0
c100
4100
4100
4100
0000
ENDCHAR
STARTCHAR 51B3
ENCODING 20915
SWIDTH 520 0
DWIDTH 12 0
BBX 12 12 0 -2
BITMAP
0200
8200
5fc0
0240
2240
2240
5fe0
c200
4500
4880
3060
0000
ENDCHAR
STARTCHAR 51B5
ENCODING 20917
SWIDTH 520 0
DWIDTH 12 0
BBX 12 12 0 -2
BITMAP
8fc0
4840
4840
0840
4fc0
4500
c500
8500
8520
8920
71e0
0000
ENDCHAR
STARTCHAR 51B6
ENCODING 20918
SWIDTH 520 0
DWIDTH 12 0
BBX 12 12 0 -2
BITMAP
0200
8200
4480
0840
2fe0
2000
4fc0
c840
4840
4fc0
4840
0000
ENDCHAR
STARTCHAR 51B7
ENCODING 20919
SWIDTH 520 0
DWIDTH 12 0
BBX 12 12 0 -2
BITMAP
0200
8200
4500
2880
3260
4100
4fc0
8080
8500
8200
0100
0000
ENDCHAR
STARTCHAR 51BB
ENCODING 20923
SWIDTH 520 0
DWIDTH 12 0
BBX 12 12 0 -2
BITMAP
8200
4240
5fe0
2500
2900
4fe0
c100
4540
4920
5120
0700
0000
ENDCHAR
STARTCHAR 51BC
ENCODING 20924
SWIDTH 520 0
DWIDTH 12 0
BBX 12 12 0 -2
BITMAP
0200
8a00
4fc0
1200
6200
5fe0
8500
8500
8520
8920
30e0
0000
ENDCHAR
STARTCHAR 51BD
ENCODING 20925
SWIDTH 520 0
DWIDTH 12 0
BBX 12 12 0 -2
BITMAP
0020
9f20
48a0
2ea0
2aa0
52a0
eca0
44a0
48a0
5020
20e0
0000
ENDCHAR
STARTCHAR 51C0
ENCODING 20928
SWIDTH 520 0
DWIDTH 12 0
BBX 12 12 0 -2
BITMAP
8200
4780
4900
1fc0
4240
5fe0
4240
dfc0
4200
4200
4e00
0000
ENDCHAR
STARTCHAR 51C4
ENCODING 20932
SWIDTH 520 0
DWIDTH 12 0
BBX 12 12 0 -2
BITMAP
0200
9fe0
4240
1fe0
4240
5fc0
4200
dfe0
4480
4300
3ce0
0000
ENDCHAR
STARTCHAR 51C6
ENCODING 20934
SWIDTH 520 0
DWIDTH 12 0
BBX 12 12 0 -2
BITMAP
0500
a500
6fe0
2900
5fe0
4900
c900
4fe0
4900
4900
0fe0
0000
ENDCHAR
STARTCHAR 51C7
ENCODING 20935
SWIDTH 520 0
DWIDTH 12 0
BBX 12 12 0 -2
BITMAP
0840
8940
4940
3f40
4a20
4ca0
9a80
a900
8940
8a20
8be0
0000
ENDCHAR
STARTCHAR 51C9
ENCODING 20937
SWIDTH 520 0
DWIDTH 12 0
BBX 12 12 0 -2
BITMAP
8200
5fe0
4000
2fc0
2840
4840
4fc0
8200
8a80
9240
6620
0000
ENDCHAR
STARTCHAR 51CB
ENCODING 20939
SWIDTH 520 0
DWIDTH 12 0
BBX 12 12 0 -2
BITMAP
9fe0
5220
57a0
1220
5fe0
5020
97a0
94a0
97a0
a020
20e0
0000
ENDCHAR
STARTCHAR 51CC
ENCODING 20940
SWIDTH 520 0
DWIDTH 12 0
BBX 12 12 0 -2
BITMAP
0200
8fc0
4200
2fe0
2480
4a40
57a0
8c80
9300
8500
38e0
0000
ENDCHAR
STARTCHAR 51CF
ENCODING 20943
SWIDTH 520 0
DWIDTH 12 0
BBX 12 12 0 -2
BITMAP
8140
4140
5fe0
1100
5f20
5120
9f40
9a80
aea0
a960
4220
0000
ENDCHAR
STARTCHAR 51D1
ENCODING 20945
SWIDTH 520 0
DWIDTH 12 0
BBX 12 12 0 -2
BITMAP
8200
5fe0
4200
0fc0
4400
5fe0
9740
a220
9fc0
8480
1840
0000
ENDCHAR
STARTCHAR 51DB
ENCODING 20955
SWIDTH 520 0
DWIDTH 12 0
BBX 12 12 0 -2
BITMAP
0200
bfe0
5040
1740
5540
5fc0
8000
bfe0
8a80
9240
6620
0000
ENDCHAR
STARTCHAR 51DD
ENCODING 20957
SWIDTH 520 0
DWIDTH 12 0
BBX 12 12 0 -2
BITMAP
13c0
9940
5480
1c80
53e0
7c80
8ae0
be80
8b80
9680
2460
0000
ENDCHAR
STARTCHAR 51E0
ENCODING 20960
SWIDTH 520 0
DWIDTH 12 0
BBX 12 12 0 -2
BITMAP
1f00
1100
1100
1100
1100
1100
1100
1100
2120
4120
81e0
0000
ENDCHAR
STARTCHAR 51E1
ENCODING 20961
SWIDTH 520 0
DWIDTH 12 0
BBX 12 12 0 -2
BITMAP
0100
1f80
1100
1100
1900
1500
1500
1120
2120
4120
81e0
0000
ENDCHAR
STARTCHAR 51E4
ENCODING 20964
SWIDTH 520 0
DWIDTH 12 0
BBX 12 12 0 -2
BITMAP
7f80
4080
4080
5e80
5280
4c80
4480
4a80
51a0
a060
8020
0000
ENDCHAR
STARTCHAR 51EB
ENCODING 20971
SWIDTH 520 0
DWIDTH 12 0
BBX 12 12 0 -2
BITMAP
0800
3f80
2880
2480
2100
3fe0
0020
3ee0
2200
2220
c3e0
0000
ENDCHAR
STARTCHAR 51ED
ENCODING 20973
SWIDTH 520 0
DWIDTH 12 0
BBX 12 12 0 -2
BITMAP
21c0
2e00
6200
bfe0
2200
2fc0
2000
1f00
1120
2120
c1e0
0000
ENDCHAR
STARTCHAR 51EF
ENCODING 20975
SWIDTH 520 0
DWIDTH 12 0
BBX 12 12 0 -2
BITMAP
2040
abe0
fa40
0240
fa40
0a40
fa40
8240
8a40
b440
c860
0000
ENDCHAR
STARTCHAR 51F0
ENCODING 20976
SWIDTH 520 0
DWIDTH 12 0
BBX 12 12 0 -2
BITMAP
7fc0
4440
5f40
5140
5f40
5140
5f40
4440
5f40
8460
bfa0
0000
ENDCHAR
STARTCHAR 51F3
ENCODING 20979
SWIDTH 520 0
DWIDTH 12 0
BBX 12 12 0 -2
BITMAP
7a80
0940
5080
3fc0
e0a0
3f80
1100
ffe0
1100
1120
e1e0
0000
ENDCHAR
STARTCHAR 51F5
ENCODING 20981
SWIDTH 520 0
DWIDTH 12 0
BBX 12 12 0 -2
BITMAP
0000
0000
4020
4020
4020
4020
4020
4020
4020
4020
7fe0
0000
ENDCHAR
STARTCHAR 51F6
ENCODING 20982
SWIDTH 520 0
DWIDTH 12 0
BBX 12 12 0 -2
BITMAP
0000
2100
5120
4a20
4620
4620
4920
50a0
60a0
4020
7fe0
0000
ENDCHAR
STARTCHAR 51F8
ENCODING 20984
SWIDTH 520 0
DWIDTH 12 0
BBX 12 12 0 -2
BITMAP
1f00
1100
1100
1100
71e0
4020
4020
4020
4020
7fe0
4020
0000
ENDCHAR
STARTCHAR 51F9
ENCODING 20985
SWIDTH 520 0
DWIDTH 12 0
BBX 12 12 0 -2
BITMAP
0000
79e0
4920
4920
4920
4f20
4020
4020
4020
7fe0
4020
0000
ENDCHAR
STARTCHAR 51FA
ENCODING 20986
SWIDTH 520 0
DWIDTH 12 0
BBX 12 12 0 -2
BITMAP
0400
4440
4440
4440
7fc0
0400
4440
4440
4440
4440
7fc0
0000
ENDCHAR
STARTCHAR 51FB
ENCODING 20987
SWIDTH 520 0
DWIDTH 12 0
BBX 12 12 0 -2
BITMAP
0400
0400
7fc0
0400
0400
ffe0
0400
4440
4440
4440
7fc0
0000
ENDCHAR
STARTCHAR 51FC
ENCODING 20988
SWIDTH 520 0
DWIDTH 12 0
BBX 12 12 0 -2
BITMAP
0400
0400
84c0
bd40
8e40
9640
9540
a4c0
9c40
8040
ffc0
0000
ENDCHAR
STARTCHAR 51FD
ENCODING 20989
SWIDTH 520 0
DWIDTH 12 0
BBX 12 12 0 -2
BITMAP
7f80
0100
0200
a4c0
9540
8e40
9540
a4c0
8c40
8040
ffc0
0000
ENDCHAR
STARTCHAR 51FF
ENCODING 20991
SWIDTH 520 0
DWIDTH 12 0
BBX 12 12 0 -2
BITMAP
0a00
4a40
2a80
ffe0
1100
4a40
5f40
4440
5f40
4440
7fc0
0000
ENDCHAR
STARTCHAR 5200
ENCODING 20992
SWIDTH 520 0
DWIDTH 12 0
BBX 12 12 0 -2
BITMAP
0040
7fe0
0840
0840
0840
0840
0840
1040
1040
2640
c180
0000
ENDCHAR
STARTCHAR 5201
ENCODING 20993
SWIDTH 520 0
DWIDTH 12 0
BBX 12 12 0 -2
BITMAP
0040
7fe0
0040
0140
0240
0440
1840
6040
0040
0640
0180
0000
ENDCHAR
STARTCHAR 5202
ENCODING 20994
SWIDTH 520 0
DWIDTH 12 0
BBX 12 12 0 -2
BITMAP
0040
0240
0240
0240
0240
0240
0240
0240
0240
0040
01c0
0000
ENDCHAR
STARTCHAR 5203
ENCODING 20995
SWIDTH 520 0
DWIDTH 12 0
BBX 12 12 0 -2
BITMAP
0040
7fe0
0440
2440
2440
2440
4840
0840
1040
2240
c180
0000
ENDCHAR
STARTCHAR 5206
ENCODING 20998
SWIDTH 520 0
DWIDTH 12 0
BBX 12 12 0 -2
BITMAP
1100
1100
2080
2080
4040
bfa0
0880
0880
1080
2080
c700
0000
ENDCHAR
STARTCHAR 5207
ENCODING 20999
SWIDTH 520 0
DWIDTH 12 0
BBX 12 12 0 -2
BITMAP
2020
2fe0
2120
3920
e120
2120
2220
2a20
3420
2820
11c0
0000
ENDCHAR
STARTCHAR 5208
ENCODING 21000
SWIDTH 520 0
DWIDTH 12 0
BBX 12 12 0 -2
BITMAP
0820
8920
4920
2920
1120
1120
2920
2520
4520
8020
00e0
0000
ENDCHAR
STARTCHAR 520A
ENCODING 21002
SWIDTH 520 0
DWIDTH 12 0
BBX 12 12 0 -2
BITMAP
fc20
1120
1120
1120
fd20
1120
1120
1120
1120
1020
10e0
0000
ENDCHAR
STARTCHAR 520D
ENCODING 21005
SWIDTH 520 0
DWIDTH 12 0
BBX 12 12 0 -2
BITMAP
1000
1f00
2100
4200
bfc0
0040
0040
3fc0
0040
0040
7fc0
0000
ENDCHAR
STARTCHAR 520E
ENCODING 21006
SWIDTH 520 0
DWIDTH 12 0
BBX 12 12 0 -2
BITMAP
4020
4020
7ea0
aaa0
aaa0
52a0
52a0
a2a0
22a0
4420
9ce0
0000
ENDCHAR
STARTCHAR 5211
ENCODING 21009
SWIDTH 520 0
DWIDTH 12 0
BBX 12 12 0 -2
BITMAP
fe20
2920
2920
2920
ff20
2920
2920
2920
4820
4820
88e0
0000
ENDCHAR
STARTCHAR 5212
ENCODING 21010
SWIDTH 520 0
DWIDTH 12 0
BBX 12 12 0 -2
BITMAP
2020
2820
24a0
3ca0
e0a0
24a0
28a0
10a0
3220
4a20
86e0
0000
ENDCHAR
STARTCHAR 5216
ENCODING 21014
SWIDTH 520 0
DWIDTH 12 0
BBX 12 12 0 -2
BITMAP
7c20
4520
4520
7d20
4520
4520
7d20
4520
4420
8420
9ce0
0000
ENDCHAR
STARTCHAR 5217
ENCODING 21015
SWIDTH 520 0
DWIDTH 12 0
BBX 12 12 0 -2
BITMAP
0420
fe20
2120
3d20
2520
6520
9920
0920
1120
2020
c1e0
0000
ENDCHAR
STARTCHAR 5218
ENCODING 21016
SWIDTH 520 0
DWIDTH 12 0
BBX 12 12 0 -2
BITMAP
2020
1120
fd20
0920
4920
2920
1120
2920
4520
8420
00e0
0000
ENDCHAR
STARTCHAR 5219
ENCODING 21017
SWIDTH 520 0
DWIDTH 12 0
BBX 12 12 0 -2
BITMAP
7c20
4520
5520
5520
5520
5520
5520
5520
2920
4420
82e0
0000
ENDCHAR
STARTCHAR 521A
ENCODING 21018
SWIDTH 520 0
DWIDTH 12 0
BBX 12 12 0 -2
BITMAP
fe20
8220
8aa0
caa0
b2a0
92a0
aaa0
caa0
82a0
8220
9ee0
0000
ENDCHAR
STARTCHAR 521B
ENCODING 21019
SWIDTH 520 0
DWIDTH 12 0
BBX 12 12 0 -2
BITMAP
1020
2820
2520
4120
f920
4920
4920
5920
4220
4220
7ee0
0000
ENDCHAR
STARTCHAR 521D
ENCODING 21021
SWIDTH 520 0
DWIDTH 12 0
BBX 12 12 0 -2
BITMAP
2000
27e0
f120
1120
2920
7120
aa20
2220
2220
2440
29c0
0000
ENDCHAR
STARTCHAR 5220
ENCODING 21024
SWIDTH 520 0
DWIDTH 12 0
BBX 12 12 0 -2
BITMAP
7720
5520
5520
5520
5520
ffa0
5520
5520
5520
5520
bb60
0000
ENDCHAR
STARTCHAR 5224
ENCODING 21028
SWIDTH 520 0
DWIDTH 12 0
BBX 12 12 0 -2
BITMAP
1020
9220
54a0
58a0
fea0
10a0
fea0
10a0
20a0
4020
80e0
0000
ENDCHAR
STARTCHAR 5228
ENCODING 21032
SWIDTH 520 0
DWIDTH 12 0
BBX 12 12 0 -2
BITMAP
2020
3d20
4520
7520
d520
5520
7520
4d20
4020
4220
3ee0
0000
ENDCHAR
STARTCHAR 5229
ENCODING 21033
SWIDTH 520 0
DWIDTH 12 0
BBX 12 12 0 -2
BITMAP
1c20
f120
1120
ff20
1120
3920
3520
5120
9120
1020
10e0
0000
ENDCHAR
STARTCHAR 522B
ENCODING 21035
SWIDTH 520 0
DWIDTH 12 0
BBX 12 12 0 -2
BITMAP
7c20
4420
4520
7d20
1120
1120
fd20
2520
2520
4420
98e0
0000
ENDCHAR
STARTCHAR 522D
ENCODING 21037
SWIDTH 520 0
DWIDTH 12 0
BBX 12 12 0 -2
BITMAP
f820
0820
1120
2920
c520
0120
fd20
1120
1020
1c20
e0e0
0000
ENDCHAR
STARTCHAR 522E
ENCODING 21038
SWIDTH 520 0
DWIDTH 12 0
BBX 12 12 0 -2
BITMAP
0c20
f020
1120
1120
ff20
1120
7d20
4520
4520
7c20
44e0
0000
ENDCHAR
STARTCHAR 5230
ENCODING 21040
SWIDTH 520 0
DWIDTH 12 0
BBX 12 12 0 -2
BITMAP
fe20
1020
2920
4520
ff20
1120
1120
fd20
1120
1e20
e0e0
0000
ENDCHAR
STARTCHAR 5233
ENCODING 21043
SWIDTH 520 0
DWIDTH 12 0
BBX 12 12 0 -2
BITMAP
1020
fe20
28a0
44a0
baa0
00a0
fea0
40a0
7c20
0420
38e0
0000
ENDCHAR
STARTCHAR 5236
ENCODING 21046
SWIDTH 520 0
DWIDTH 12 0
BBX 12 12 0 -2
BITMAP
1020
5420
7ea0
90a0
fea0
10a0
7ea0
52a0
5220
5620
10e0
0000
ENDCHAR
STARTCHAR 5237
ENCODING 21047
SWIDTH 520 0
DWIDTH 12 0
BBX 12 12 0 -2
BITMAP
7e20
42a0
7ea0
48a0
48a0
7ea0
6aa0
aaa0
aaa0
2e20
08e0
0000
ENDCHAR
STARTCHAR 5238
ENCODING 21048
SWIDTH 520 0
DWIDTH 12 0
BBX 12 12 0 -2
BITMAP
4480
2500
7fc0
0800
ffe0
1100
3f80
c960
0900
1100
6600
0000
ENDCHAR
STARTCHAR 5239
ENCODING 21049
SWIDTH 520 0
DWIDTH 12 0
BBX 12 12 0 -2
BITMAP
4420
2820
3920
c520
1120
fd20
1120
5920
5520
9420
70e0
0000
ENDCHAR
STARTCHAR 523A
ENCODING 21050
SWIDTH 520 0
DWIDTH 12 0
BBX 12 12 0 -2
BITMAP
1020
fea0
10a0
7ea0
52a0
52a0
56a0
38a0
54a0
9220
10e0
0000
ENDCHAR
STARTCHAR 523B
ENCODING 21051
SWIDTH 520 0
DWIDTH 12 0
BBX 12 12 0 -2
BITMAP
1020
fe20
10a0
24a0
48a0
72a0
24a0
48a0
98a0
2420
c2e0
0000
ENDCHAR
STARTCHAR 523D
ENCODING 21053
SWIDTH 520 0
DWIDTH 12 0
BBX 12 12 0 -2
BITMAP
1020
28a0
44a0
82a0
7ca0
00a0
fea0
20a0
44a0
fe20
42e0
0000
ENDCHAR
STARTCHAR 523F
ENCODING 21055
SWIDTH 520 0
DWIDTH 12 0
BBX 12 12 0 -2
BITMAP
1020
5220
52a0
7ea0
20a0
3ca0
44a0
b4a0
0820
1020
e0e0
0000
ENDCHAR
STARTCHAR 5240
ENCODING 21056
SWIDTH 520 0
DWIDTH 12 0
BBX 12 12 0 -2
BITMAP
1020
9420
94a0
fca0
00a0
fca0
04a0
7ca0
4020
4c20
70e0
0000
ENDCHAR
STARTCHAR 5241
ENCODING 21057
SWIDTH 520 0
DWIDTH 12 0
BBX 12 12 0 -2
BITMAP
3820
2820
28a0
4ea0
80a0
10a0
fea0
38a0
54a0
9220
10e0
0000
ENDCHAR
STARTCHAR 5242
ENCODING 21058
SWIDTH 520 0
DWIDTH 12 0
BBX 12 12 0 -2
BITMAP
1020
fe20
24a0
18a0
24a0
c2a0
24a0
24a0
24a0
2420
44e0
0000
ENDCHAR
STARTCHAR 5243
ENCODING 21059
SWIDTH 520 0
DWIDTH 12 0
BBX 12 12 0 -2
BITMAP
4420
28a0
fca0
14a0
fca0
90a0
fea0
32a0
5ea0
9020
10e0
0000
ENDCHAR
STARTCHAR 524A
ENCODING 21066
SWIDTH 520 0
DWIDTH 12 0
BBX 12 12 0 -2
BITMAP
1020
9420
5920
fd20
8520
fd20
8520
fd20
8520
8420
9ce0
0000
ENDCHAR
STARTCHAR 524C
ENCODING 21068
SWIDTH 520 0
DWIDTH 12 0
BBX 12 12 0 -2
BITMAP
1020
fe20
1120
7d20
5520
7d20
1120
3920
5520
9020
10e0
0000
ENDCHAR
STARTCHAR 524D
ENCODING 21069
SWIDTH 520 0
DWIDTH 12 0
BBX 12 12 0 -2
BITMAP
1100
0a40
ffe0
0000
7940
4940
7940
4940
7940
4840
59c0
0000
ENDCHAR
STARTCHAR 5250
ENCODING 21072
SWIDTH 520 0
DWIDTH 12 0
BBX 12 12 0 -2
BITMAP
7c20
4520
4520
7d20
1120
fd20
9520
ad20
c420
8420
8ce0
0000
ENDCHAR
STARTCHAR 5251
ENCODING 21073
SWIDTH 520 0
DWIDTH 12 0
BBX 12 12 0 -2
BITMAP
1020
1820
24a0
42a0
bca0
00a0
54a0
54a0
4820
1e20
e0e0
0000
ENDCHAR
STARTCHAR 5254
ENCODING 21076
SWIDTH 520 0
DWIDTH 12 0
BBX 12 12 0 -2
BITMAP
7c20
44a0
7ca0
44a0
7ca0
20a0
7ea0
aaa0
5220
a220
4ce0
0000
ENDCHAR
STARTCHAR 5256
ENCODING 21078
SWIDTH 520 0
DWIDTH 12 0
BBX 12 12 0 -2
BITMAP
1020
fea0
44a0
28a0
fea0
00a0
7ca0
44a0
44a0
7c20
44e0
0000
ENDCHAR
STARTCHAR 525C
ENCODING 21084
SWIDTH 520 0
DWIDTH 12 0
BBX 12 12 0 -2
BITMAP
1020
fea0
82a0
40a0
6ea0
aaa0
aaa0
6ea0
28a0
4e20
88e0
0000
ENDCHAR
STARTCHAR 525E
ENCODING 21086
SWIDTH 520 0
DWIDTH 12 0
BBX 12 12 0 -2
BITMAP
1020
fc20
10a0
28a0
44a0
fea0
04a0
74a0
5420
7420
0ce0
0000
ENDCHAR
STARTCHAR 5261
ENCODING 21089
SWIDTH 520 0
DWIDTH 12 0
BBX 12 12 0 -2
BITMAP
1020
5420
58a0
94a0
22a0
d0a0
10a0
54a0
98a0
2420
c2e0
0000
ENDCHAR
STARTCHAR 5265
ENCODING 21093
SWIDTH 520 0
DWIDTH 12 0
BBX 12 12 0 -2
BITMAP
7c20
04a0
7ca0
04a0
fea0
94a0
58a0
34a0
d2a0
1020
70e0
0000
ENDCHAR
STARTCHAR 5267
ENCODING 21095
SWIDTH 520 0
DWIDTH 12 0
BBX 12 12 0 -2
BITMAP
7e20
42a0
7ea0
48a0
48a0
7ea0
48a0
7ea0
a2a0
be20
22e0
0000
ENDCHAR
STARTCHAR 5269
ENCODING 21097
SWIDTH 520 0
DWIDTH 12 0
BBX 12 12 0 -2
BITMAP
7c20
10a0
fea0
54a0
d6a0
54a0
d6a0
38a0
54a0
9220
10e0
0000
ENDCHAR
STARTCHAR 526A
ENCODING 21098
SWIDTH 520 0
DWIDTH 12 0
BBX 12 12 0 -2
BITMAP
1100
ffe0
4840
7a40
4a40
7a40
48c0
0000
7fc0
0840
7380
0000
ENDCHAR
STARTCHAR 526F
ENCODING 21103
SWIDTH 520 0
DWIDTH 12 0
BBX 12 12 0 -2
BITMAP
fe20
0020
7d20
4520
7d20
0120
fd20
9520
fd20
9420
fce0
0000
ENDCHAR
STARTCHAR 5272
ENCODING 21106
SWIDTH 520 0
DWIDTH 12 0
BBX 12 12 0 -2
BITMAP
1020
fe20
92a0
7ca0
10a0
fea0
10a0
7ca0
4420
4420
7ce0
0000
ENDCHAR
STARTCHAR 527D
ENCODING 21117
SWIDTH 520 0
DWIDTH 12 0
BBX 12 12 0 -2
BITMAP
fe20
28a0
fea0
aaa0
fea0
00a0
7ea0
00a0
fe20
5420
b2e0
0000
ENDCHAR
STARTCHAR 527F
ENCODING 21119
SWIDTH 520 0
DWIDTH 12 0
BBX 12 12 0 -2
BITMAP
5420
a8a0
54a0
7ca0
54a0
7ca0
54a0
fea0
38a0
5420
9260
0000
ENDCHAR
STARTCHAR 5281
ENCODING 21121
SWIDTH 520 0
DWIDTH 12 0
BBX 12 12 0 -2
BITMAP
2820
7ea0
c8a0
7ea0
48a0
7ea0
48a0
7ea0
00a0
aa20
9560
0000
ENDCHAR
STARTCHAR 5282
ENCODING 21122
SWIDTH 520 0
DWIDTH 12 0
BBX 12 12 0 -2
BITMAP
ff20
8020
aaa0
fba0
95a0
daa0
daa0
faa0
9220
a520
5860
0000
ENDCHAR
STARTCHAR 5288
ENCODING 21128
SWIDTH 520 0
DWIDTH 12 0
BBX 12 12 0 -2
BITMAP
7900
4fe0
7a80
47e0
7900
afe0
3900
7fc0
0840
1040
e380
0000
ENDCHAR
STARTCHAR 5290
ENCODING 21136
SWIDTH 520 0
DWIDTH 12 0
BBX 12 12 0 -2
BITMAP
2420
ff20
48a0
7ea0
c8a0
7ea0
48a0
7ea0
24a0
1820
e6e0
0000
ENDCHAR
STARTCHAR 5293
ENCODING 21139
SWIDTH 520 0
DWIDTH 12 0
BBX 12 12 0 -2
BITMAP
1020
7c20
44a0
7ca0
44a0
7ea0
52a0
52a0
ff20
2420
c4e0
0000
ENDCHAR
STARTCHAR 529B
ENCODING 21147
SWIDTH 520 0
DWIDTH 12 0
BBX 12 12 0 -2
BITMAP
0400
0400
0440
7fe0
0440
0440
0840
0840
1040
2040
c380
0000
ENDCHAR
STARTCHAR 529D
ENCODING 21149
SWIDTH 520 0
DWIDTH 12 0
BBX 12 12 0 -2
BITMAP
0100
f900
0900
8fe0
4920
3120
1120
2920
4220
8420
18c0
0000
ENDCHAR
STARTCHAR 529E
ENCODING 21150
SWIDTH 520 0
DWIDTH 12 0
BBX 12 12 0 -2
BITMAP
0800
0800
7f80
0880
2880
28c0
48a0
90a0
1080
2080
c700
0000
ENDCHAR
STARTCHAR 529F
ENCODING 21151
SWIDTH 520 0
DWIDTH 12 0
BBX 12 12 0 -2
BITMAP
0100
f900
2100
27e0
2120
2120
2120
3a20
c220
0420
19c0
0000
ENDCHAR
STARTCHAR 52A0
ENCODING 21152
SWIDTH 520 0
DWIDTH 12 0
BBX 12 12 0 -2
BITMAP
2000
2000
fde0
2520
2520
2520
2520
2520
4520
45e0
9920
0000
ENDCHAR
STARTCHAR 52A1
ENCODING 21153
SWIDTH 520 0
DWIDTH 12 0
BBX 12 12 0 -2
BITMAP
1100
1f80
3100
4a00
8600
1980
e460
3f80
0880
1080
6700
0000
ENDCHAR
STARTCHAR 52A2
ENCODING 21154
SWIDTH 520 0
DWIDTH 12 0
BBX 12 12 0 -2
BITMAP
fc80
2080
2080
3fe0
24a0
24a0
24a0
2520
4520
5a20
85c0
0000
ENDCHAR
STARTCHAR 52A3
ENCODING 21155
SWIDTH 520 0
DWIDTH 12 0
BBX 12 12 0 -2
BITMAP
0400
1580
2440
c520
0600
0800
f200
1fc0
0440
0840
f380
0000
ENDCHAR
STARTCHAR 52A8
ENCODING 21160
SWIDTH 520 0
DWIDTH 12 0
BBX 12 12 0 -2
BITMAP
0100
f900
0100
03e0
fd20
2120
5120
8920
fa20
8440
09c0
0000
ENDCHAR
STARTCHAR 52A9
ENCODING 21161
SWIDTH 520 0
DWIDTH 12 0
BBX 12 12 0 -2
BITMAP
7900
4900
4900
7fe0
4920
4920
7920
4920
7e20
c420
08c0
0000
ENDCHAR
STARTCHAR 52AA
ENCODING 21162
SWIDTH 520 0
DWIDTH 12 0
BBX 12 12 0 -2
BITMAP
2000
fbc0
4a40
5180
3140
4a20
8400
7fc0
0840
1040
e380
0000
ENDCHAR
STARTCHAR 52AB
ENCODING 21163
SWIDTH 520 0
DWIDTH 12 0
BBX 12 12 0 -2
BITMAP
2100
2100
f900
27e0
2120
fd20
2120
5120
8a20
fc20
09c0
0000
ENDCHAR
STARTCHAR 52AC
ENCODING 21164
SWIDTH 520 0
DWIDTH 12 0
BBX 12 12 0 -2
BITMAP
4100
4100
7d00
87e0
f520
5520
5520
7520
5520
0a20
3cc0
0000
ENDCHAR
STARTCHAR 52AD
ENCODING 21165
SWIDTH 520 0
DWIDTH 12 0
BBX 12 12 0 -2
BITMAP
fd00
2500
2500
47e0
9920
0120
f920
8920
8a20
fc20
89c0
0000
ENDCHAR
STARTCHAR 52B1
ENCODING 21169
SWIDTH 520 0
DWIDTH 12 0
BBX 12 12 0 -2
BITMAP
7e80
4080
7c80
53e0
50a0
5ca0
54a0
5520
5520
a520
cac0
0000
ENDCHAR
STARTCHAR 52B2
ENCODING 21170
SWIDTH 520 0
DWIDTH 12 0
BBX 12 12 0 -2
BITMAP
0100
f900
1100
2be0
4520
f920
2120
2120
2120
3a20
c4c0
0000
ENDCHAR
STARTCHAR 52B3
ENCODING 21171
SWIDTH 520 0
DWIDTH 12 0
BBX 12 12 0 -2
BITMAP
1100
ffe0
1100
0000
ffe0
8820
7f80
0880
0880
1080
e700
0000
ENDCHAR
STARTCHAR 52BE
ENCODING 21182
SWIDTH 520 0
DWIDTH 12 0
BBX 12 12 0 -2
BITMAP
1100
fd00
2100
4be0
f120
1520
2920
5120
a920
4220
8cc0
0000
ENDCHAR
STARTCHAR 52BF
ENCODING 21183
SWIDTH 520 0
DWIDTH 12 0
BBX 12 12 0 -2
BITMAP
2200
f7c0
2240
3640
e340
2460
6820
7f80
0880
1080
e300
0000
ENDCHAR
STARTCHAR 52C3
ENCODING 21187
SWIDTH 520 0
DWIDTH 12 0
BBX 12 12 0 -2
BITMAP
1100
fd00
1100
ffe0
8520
7920
1120
1d20
f220
1420
69c0
0000
ENDCHAR
STARTCHAR 52C7
ENCODING 21191
SWIDTH 520 0
DWIDTH 12 0
BBX 12 12 0 -2
BITMAP
7f80
0900
3fc0
2440
3fc0
2440
2440
7fc0
0840
1040
e380
0000
ENDCHAR
STARTCHAR 52C9
ENCODING 21193
SWIDTH 520 0
DWIDTH 12 0
BBX 12 12 0 -2
BITMAP
2100
7900
93e0
fd20
5520
5520
7d20
2a20
2cc0
4820
8fe0
0000
ENDCHAR
STARTCHAR 52CB
ENCODING 21195
SWIDTH 520 0
DWIDTH 12 0
BBX 12 12 0 -2
BITMAP
7900
4900
7900
03e0
fd20
8520
a520
a520
b520
4a20
84c0
0000
ENDCHAR
STARTCHAR 52D0
ENCODING 21200
SWIDTH 520 0
DWIDTH 12 0
BBX 12 12 0 -2
BITMAP
7c80
1080
fc80
13e0
70a0
00a0
7ca0
5520
5520
5e20
e4c0
0000
ENDCHAR
STARTCHAR 52D2
ENCODING 21202
SWIDTH 520 0
DWIDTH 12 0
BBX 12 12 0 -2
BITMAP
2900
ff00
2900
3be0
1120
7d20
5520
7d20
1120
fe20
14c0
0000
ENDCHAR
STARTCHAR 52D6
ENCODING 21206
SWIDTH 520 0
DWIDTH 12 0
BBX 12 12 0 -2
BITMAP
fc80
8480
b480
85e0
7ca0
44a0
7ca0
4520
7d20
4620
7cc0
0000
ENDCHAR
STARTCHAR 52D8
ENCODING 21208
SWIDTH 520 0
DWIDTH 12 0
BBX 12 12 0 -2
BITMAP
4900
fd00
4900
7be0
4920
7920
4920
ff20
5520
6220
7cc0
0000
ENDCHAR
STARTCHAR 52DF
ENCODING 21215
SWIDTH 520 0
DWIDTH 12 0
BBX 12 12 0 -2
BITMAP
ffe0
0900
3f80
2080
3f80
2080
ffe0
2880
dfe0
0880
7300
0000
ENDCHAR
STARTCHAR 52E4
ENCODING 21220
SWIDTH 520 0
DWIDTH 12 0
BBX 12 12 0 -2
BITMAP
4880
fe80
4880
ffe0
94a0
fca0
10a0
fd20
1120
1a20
e4c0
0000
ENDCHAR
STARTCHAR 52F0
ENCODING 21232
SWIDTH 520 0
DWIDTH 12 0
BBX 12 12 0 -2
BITMAP
23e0
faa0
2aa0
4be0
b2a0
53e0
fc00
55a0
5720
5540
adc0
0000
ENDCHAR
STARTCHAR 52F9
ENCODING 21241
SWIDTH 520 0
DWIDTH 12 0
BBX 12 12 0 -2
BITMAP
1000
1000
1fe0
2020
4020
8020
0020
0020
0020
0020
03c0
0000
ENDCHAR
STARTCHAR 52FA
ENCODING 21242
SWIDTH 520 0
DWIDTH 12 0
BBX 12 12 0 -2
BITMAP
2000
2000
3fc0
4040
5040
8840
0440
0440
0040
0040
0380
0000
ENDCHAR
STARTCHAR 52FE
ENCODING 21246
SWIDTH 520 0
DWIDTH 12 0
BBX 12 12 0 -2
BITMAP
2000
2040
3fe0
4040
8840
0840
1240
2740
3940
0040
0380
0000
ENDCHAR
STARTCHAR 52FF
ENCODING 21247
SWIDTH 520 0
DWIDTH 12 0
BBX 12 12 0 -2
BITMAP
1000
1040
3fe0
4940
8940
1240
1240
2440
4840
1040
6380
0000
ENDCHAR
STARTCHAR 5300
ENCODING 21248
SWIDTH 520 0
DWIDTH 12 0
BBX 12 12 0 -2
BITMAP
1000
2000
3fc0
5040
8840
0440
0340
0c40
7040
0040
0380
0000
ENDCHAR
STARTCHAR 5305
ENCODING 21253
SWIDTH 520 0
DWIDTH 12 0
BBX 12 12 0 -2
BITMAP
1000
1fc0
2040
7e40
a240
2240
3e40
2180
2020
2020
1fe0
0000
ENDCHAR
STARTCHAR 5306
ENCODING 21254
SWIDTH 520 0
DWIDTH 12 0
BBX 12 12 0 -2
BITMAP
1000
1000
3fc0
2540
5540
8d40
1240
2540
4840
1040
6180
0000
ENDCHAR
STARTCHAR 5308
ENCODING 21256
SWIDTH 520 0
DWIDTH 12 0
BBX 12 12 0 -2
BITMAP
2000
3fe0
4020
8420
5520
4920
5520
6320
4120
7f20
01c0
0000
ENDCHAR
STARTCHAR 530D
ENCODING 21261
SWIDTH 520 0
DWIDTH 12 0
BBX 12 12 0 -2
BITMAP
2000
3fe0
4520
ffa0
2520
3f20
2520
3f20
2520
2720
04c0
0000
ENDCHAR
STARTCHAR 530F
ENCODING 21263
SWIDTH 520 0
DWIDTH 12 0
BBX 12 12 0 -2
BITMAP
2100
fd00
33e0
4a20
f7a0
02a0
fba0
4220
72c0
1220
73e0
0000
ENDCHAR
STARTCHAR 5310
ENCODING 21264
SWIDTH 520 0
DWIDTH 12 0
BBX 12 12 0 -2
BITMAP
2000
3fe0
4020
ff20
2220
7f20
4920
7f20
4920
7f20
00c0
0000
ENDCHAR
STARTCHAR 5315
ENCODING 21269
SWIDTH 520 0
DWIDTH 12 0
BBX 12 12 0 -2
BITMAP
2000
2000
2080
2100
2600
3800
2000
2040
2040
2060
3fc0
0000
ENDCHAR
STARTCHAR 5316
ENCODING 21270
SWIDTH 520 0
DWIDTH 12 0
BBX 12 12 0 -2
BITMAP
1200
1200
2240
2240
6280
a300
2600
3a00
2220
2220
23e0
0000
ENDCHAR
STARTCHAR 5317
ENCODING 21271
SWIDTH 520 0
DWIDTH 12 0
BBX 12 12 0 -2
BITMAP
1200
1200
1200
f260
1380
1200
1200
1220
3220
d220
13e0
0000
ENDCHAR
STARTCHAR 5319
ENCODING 21273
SWIDTH 520 0
DWIDTH 12 0
BBX 12 12 0 -2
BITMAP
7900
4900
7920
4940
7980
0100
fd20
5120
5de0
b000
9fe0
0000
ENDCHAR
STARTCHAR 531A
ENCODING 21274
SWIDTH 520 0
DWIDTH 12 0
BBX 12 12 0 -2
BITMAP
7fe0
4000
4000
4000
4000
4000
4000
4000
4000
4000
7fe0
0000
ENDCHAR
STARTCHAR 531D
ENCODING 21277
SWIDTH 520 0
DWIDTH 12 0
BBX 12 12 0 -2
BITMAP
ffc0
8400
8400
bf80
a480
a480
a480
a580
8400
8400
ffe0
0000
ENDCHAR
STARTCHAR 5320
ENCODING 21280
SWIDTH 520 0
DWIDTH 12 0
BBX 12 12 0 -2
BITMAP
ffe0
8000
9f80
9000
9fc0
9200
9200
9200
a200
c200
ffe0
0000
ENDCHAR
STARTCHAR 5321
ENCODING 21281
SWIDTH 520 0
DWIDTH 12 0
BBX 12 12 0 -2
BITMAP
ffe0
8000
bfc0
8400
8400
9f80
8400
8400
bfc0
8000
ffe0
0000
ENDCHAR
STARTCHAR 5323
ENCODING 21283
SWIDTH 520 0
DWIDTH 12 0
BBX 12 12 0 -2
BITMAP
7fe0
4000
5fc0
5240
5fc0
5240
5240
5fc0
4200
4200
7fe0
0000
ENDCHAR
STARTCHAR 5326
ENCODING 21286
SWIDTH 520 0
DWIDTH 12 0
BBX 12 12 0 -2
BITMAP
ffe0
9100
bd00
93c0
a940
bd40
8940
be40
8a60
8c00
ffe0
0000
ENDCHAR
STARTCHAR 532A
ENCODING 21290
SWIDTH 520 0
DWIDTH 12 0
BBX 12 12 0 -2
BITMAP
7fe0
4900
4900
79e0
4900
79e0
4900
79e0
4900
4900
7fe0
0000
ENDCHAR
STARTCHAR 532E
ENCODING 21294
SWIDTH 520 0
DWIDTH 12 0
BBX 12 12 0 -2
BITMAP
ffe0
8400
9f80
9480
bfc0
8000
9f80
9480
8900
9080
ffe0
0000
ENDCHAR
STARTCHAR 5339
ENCODING 21305
SWIDTH 520 0
DWIDTH 12 0
BBX 12 12 0 -2
BITMAP
7fe0
4900
4900
4900
4900
4920
5120
51e0
6000
4000
7fe0
0000
ENDCHAR
STARTCHAR 533A
ENCODING 21306
SWIDTH 520 0
DWIDTH 12 0
BBX 12 12 0 -2
BITMAP
ffc0
8000
8100
9100
8a00
8400
8600
8900
b080
8000
ffe0
0000
ENDCHAR
STARTCHAR 533B
ENCODING 21307
SWIDTH 520 0
DWIDTH 12 0
BBX 12 12 0 -2
BITMAP
ffe0
8000
9000
9f80
a400
bfe0
8400
8a00
9100
a080
ffe0
0000
ENDCHAR
STARTCHAR 533E
ENCODING 21310
SWIDTH 520 0
DWIDTH 12 0
BBX 12 12 0 -2
BITMAP
ffe0
8400
9f80
9080
9f80
9fc0
9540
bfc0
d540
90c0
ffe0
0000
ENDCHAR
STARTCHAR 533F
ENCODING 21311
SWIDTH 520 0
DWIDTH 12 0
BBX 12 12 0 -2
BITMAP
ffe0
8900
bfc0
8900
ffc0
8800
9f80
a880
cf80
8000
ffe0
0000
ENDCHAR
STARTCHAR 5341
ENCODING 21313
SWIDTH 520 0
DWIDTH 12 0
BBX 12 12 0 -2
BITMAP
0400
0400
0400
0440
ffe0
0400
0400
0400
0400
0400
0400
0000
ENDCHAR
STARTCHAR 5343
ENCODING 21315
SWIDTH 520 0
DWIDTH 12 0
BBX 12 12 0 -2
BITMAP
0380
7c00
0400
0400
ffe0
0400
0400
0400
0400
0400
0400
0000
ENDCHAR
STARTCHAR 5345
ENCODING 21317
SWIDTH 520 0
DWIDTH 12 0
BBX 12 12 0 -2
BITMAP
2480
2480
2480
2480
ffe0
2480
2480
2480
2480
4480
8080
0000
ENDCHAR
STARTCHAR 5347
ENCODING 21319
SWIDTH 520 0
DWIDTH 12 0
BBX 12 12 0 -2
BITMAP
0d00
f100
1100
1100
1100
ffe0
1100
1100
1100
2100
c100
0000
ENDCHAR
STARTCHAR 5348
ENCODING 21320
SWIDTH 520 0
DWIDTH 12 0
BBX 12 12 0 -2
BITMAP
1000
2080
3fc0
4400
8400
ffe0
0400
0400
0400
0400
0400
0000
ENDCHAR
STARTCHAR 5349
ENCODING 21321
SWIDTH 520 0
DWIDTH 12 0
BBX 12 12 0 -2
BITMAP
0400
7fc0
0400
1500
1500
1100
ffe0
1100
1100
2100
c100
0000
ENDCHAR
STARTCHAR 534A
ENCODING 21322
SWIDTH 520 0
DWIDTH 12 0
BBX 12 12 0 -2
BITMAP
0400
4480
2500
1600
7fc0
0400
0400
ffe0
0400
0400
0400
0000
ENDCHAR
STARTCHAR 534E
ENCODING 21326
SWIDTH 520 0
DWIDTH 12 0
BBX 12 12 0 -2
BITMAP
1200
2240
6280
a720
3a20
23e0
0400
ffe0
0400
0400
0400
0000
ENDCHAR
STARTCHAR 534F
ENCODING 21327
SWIDTH 520 0
DWIDTH 12 0
BBX 12 12 0 -2
BITMAP
4200
4200
4fc0
f240
4a40
4a60
5260
4240
4440
4840
5380
0000
ENDCHAR
STARTCHAR 5351
ENCODING 21329
SWIDTH 520 0
DWIDTH 12 0
BBX 12 12 0 -2
BITMAP
0800
7f80
4480
7f80
4880
7f80
1400
2400
ffe0
0400
0400
0000
ENDCHAR
STARTCHAR 5352
ENCODING 21330
SWIDTH 520 0
DWIDTH 12 0
BBX 12 12 0 -2
BITMAP
0400
7fc0
1100
1100
2a80
4440
0400
ffe0
0400
0400
0400
0000
ENDCHAR
STARTCHAR 5353
ENCODING 21331
SWIDTH 520 0
DWIDTH 12 0
BBX 12 12 0 -2
BITMAP
07c0
0400
3f80
2080
3f80
2080
3f80
0400
ffe0
0400
0400
0000
ENDCHAR
STARTCHAR 5355
ENCODING 21333
SWIDTH 520 0
DWIDTH 12 0
BBX 12 12 0 -2
BITMAP
1100
0a00
3fc0
2440
3fc0
2440
3fc0
0400
ffe0
0400
0400
0000
ENDCHAR
STARTCHAR 5356
ENCODING 21334
SWIDTH 520 0
DWIDTH 12 0
BBX 12 12 0 -2
BITMAP
0400
7fc0
0400
ffe0
1220
4a40
2200
ffe0
0600
1980
e060
0000
ENDCHAR
STARTCHAR 5357
ENCODING 21335
SWIDTH 520 0
DWIDTH 12 0
BBX 12 12 0 -2
BITMAP
0400
ffe0
0400
7fc0
5140
4a40
5f40
4440
5f40
4440
45c0
0000
ENDCHAR
STARTCHAR 535A
ENCODING 21338
SWIDTH 520 0
DWIDTH 12 0
BBX 12 12 0 -2
BITMAP
4240
5fe0
4a40
efc0
4a40
4fc0
4a40
4080
5fe0
4880
4580
0000
ENDCHAR
STARTCHAR 535C
ENCODING 21340
SWIDTH 520 0
DWIDTH 12 0
BBX 12 12 0 -2
BITMAP
0800
0800
0800
0800
0e00
0980
0840
0800
0800
0800
0800
0000
ENDCHAR
STARTCHAR 535E
ENCODING 21342
SWIDTH 520 0
DWIDTH 12 0
BBX 12 12 0 -2
BITMAP
0800
0440
ffe0
0400
0400
0700
0480
0440
0400
0400
0400
0000
ENDCHAR
STARTCHAR 535F
ENCODING 21343
SWIDTH 520 0
DWIDTH 12 0
BBX 12 12 0 -2
BITMAP
0200
0200
f200
9200
9380
9240
9220
f200
9200
0200
0200
0000
ENDCHAR
STARTCHAR 5360
ENCODING 21344
SWIDTH 520 0
DWIDTH 12 0
BBX 12 12 0 -2
BITMAP
0400
0400
07c0
0400
0400
7f80
4080
4080
4080
7f80
4080
0000
ENDCHAR
STARTCHAR 5361
ENCODING 21345
SWIDTH 520 0
DWIDTH 12 0
BBX 12 12 0 -2
BITMAP
0800
0fc0
0800
0800
ffe0
0800
0e00
0980
0840
0800
0800
0000
ENDCHAR
STARTCHAR 5362
ENCODING 21346
SWIDTH 520 0
DWIDTH 12 0
BBX 12 12 0 -2
BITMAP
0400
07e0
0400
3fc0
2040
2040
3fc0
2000
2000
4000
8000
0000
ENDCHAR
STARTCHAR 5363
ENCODING 21347
SWIDTH 520 0
DWIDTH 12 0
BBX 12 12 0 -2
BITMAP
0400
07e0
0400
7fc0
4040
7e40
4240
4240
7e40
4040
7fc0
0000
ENDCHAR
STARTCHAR 5364
ENCODING 21348
SWIDTH 520 0
DWIDTH 12 0
BBX 12 12 0 -2
BITMAP
0400
07e0
0400
7fc0
4140
5140
4a40
4640
5940
4040
7fc0
0000
ENDCHAR
STARTCHAR 5366
ENCODING 21350
SWIDTH 520 0
DWIDTH 12 0
BBX 12 12 0 -2
BITMAP
1080
1080
7c80
1080
fec0
10a0
1080
7c80
1080
1e80
e080
0000
ENDCHAR
STARTCHAR 5367
ENCODING 21351
SWIDTH 520 0
DWIDTH 12 0
BBX 12 12 0 -2
BITMAP
fd00
9100
9100
fd00
85c0
8520
fd00
9100
9100
9100
fd00
0000
ENDCHAR
STARTCHAR 5369
ENCODING 21353
SWIDTH 520 0
DWIDTH 12 0
BBX 12 12 0 -2
BITMAP
03e0
0220
0220
0220
0220
0220
0220
02e0
0200
0200
0200
0000
ENDCHAR
STARTCHAR 536B
ENCODING 21355
SWIDTH 520 0
DWIDTH 12 0
BBX 12 12 0 -2
BITMAP
7fc0
0440
0440
0440
0440
0440
05c0
0400
0400
0400
ffe0
0000
ENDCHAR
STARTCHAR 536E
ENCODING 21358
SWIDTH 520 0
DWIDTH 12 0
BBX 12 12 0 -2
BITMAP
01c0
7e00
4000
7fe0
4000
4f80
4880
4880
4ba0
4820
8fe0
0000
ENDCHAR
STARTCHAR 536F
ENCODING 21359
SWIDTH 520 0
DWIDTH 12 0
BBX 12 12 0 -2
BITMAP
1800
63e0
4a20
4a20
4a20
4a20
5a20
6a20
12e0
2200
c200
0000
ENDCHAR
STARTCHAR 5370
ENCODING 21360
SWIDTH 520 0
DWIDTH 12 0
BBX 12 12 0 -2
BITMAP
1800
63e0
4220
4220
7a20
4220
4220
5a20
62c0
0200
0200
0000
ENDCHAR
STARTCHAR 5371
ENCODING 21361
SWIDTH 520 0
DWIDTH 12 0
BBX 12 12 0 -2
BITMAP
1000
1f00
2200
7fe0
a000
2f80
2880
2880
4ba0
4820
8fe0
0000
ENDCHAR
STARTCHAR 5373
ENCODING 21363
SWIDTH 520 0
DWIDTH 12 0
BBX 12 12 0 -2
BITMAP
fbc0
8a40
fa40
8a40
8a40
fa40
8240
9240
bac0
ca00
0200
0000
ENDCHAR
STARTCHAR 5374
ENCODING 21364
SWIDTH 520 0
DWIDTH 12 0
BBX 12 12 0 -2
BITMAP
1000
11e0
fd20
1120
1120
fd20
2120
2920
4de0
7500
0100
0000
ENDCHAR
STARTCHAR 5375
ENCODING 21365
SWIDTH 520 0
DWIDTH 12 0
BBX 12 12 0 -2
BITMAP
1c00
63e0
4a20
6b20
5aa0
4aa0
5a20
6a20
0ae0
1200
6200
0000
ENDCHAR
STARTCHAR 5377
ENCODING 21367
SWIDTH 520 0
DWIDTH 12 0
BBX 12 12 0 -2
BITMAP
2480
1500
7fc0
0800
ffe0
1100
3f80
d160
1700
1040
1fc0
0000
ENDCHAR
STARTCHAR 5378
ENCODING 21368
SWIDTH 520 0
DWIDTH 12 0
BBX 12 12 0 -2
BITMAP
4000
7de0
5120
9120
fd20
1120
5d20
5120
5de0
e100
0100
0000
ENDCHAR
STARTCHAR 537A
ENCODING 21370
SWIDTH 520 0
DWIDTH 12 0
BBX 12 12 0 -2
BITMAP
7f80
0100
f640
2580
4c80
bf60
0000
3f00
2140
2240
3fc0
0000
ENDCHAR
STARTCHAR 537F
ENCODING 21375
SWIDTH 520 0
DWIDTH 12 0
BBX 12 12 0 -2
BITMAP
2ee0
caa0
aaa0
aea0
aaa0
aea0
e8a0
2ae0
2e80
4a80
8080
0000
ENDCHAR
STARTCHAR 5382
ENCODING 21378
SWIDTH 520 0
DWIDTH 12 0
BBX 12 12 0 -2
BITMAP
7fe0
4000
4000
4000
4000
4000
4000
4000
4000
8000
8000
0000
ENDCHAR
STARTCHAR 5384
ENCODING 21380
SWIDTH 520 0
DWIDTH 12 0
BBX 12 12 0 -2
BITMAP
7fe0
4000
4000
4f80
4880
4880
4b80
4820
4820
8820
8fe0
0000
ENDCHAR
STARTCHAR 5385
ENCODING 21381
SWIDTH 520 0
DWIDTH 12 0
BBX 12 12 0 -2
BITMAP
7fe0
4000
4000
7fe0
4200
4200
4200
4200
4200
8200
8e00
0000
ENDCHAR
STARTCHAR 5386
ENCODING 21382
SWIDTH 520 0
DWIDTH 12 0
BBX 12 12 0 -2
BITMAP
7fe0
4000
4200
4200
5fe0
4220
4220
4420
4420
8840
91c0
0000
ENDCHAR
STARTCHAR 5389
ENCODING 21385
SWIDTH 520 0
DWIDTH 12 0
BBX 12 12 0 -2
BITMAP
7fe0
4000
5fe0
4400
4400
47c0
4440
4840
4840
9040
a380
0000
ENDCHAR
STARTCHAR 538B
ENCODING 21387
SWIDTH 520 0
DWIDTH 12 0
BBX 12 12 0 -2
BITMAP
7fe0
4000
4400
4400
4400
5fc0
4500
4480
4440
8400
bfe0
0000
ENDCHAR
STARTCHAR 538C
ENCODING 21388
SWIDTH 520 0
DWIDTH 12 0
BBX 12 12 0 -2
BITMAP
7fe0
4000
4280
4240
5fe0
4200
4200
4500
4880
9040
a020
0000
ENDCHAR
STARTCHAR 538D
ENCODING 21389
SWIDTH 520 0
DWIDTH 12 0
BBX 12 12 0 -2
BITMAP
7fe0
4400
4400
5fc0
4a00
5200
5fc0
4200
7fe0
8200
8200
0000
ENDCHAR
STARTCHAR 5395
ENCODING 21397
SWIDTH 520 0
DWIDTH 12 0
BBX 12 12 0 -2
BITMAP
7fe0
4000
5e20
52a0
5aa0
5aa0
5aa0
5aa0
4ca0
9220
a260
0000
ENDCHAR
STARTCHAR 5398
ENCODING 21400
SWIDTH 520 0
DWIDTH 12 0
BBX 12 12 0 -2
BITMAP
7fe0
4000
5fc0
5240
5fc0
5240
5fc0
4200
5fc0
8200
bfe0
0000
ENDCHAR
STARTCHAR 539A
ENCODING 21402
SWIDTH 520 0
DWIDTH 12 0
BBX 12 12 0 -2
BITMAP
7fe0
4000
5f80
5080
5f80
4000
5f80
4100
7fe0
8200
8e00
0000
ENDCHAR
STARTCHAR 539D
ENCODING 21405
SWIDTH 520 0
DWIDTH 12 0
BBX 12 12 0 -2
BITMAP
7fe0
4900
5fc0
4900
7fe0
4000
5f80
5080
5f80
9080
9f80
0000
ENDCHAR
STARTCHAR 539F
ENCODING 21407
SWIDTH 520 0
DWIDTH 12 0
BBX 12 12 0 -2
BITMAP
7fe0
4200
5fc0
5040
5fc0
5040
5fc0
4200
4a80
9240
a620
0000
ENDCHAR
STARTCHAR 53A2
ENCODING 21410
SWIDTH 520 0
DWIDTH 12 0
BBX 12 12 0 -2
BITMAP
7fe0
4000
4bc0
7e40
4bc0
4a40
5e40
6bc0
4a40
8bc0
8a40
0000
ENDCHAR
STARTCHAR 53A3
ENCODING 21411
SWIDTH 520 0
DWIDTH 12 0
BBX 12 12 0 -2
BITMAP
7fe0
4480
5fe0
4900
5f80
7260
5fc0
5240
5fc0
8200
8200
0000
ENDCHAR
STARTCHAR 53A5
ENCODING 21413
SWIDTH 520 0
DWIDTH 12 0
BBX 12 12 0 -2
BITMAP
7fe0
4000
5480
7ee0
4920
6a80
6a80
7e80
4940
9240
a420
0000
ENDCHAR
STARTCHAR 53A6
ENCODING 21414
SWIDTH 520 0
DWIDTH 12 0
BBX 12 12 0 -2
BITMAP
7fe0
4000
7fe0
4840
4fc0
4840
4fc0
4880
5480
8300
bce0
0000
ENDCHAR
STARTCHAR 53A8
ENCODING 21416
SWIDTH 520 0
DWIDTH 12 0
BBX 12 12 0 -2
BITMAP
7fe0
4040
7e40
4040
7de0
6440
7d40
40c0
5440
8e40
b1c0
0000
ENDCHAR
STARTCHAR 53A9
ENCODING 21417
SWIDTH 520 0
DWIDTH 12 0
BBX 12 12 0 -2
BITMAP
7fe0
4000
5fe0
5480
5e80
57e0
5c80
5180
5ea0
92a0
84e0
0000
ENDCHAR
STARTCHAR 53AE
ENCODING 21422
SWIDTH 520 0
DWIDTH 12 0
BBX 12 12 0 -2
BITMAP
7fe0
4000
54e0
7f00
55e0
5d40
5540
7f40
4140
9540
a240
0000
ENDCHAR
STARTCHAR 53B6
ENCODING 21430
SWIDTH 520 0
DWIDTH 12 0
BBX 12 12 0 -2
BITMAP
0400
0400
0400
0800
0800
1000
1100
2080
4040
7fe0
0020
0000
ENDCHAR
STARTCHAR 53BB
ENCODING 21435
SWIDTH 520 0
DWIDTH 12 0
BBX 12 12 0 -2
BITMAP
0400
0480
7fc0
0400
0400
ffe0
0400
0900
1080
2040
3fc0
0000
ENDCHAR
STARTCHAR 53BF
ENCODING 21439
SWIDTH 520 0
DWIDTH 12 0
BBX 12 12 0 -2
BITMAP
3f00
2100
3f00
2100
3f00
2100
2100
ffe0
1200
2100
7fc0
0000
ENDCHAR
STARTCHAR 53C1
ENCODING 21441
SWIDTH 520 0
DWIDTH 12 0
BBX 12 12 0 -2
BITMAP
0800
1100
3f80
0800
ffe0
1100
3f80
c060
1f00
0000
ffe0
0000
ENDCHAR
STARTCHAR 53C2
ENCODING 21442
SWIDTH 520 0
DWIDTH 12 0
BBX 12 12 0 -2
BITMAP
0900
1080
7fc0
0800
ffe0
2500
4880
b260
0c80
0300
7c00
0000
ENDCHAR
STARTCHAR 53C8
ENCODING 21448
SWIDTH 520 0
DWIDTH 12 0
BBX 12 12 0 -2
BITMAP
7f80
1080
1080
1080
1100
0900
0a00
0400
0a00
3180
c060
0000
ENDCHAR
STARTCHAR 53C9
ENCODING 21449
SWIDTH 520 0
DWIDTH 12 0
BBX 12 12 0 -2
BITMAP
7fc0
2840
2480
1480
1100
0900
0a00
0400
0a00
3180
c060
0000
ENDCHAR
STARTCHAR 53CA
ENCODING 21450
SWIDTH 520 0
DWIDTH 12 0
BBX 12 12 0 -2
BITMAP
7f80
1080
1100
1100
19c0
1440
1480
2300
2300
4c80
b060
0000
ENDCHAR
STARTCHAR 53CB
ENCODING 21451
SWIDTH 520 0
DWIDTH 12 0
BBX 12 12 0 -2
BITMAP
0800
0840
ffe0
0800
0f80
0880
1480
1500
2200
4580
b860
0000
ENDCHAR
STARTCHAR 53CC
ENCODING 21452
SWIDTH 520 0
DWIDTH 12 0
BBX 12 12 0 -2
BITMAP
0840
ffe0
0a40
4a40
2a40
1140
1140
2880
4980
8240
0c20
0000
ENDCHAR
STARTCHAR 53CD
ENCODING 21453
SWIDTH 520 0
DWIDTH 12 0
BBX 12 12 0 -2
BITMAP
03c0
3c00
2000
3fc0
2040
2880
2880
2500
4200
4d00
b0e0
0000
ENDCHAR
STARTCHAR 53D1
ENCODING 21457
SWIDTH 520 0
DWIDTH 12 0
BBX 12 12 0 -2
BITMAP
0900
4880
4800
ffe0
1000
1f80
1480
2500
2200
4d80
b060
0000
ENDCHAR
STARTCHAR 53D4
ENCODING 21460
SWIDTH 520 0
DWIDTH 12 0
BBX 12 12 0 -2
BITMAP
1000
13e0
1e20
1220
fd40
1140
5880
5480
9540
9240
3420
0000
ENDCHAR
STARTCHAR 53D6
ENCODING 21462
SWIDTH 520 0
DWIDTH 12 0
BBX 12 12 0 -2
BITMAP
fc00
4bc0
4a40
7a40
4a40
7a40
4a80
5d00
e980
0a40
0c20
0000
ENDCHAR
STARTCHAR 53D7
ENCODING 21463
SWIDTH 520 0
DWIDTH 12 0
BBX 12 12 0 -2
BITMAP
03c0
7c00
2480
1500
7fe0
c020
1f80
0900
0600
1900
e0e0
0000
ENDCHAR
STARTCHAR 53D8
ENCODING 21464
SWIDTH 520 0
DWIDTH 12 0
BBX 12 12 0 -2
BITMAP
0400
ffe0
0a00
2a80
4a40
bfa0
1080
0900
0600
1980
e060
0000
ENDCHAR
STARTCHAR 53D9
ENCODING 21465
SWIDTH 520 0
DWIDTH 12 0
BBX 12 12 0 -2
BITMAP
3000
2be0
4620
fa20
1240
1140
fd40
5880
5480
9140
3620
0000
ENDCHAR
STARTCHAR 53DB
ENCODING 21467
SWIDTH 520 0
DWIDTH 12 0
BBX 12 12 0 -2
BITMAP
2060
ab80
7200
2200
fbc0
2240
fb40
2280
2480
4540
8a20
0000
ENDCHAR
STARTCHAR 53DF
ENCODING 21471
SWIDTH 520 0
DWIDTH 12 0
BBX 12 12 0 -2
BITMAP
0400
3dc0
2440
3dc0
2440
3fc0
0400
7f80
0900
0600
f9e0
0000
ENDCHAR
STARTCHAR 53E0
ENCODING 21472
SWIDTH 520 0
DWIDTH 12 0
BBX 12 12 0 -2
BITMAP
1f80
0600
0900
7bc0
3180
4a40
ffe0
90a0
1f80
1080
ffe0
0000
ENDCHAR
STARTCHAR 53E3
ENCODING 21475
SWIDTH 520 0
DWIDTH 12 0
BBX 12 12 0 -2
BITMAP
0000
7fc0
4040
4040
4040
4040
4040
4040
7fc0
4040
0000
0000
ENDCHAR
STARTCHAR 53E4
ENCODING 21476
SWIDTH 520 0
DWIDTH 12 0
BBX 12 12 0 -2
BITMAP
0400
0400
ffe0
0400
0400
0400
3f80
2080
2080
2080
3f80
0000
ENDCHAR
STARTCHAR 53E5
ENCODING 21477
SWIDTH 520 0
DWIDTH 12 0
BBX 12 12 0 -2
BITMAP
1000
1fe0
2020
4020
be20
2220
2220
3e20
2220
0020
01c0
0000
ENDCHAR
STARTCHAR 53E6
ENCODING 21478
SWIDTH 520 0
DWIDTH 12 0
BBX 12 12 0 -2
BITMAP
3f80
2080
2080
3f80
0400
7fc0
0440
0440
0840
1040
e380
0000
ENDCHAR
STARTCHAR 53E8
ENCODING 21480
SWIDTH 520 0
DWIDTH 12 0
BBX 12 12 0 -2
BITMAP
0fe0
f220
9220
9220
9220
9220
f220
9220
0420
0820
31c0
0000
ENDCHAR
STARTCHAR 53E9
ENCODING 21481
SWIDTH 520 0
DWIDTH 12 0
BBX 12 12 0 -2
BITMAP
03c0
7a40
4a40
4a40
4a40
4a40
7a40
4a40
02c0
0200
0200
0000
ENDCHAR
STARTCHAR 53EA
ENCODING 21482
SWIDTH 520 0
DWIDTH 12 0
BBX 12 12 0 -2
BITMAP
3f80
2080
2080
2080
2080
3f80
0000
1100
2080
4040
8020
0000
ENDCHAR
STARTCHAR 53EB
ENCODING 21483
SWIDTH 520 0
DWIDTH 12 0
BBX 12 12 0 -2
BITMAP
0040
f240
9240
9240
9240
9240
92c0
f340
9040
0040
0040
0000
ENDCHAR
STARTCHAR 53EC
ENCODING 21484
SWIDTH 520 0
DWIDTH 12 0
BBX 12 12 0 -2
BITMAP
7fc0
0840
0840
0840
1380
2000
dfc0
1040
1040
1fc0
1040
0000
ENDCHAR
STARTCHAR 53ED
ENCODING 21485
SWIDTH 520 0
DWIDTH 12 0
BBX 12 12 0 -2
BITMAP
0080
0280
f280
9280
9280
9280
9480
f480
0840
1040
2020
0000
ENDCHAR
STARTCHAR 53EE
ENCODING 21486
SWIDTH 520 0
DWIDTH 12 0
BBX 12 12 0 -2
BITMAP
0040
f7e0
9080
9080
9080
9080
f080
9080
8080
0080
0380
0000
ENDCHAR
STARTCHAR 53EF
ENCODING 21487
SWIDTH 520 0
DWIDTH 12 0
BBX 12 12 0 -2
BITMAP
0040
ffe0
0080
7c80
4480
4480
4480
7c80
4480
0080
0380
0000
ENDCHAR
STARTCHAR 53F0
ENCODING 21488
SWIDTH 520 0
DWIDTH 12 0
BBX 12 12 0 -2
BITMAP
0400
0800
1100
2080
7fc0
0000
3f80
2080
2080
2080
3f80
0000
ENDCHAR
STARTCHAR 53F1
ENCODING 21489
SWIDTH 520 0
DWIDTH 12 0
BBX 12 12 0 -2
BITMAP
0200
0200
f240
9240
9280
9300
9600
fa00
9220
0220
03e0
0000
ENDCHAR
STARTCHAR 53F2
ENCODING 21490
SWIDTH 520 0
DWIDTH 12 0
BBX 12 12 0 -2
BITMAP
0400
0400
3fc0
2440
2440
3fc0
0400
1400
0c00
1200
e1e0
0000
ENDCHAR
STARTCHAR 53F3
ENCODING 21491
SWIDTH 520 0
DWIDTH 12 0
BBX 12 12 0 -2
BITMAP
0400
0400
ffe0
0800
1000
1fc0
3040
5040
9040
1fc0
1040
0000
ENDCHAR
STARTCHAR 53F5
ENCODING 21493
SWIDTH 520 0
DWIDTH 12 0
BBX 12 12 0 -2
BITMAP
7fe0
4000
4000
4f80
4880
4880
4880
4f80
4000
4000
7fe0
0000
ENDCHAR
STARTCHAR 53F6
ENCODING 21494
SWIDTH 520 0
DWIDTH 12 0
BBX 12 12 0 -2
BITMAP
0100
f100
9100
9100
9fe0
9100
9100
f100
0100
0100
0100
0000
ENDCHAR
STARTCHAR 53F7
ENCODING 21495
SWIDTH 520 0
DWIDTH 12 0
BBX 12 12 0 -2
BITMAP
3f80
2080
2080
3f80
0000
ffe0
1000
1f80
0080
0080
0700
0000
ENDCHAR
STARTCHAR 53F8
ENCODING 21496
SWIDTH 520 0
DWIDTH 12 0
BBX 12 12 0 -2
BITMAP
7fc0
0040
0240
ff40
0040
3e40
2240
2240
3e40
0040
01c0
0000
ENDCHAR
STARTCHAR 53F9
ENCODING 21497
SWIDTH 520 0
DWIDTH 12 0
BBX 12 12 0 -2
BITMAP
0040
ffe0
9440
9440
9440
9280
f280
9100
0280
0440
1820
0000
ENDCHAR
STARTCHAR 53FB
ENCODING 21499
SWIDTH 520 0
DWIDTH 12 0
BBX 12 12 0 -2
BITMAP
0100
f100
9100
97e0
9120
9120
9120
f220
9220
0420
19c0
0000
ENDCHAR
STARTCHAR 53FC
ENCODING 21500
SWIDTH 520 0
DWIDTH 12 0
BBX 12 12 0 -2
BITMAP
0020
f7e0
9020
9060
90a0
9120
9220
f420
8020
0320
00c0
0000
ENDCHAR
STARTCHAR 53FD
ENCODING 21501
SWIDTH 520 0
DWIDTH 12 0
BBX 12 12 0 -2
BITMAP
0780
f480
9480
9480
9480
9480
f480
9480
08a0
10a0
20e0
0000
ENDCHAR
STARTCHAR 5401
ENCODING 21505
SWIDTH 520 0
DWIDTH 12 0
BBX 12 12 0 -2
BITMAP
0fe0
f100
9100
9100
9fe0
9100
f100
9100
0100
0100
0700
0000
ENDCHAR
STARTCHAR 5403
ENCODING 21507
SWIDTH 520 0
DWIDTH 12 0
BBX 12 12 0 -2
BITMAP
0200
f200
97e0
9800
9780
9080
9100
f200
0420
0420
07e0
0000
ENDCHAR
STARTCHAR 5404
ENCODING 21508
SWIDTH 520 0
DWIDTH 12 0
BBX 12 12 0 -2
BITMAP
1000
1f80
3100
4a00
8400
0b00
30e0
df80
1080
1080
1f80
0000
ENDCHAR
STARTCHAR 5406
ENCODING 21510
SWIDTH 520 0
DWIDTH 12 0
BBX 12 12 0 -2
BITMAP
0100
f100
9240
9440
9880
9f00
9100
f240
9420
0fe0
0020
0000
ENDCHAR
STARTCHAR 5408
ENCODING 21512
SWIDTH 520 0
DWIDTH 12 0
BBX 12 12 0 -2
BITMAP
0400
0a00
1100
2080
df60
0000
0000
3f80
2080
2080
3f80
0000
ENDCHAR
STARTCHAR 5409
ENCODING 21513
SWIDTH 520 0
DWIDTH 12 0
BBX 12 12 0 -2
BITMAP
0400
0400
ffe0
0400
7fc0
0000
3f80
2080
2080
3f80
2080
0000
ENDCHAR
STARTCHAR 540A
ENCODING 21514
SWIDTH 520 0
DWIDTH 12 0
BBX 12 12 0 -2
BITMAP
3f80
2080
2080
3f80
0400
7fc0
4440
4440
4440
45c0
0400
0000
ENDCHAR
STARTCHAR 540C
ENCODING 21516
SWIDTH 520 0
DWIDTH 12 0
BBX 12 12 0 -2
BITMAP
7fe0
4020
7fa0
4020
5f20
5120
5120
5f20
5120
4020
40e0
0000
ENDCHAR
STARTCHAR 540D
ENCODING 21517
SWIDTH 520 0
DWIDTH 12 0
BBX 12 12 0 -2
BITMAP
0800
0fc0
1080
3100
4a00
0400
0fc0
3040
d040
1040
1fc0
0000
ENDCHAR
STARTCHAR 540E
ENCODING 21518
SWIDTH 520 0
DWIDTH 12 0
BBX 12 12 0 -2
BITMAP
0fc0
3000
2000
3fe0
2000
2000
2fc0
2840
4840
4fc0
8840
0000
ENDCHAR
STARTCHAR 540F
ENCODING 21519
SWIDTH 520 0
DWIDTH 12 0
BBX 12 12 0 -2
BITMAP
0400
ffe0
0400
3fc0
2440
2440
3fc0
1400
0800
1600
e1e0
0000
ENDCHAR
STARTCHAR 5410
ENCODING 21520
SWIDTH 520 0
DWIDTH 12 0
BBX 12 12 0 -2
BITMAP
0100
0100
f100
9100
9fe0
9100
9100
f100
9100
0100
1fe0
0000
ENDCHAR
STARTCHAR 5411
ENCODING 21521
SWIDTH 520 0
DWIDTH 12 0
BBX 12 12 0 -2
BITMAP
0400
0840
7fe0
4040
5f40
5140
5140
5f40
4040
4040
41c0
0000
ENDCHAR
STARTCHAR 5412
ENCODING 21522
SWIDTH 520 0
DWIDTH 12 0
BBX 12 12 0 -2
BITMAP
01c0
fe00
9200
9200
93e0
9e00
f200
9200
0220
0220
03e0
0000
ENDCHAR
STARTCHAR 5413
ENCODING 21523
SWIDTH 520 0
DWIDTH 12 0
BBX 12 12 0 -2
BITMAP
0fe0
f200
9200
9200
9380
9240
f220
9200
0200
0200
0200
0000
ENDCHAR
STARTCHAR 5415
ENCODING 21525
SWIDTH 520 0
DWIDTH 12 0
BBX 12 12 0 -2
BITMAP
3f80
2080
2080
2080
3f80
0000
7fc0
4040
4040
7fc0
4040
0000
ENDCHAR
STARTCHAR 5416
ENCODING 21526
SWIDTH 520 0
DWIDTH 12 0
BBX 12 12 0 -2
BITMAP
0820
f440
9280
9100
9100
9100
f100
9100
0100
0100
0100
0000
ENDCHAR
STARTCHAR 5417
ENCODING 21527
SWIDTH 520 0
DWIDTH 12 0
BBX 12 12 0 -2
BITMAP
0fc0
f040
9440
9440
9440
97e0
f020
9fa0
0020
0020
01c0
0000
ENDCHAR
STARTCHAR 541B
ENCODING 21531
SWIDTH 520 0
DWIDTH 12 0
BBX 12 12 0 -2
BITMAP
7f80
0880
ffe0
0880
7f80
1000
1000
3fc0
5040
9040
1fc0
0000
ENDCHAR
STARTCHAR 541D
ENCODING 21533
SWIDTH 520 0
DWIDTH 12 0
BBX 12 12 0 -2
BITMAP
0400
ffe0
1100
0a00
0400
1b00
e0e0
3f80
2080
2080
3f80
0000
ENDCHAR
STARTCHAR 541E
ENCODING 21534
SWIDTH 520 0
DWIDTH 12 0
BBX 12 12 0 -2
BITMAP
7fc0
0400
0400
ffe0
1100
2080
5fe0
9080
1080
1080
1f80
0000
ENDCHAR
STARTCHAR 541F
ENCODING 21535
SWIDTH 520 0
DWIDTH 12 0
BBX 12 12 0 -2
BITMAP
0200
e300
a480
a840
b220
a100
afc0
e040
8080
0100
0100
0000
ENDCHAR
STARTCHAR 5420
ENCODING 21536
SWIDTH 520 0
DWIDTH 12 0
BBX 12 12 0 -2
BITMAP
0200
f280
9240
9fe0
9200
9200
f200
9500
0480
0840
3020
0000
ENDCHAR
STARTCHAR 5421
ENCODING 21537
SWIDTH 520 0
DWIDTH 12 0
BBX 12 12 0 -2
BITMAP
0880
0880
e880
a8a0
aec0
a880
a880
e880
aaa0
0ca0
08e0
0000
ENDCHAR
STARTCHAR 5423
ENCODING 21539
SWIDTH 520 0
DWIDTH 12 0
BBX 12 12 0 -2
BITMAP
0200
e100
a500
a400
a440
ac20
b420
e420
a440
0440
07c0
0000
ENDCHAR
STARTCHAR 5426
ENCODING 21542
SWIDTH 520 0
DWIDTH 12 0
BBX 12 12 0 -2
BITMAP
ffe0
0400
0f00
34c0
c420
0400
3f80
2080
2080
3f80
2080
0000
ENDCHAR
STARTCHAR 5427
ENCODING 21543
SWIDTH 520 0
DWIDTH 12 0
BBX 12 12 0 -2
BITMAP
0040
efe0
a940
a940
a940
afc0
a800
e800
0820
0820
07e0
0000
ENDCHAR
STARTCHAR 5428
ENCODING 21544
SWIDTH 520 0
DWIDTH 12 0
BBX 12 12 0 -2
BITMAP
0100
e100
bfe0
a100
a940
a940
a940
efc0
a100
0120
01e0
0000
ENDCHAR
STARTCHAR 5429
ENCODING 21545
SWIDTH 520 0
DWIDTH 12 0
BBX 12 12 0 -2
BITMAP
0280
e280
a440
a440
a820
b7c0
a240
e240
0440
0840
3380
0000
ENDCHAR
STARTCHAR 542B
ENCODING 21547
SWIDTH 520 0
DWIDTH 12 0
BBX 12 12 0 -2
BITMAP
0400
0a00
1100
2480
df60
0100
0200
3f80
2080
2080
3f80
0000
ENDCHAR
STARTCHAR 542C
ENCODING 21548
SWIDTH 520 0
DWIDTH 12 0
BBX 12 12 0 -2
BITMAP
00c0
f700
9400
9400
97e0
9480
f480
9480
0880
1080
2080
0000
ENDCHAR
STARTCHAR 542D
ENCODING 21549
SWIDTH 520 0
DWIDTH 12 0
BBX 12 12 0 -2
BITMAP
0200
e100
afe0
a000
a780
a480
e480
a480
04a0
08a0
30e0
0000
ENDCHAR
STARTCHAR 542E
ENCODING 21550
SWIDTH 520 0
DWIDTH 12 0
BBX 12 12 0 -2
BITMAP
0200
f280
9440
9fe0
9020
9480
9480
f480
04a0
08a0
30e0
0000
ENDCHAR
STARTCHAR 542F
ENCODING 21551
SWIDTH 520 0
DWIDTH 12 0
BBX 12 12 0 -2
BITMAP
0400
3fc0
2040
2040
3fc0
2000
3fc0
3040
5040
5040
9fc0
0000
ENDCHAR
STARTCHAR 5431
ENCODING 21553
SWIDTH 520 0
DWIDTH 12 0
BBX 12 12 0 -2
BITMAP
0100
f100
9fe0
9100
9100
9fc0
f440
9280
8100
0280
3c60
0000
ENDCHAR
STARTCHAR 5432
ENCODING 21554
SWIDTH 520 0
DWIDTH 12 0
BBX 12 12 0 -2
BITMAP
0f20
e120
a120
af20
a820
a820
ef20
a120
0120
0120
0e20
0000
ENDCHAR
STARTCHAR 5434
ENCODING 21556
SWIDTH 520 0
DWIDTH 12 0
BBX 12 12 0 -2
BITMAP
3f80
2080
2080
3f80
0000
7fc0
0400
ffe0
0a00
1180
e060
0000
ENDCHAR
STARTCHAR 5435
ENCODING 21557
SWIDTH 520 0
DWIDTH 12 0
BBX 12 12 0 -2
BITMAP
0100
e100
a540
a520
a920
a900
e120
a040
0080
0300
3c00
0000
ENDCHAR
STARTCHAR 5438
ENCODING 21560
SWIDTH 520 0
DWIDTH 12 0
BBX 12 12 0 -2
BITMAP
0fc0
e480
a480
a500
a5c0
a440
ea80
aa80
0900
1280
2c60
0000
ENDCHAR
STARTCHAR 5439
ENCODING 21561
SWIDTH 520 0
DWIDTH 12 0
BBX 12 12 0 -2
BITMAP
0200
f200
97e0
9420
9940
9100
9100
f280
0280
0440
1820
0000
ENDCHAR
STARTCHAR 543B
ENCODING 21563
SWIDTH 520 0
DWIDTH 12 0
BBX 12 12 0 -2
BITMAP
0400
e400
a7e0
aaa0
b2a0
a4a0
e520
a920
1220
0440
19c0
0000
ENDCHAR
STARTCHAR 543C
ENCODING 21564
SWIDTH 520 0
DWIDTH 12 0
BBX 12 12 0 -2
BITMAP
1e80
e280
a480
a480
a480
a680
fc80
a480
04a0
04a0
1ce0
0000
ENDCHAR
STARTCHAR 543E
ENCODING 21566
SWIDTH 520 0
DWIDTH 12 0
BBX 12 12 0 -2
BITMAP
ffc0
0800
7f00
1100
1100
ffe0
0000
3f80
2080
2080
3f80
0000
ENDCHAR
STARTCHAR 5440
ENCODING 21568
SWIDTH 520 0
DWIDTH 12 0
BBX 12 12 0 -2
BITMAP
07e0
f080
9480
9480
97e0
9080
f180
9280
0480
0880
3380
0000
ENDCHAR
STARTCHAR 5443
ENCODING 21571
SWIDTH 520 0
DWIDTH 12 0
BBX 12 12 0 -2
BITMAP
0fe0
e800
a800
abc0
aa40
aa40
ea40
aac0
0a20
1220
23e0
0000
ENDCHAR
STARTCHAR 5446
ENCODING 21574
SWIDTH 520 0
DWIDTH 12 0
BBX 12 12 0 -2
BITMAP
3f80
2080
2080
3f80
0400
ffe0
0e00
1500
2480
4460
8400
0000
ENDCHAR
STARTCHAR 5448
ENCODING 21576
SWIDTH 520 0
DWIDTH 12 0
BBX 12 12 0 -2
BITMAP
3f80
2080
2080
3f80
0000
7fc0
0400
3f80
0400
0400
ffe0
0000
ENDCHAR
STARTCHAR 544A
ENCODING 21578
SWIDTH 520 0
DWIDTH 12 0
BBX 12 12 0 -2
BITMAP
2400
2480
3fc0
4400
ffe0
0000
3f80
2080
2080
3f80
2080
0000
ENDCHAR
STARTCHAR 544B
ENCODING 21579
SWIDTH 520 0
DWIDTH 12 0
BBX 12 12 0 -2
BITMAP
0200
e200
bfe0
a200
a200
bfe0
e200
a300
0480
0840
3020
0000
ENDCHAR
STARTCHAR 5450
ENCODING 21584
SWIDTH 520 0
DWIDTH 12 0
BBX 12 12 0 -2
BITMAP
0100
e100
afe0
a920
a920
a920
eaa0
aca0
0820
0820
08e0
0000
ENDCHAR
STARTCHAR 5452
ENCODING 21586
SWIDTH 520 0
DWIDTH 12 0
BBX 12 12 0 -2
BITMAP
0fc0
f200
9200
9200
9fe0
9300
9500
f500
0920
1120
21e0
0000
ENDCHAR
STARTCHAR 5453
ENCODING 21587
SWIDTH 520 0
DWIDTH 12 0
BBX 12 12 0 -2
BITMAP
0480
ffe0
9480
9000
9fc0
9080
9100
f200
9420
0820
0fe0
0000
ENDCHAR
STARTCHAR 5454
ENCODING 21588
SWIDTH 520 0
DWIDTH 12 0
BBX 12 12 0 -2
BITMAP
0200
f200
9200
9fe0
9200
9200
9300
f500
0480
0a40
1120
0000
ENDCHAR
STARTCHAR 5455
ENCODING 21589
SWIDTH 520 0
DWIDTH 12 0
BBX 12 12 0 -2
BITMAP
0fe0
e800
a840
aa40
a980
a880
e980
aa40
0c40
0800
0fe0
0000
ENDCHAR
STARTCHAR 5456
ENCODING 21590
SWIDTH 520 0
DWIDTH 12 0
BBX 12 12 0 -2
BITMAP
0fe0
e900
a900
afe0
a920
a920
e920
a920
0a20
1420
29c0
0000
ENDCHAR
STARTCHAR 5457
ENCODING 21591
SWIDTH 520 0
DWIDTH 12 0
BBX 12 12 0 -2
BITMAP
07c0
f440
9540
9540
9540
9540
f540
9540
0280
0440
1820
0000
ENDCHAR
STARTCHAR 5458
ENCODING 21592
SWIDTH 520 0
DWIDTH 12 0
BBX 12 12 0 -2
BITMAP
3f80
2080
3f80
0000
3fc0
2040
2440
2440
2640
0900
f0c0
0000
ENDCHAR
STARTCHAR 5459
ENCODING 21593
SWIDTH 520 0
DWIDTH 12 0
BBX 12 12 0 -2
BITMAP
3f80
2080
2080
3f80
0400
ffc0
8440
8a40
9140
a040
81c0
0000
ENDCHAR
STARTCHAR 545B
ENCODING 21595
SWIDTH 520 0
DWIDTH 12 0
BBX 12 12 0 -2
BITMAP
0200
0300
e480
a840
b7a0
a480
a480
e480
0580
0420
07e0
0000
ENDCHAR
STARTCHAR 545C
ENCODING 21596
SWIDTH 520 0
DWIDTH 12 0
BBX 12 12 0 -2
BITMAP
0200
f7c0
9440
9440
95c0
9400
f7e0
9020
0fa0
0020
01c0
0000
ENDCHAR
STARTCHAR 5462
ENCODING 21602
SWIDTH 520 0
DWIDTH 12 0
BBX 12 12 0 -2
BITMAP
07e0
f420
9420
97e0
9400
9640
f680
9b00
0a20
1220
21e0
0000
ENDCHAR
STARTCHAR 5464
ENCODING 21604
SWIDTH 520 0
DWIDTH 12 0
BBX 12 12 0 -2
BITMAP
0200
e200
a500
a480
aa40
b120
efc0
a080
0500
0200
0100
0000
ENDCHAR
STARTCHAR 5466
ENCODING 21606
SWIDTH 520 0
DWIDTH 12 0
BBX 12 12 0 -2
BITMAP
0480
0480
ea80
abe0
aca0
a4a0
a8a0
eaa0
9ea0
0120
02c0
0000
ENDCHAR
STARTCHAR 5468
ENCODING 21608
SWIDTH 520 0
DWIDTH 12 0
BBX 12 12 0 -2
BITMAP
3fe0
2420
2f20
2420
3fa0
2020
2f20
2920
4f20
4020
80e0
0000
ENDCHAR
STARTCHAR 5471
ENCODING 21617
SWIDTH 520 0
DWIDTH 12 0
BBX 12 12 0 -2
BITMAP
00c0
ef80
aa80
aa80
aa80
aa80
ea80
aa40
12c0
13a0
2000
0000
ENDCHAR
STARTCHAR 5472
ENCODING 21618
SWIDTH 520 0
DWIDTH 12 0
BBX 12 12 0 -2
BITMAP
0280
e280
a280
aaa0
abc0
aa80
ea80
aa80
0ba0
0ea0
18e0
0000
ENDCHAR
STARTCHAR 5473
ENCODING 21619
SWIDTH 520 0
DWIDTH 12 0
BBX 12 12 0 -2
BITMAP
0200
e200
afc0
a200
bfe0
a200
e300
a680
0a40
1220
2200
0000
ENDCHAR
STARTCHAR 5475
ENCODING 21621
SWIDTH 520 0
DWIDTH 12 0
BBX 12 12 0 -2
BITMAP
0fe0
e040
a040
af40
a940
a940
ef40
a940
8040
0040
01c0
0000
ENDCHAR
STARTCHAR 5476
ENCODING 21622
SWIDTH 520 0
DWIDTH 12 0
BBX 12 12 0 -2
BITMAP
0800
e9e0
bea0
aaa0
aaa0
aaa0
aa40
e440
0ac0
1120
2620
0000
ENDCHAR
STARTCHAR 5477
ENCODING 21623
SWIDTH 520 0
DWIDTH 12 0
BBX 12 12 0 -2
BITMAP
0fe0
e920
a920
afe0
a920
a920
efe0
a100
0100
0100
0100
0000
ENDCHAR
STARTCHAR 5478
ENCODING 21624
SWIDTH 520 0
DWIDTH 12 0
BBX 12 12 0 -2
BITMAP
0fe0
f100
9100
9200
9200
9680
fa40
9240
0200
0200
3fe0
0000
ENDCHAR
STARTCHAR 547B
ENCODING 21627
SWIDTH 520 0
DWIDTH 12 0
BBX 12 12 0 -2
BITMAP
0100
e100
afe0
a920
afe0
a920
a920
efe0
0100
0100
0100
0000
ENDCHAR
STARTCHAR 547C
ENCODING 21628
SWIDTH 520 0
DWIDTH 12 0
BBX 12 12 0 -2
BITMAP
00c0
ff00
9120
9940
9580
9fe0
9100
f100
0100
0100
0700
0000
ENDCHAR
STARTCHAR 547D
ENCODING 21629
SWIDTH 520 0
DWIDTH 12 0
BBX 12 12 0 -2
BITMAP
0400
0a00
1100
3f80
c060
7bc0
4a40
4a40
7a40
4ac0
0200
0000
ENDCHAR
STARTCHAR 5480
ENCODING 21632
SWIDTH 520 0
DWIDTH 12 0
BBX 12 12 0 -2
BITMAP
07c0
f440
9440
9440
97c0
9440
9440
f7c0
0440
0440
1fe0
0000
ENDCHAR
STARTCHAR 5482
ENCODING 21634
SWIDTH 520 0
DWIDTH 12 0
BBX 12 12 0 -2
BITMAP
0fe0
e880
a880
abe0
aaa0
aaa0
eaa0
aae0
0880
0880
0fe0
0000
ENDCHAR
STARTCHAR 5484
ENCODING 21636
SWIDTH 520 0
DWIDTH 12 0
BBX 12 12 0 -2
BITMAP
0100
e920
a920
a920
afe0
a100
a920
e920
0920
0920
0fe0
0000
ENDCHAR
STARTCHAR 5486
ENCODING 21638
SWIDTH 520 0
DWIDTH 12 0
BBX 12 12 0 -2
BITMAP
0400
f7c0
9440
9f40
9540
9540
9740
f4c0
0420
0420
07e0
0000
ENDCHAR
STARTCHAR 548B
ENCODING 21643
SWIDTH 520 0
DWIDTH 12 0
BBX 12 12 0 -2
BITMAP
0200
0200
f7e0
9a00
9200
93c0
9200
f200
03e0
0200
0200
0000
ENDCHAR
STARTCHAR 548C
ENCODING 21644
SWIDTH 520 0
DWIDTH 12 0
BBX 12 12 0 -2
BITMAP
0c00
f3e0
1220
fe20
1220
1a20
3620
5220
93e0
1220
1000
0000
ENDCHAR
STARTCHAR 548E
ENCODING 21646
SWIDTH 520 0
DWIDTH 12 0
BBX 12 12 0 -2
BITMAP
2100
3d00
45c0
a920
1100
2c00
c3e0
3f80
2080
2080
3f80
0000
ENDCHAR
STARTCHAR 548F
ENCODING 21647
SWIDTH 520 0
DWIDTH 12 0
BBX 12 12 0 -2
BITMAP
0600
0100
ee00
a260
ba80
ab00
aa80
ea80
1240
2220
4e00
0000
ENDCHAR
STARTCHAR 5490
ENCODING 21648
SWIDTH 520 0
DWIDTH 12 0
BBX 12 12 0 -2
BITMAP
0440
e440
a440
afe0
b840
aa40
a940
e940
a840
0840
09c0
0000
ENDCHAR
STARTCHAR 5492
ENCODING 21650
SWIDTH 520 0
DWIDTH 12 0
BBX 12 12 0 -2
BITMAP
7bc0
4a40
4a40
7bc0
0000
1f00
1100
1100
1120
2120
c1e0
0000
ENDCHAR
STARTCHAR 5494
ENCODING 21652
SWIDTH 520 0
DWIDTH 12 0
BBX 12 12 0 -2
BITMAP
0200
e200
a3e0
a200
bfe0
a200
a380
e240
a220
0200
0200
0000
ENDCHAR
STARTCHAR 5495
ENCODING 21653
SWIDTH 520 0
DWIDTH 12 0
BBX 12 12 0 -2
BITMAP
0100
f100
9fe0
9100
9100
9100
97c0
f440
0440
0440
07c0
0000
ENDCHAR
STARTCHAR 5496
ENCODING 21654
SWIDTH 520 0
DWIDTH 12 0
BBX 12 12 0 -2
BITMAP
0800
e8e0
bea0
aaa0
aaa0
aaa0
aaa0
eaa0
92a0
16e0
2080
0000
ENDCHAR
STARTCHAR 5499
ENCODING 21657
SWIDTH 520 0
DWIDTH 12 0
BBX 12 12 0 -2
BITMAP
0480
e440
afe0
a500
a520
a540
a580
e500
8b20
1520
21e0
0000
ENDCHAR
STARTCHAR 549A
ENCODING 21658
SWIDTH 520 0
DWIDTH 12 0
BBX 12 12 0 -2
BITMAP
0200
e3c0
a440
aa80
a100
a280
ec40
a320
0080
0700
0080
0000
ENDCHAR
STARTCHAR 549B
ENCODING 21659
SWIDTH 520 0
DWIDTH 12 0
BBX 12 12 0 -2
BITMAP
0100
efe0
a820
a000
afe0
a100
a100
e100
a100
0100
0700
0000
ENDCHAR
STARTCHAR 549D
ENCODING 21661
SWIDTH 520 0
DWIDTH 12 0
BBX 12 12 0 -2
BITMAP
0440
0480
e880
ab20
adc0
a440
a880
e900
9de0
0000
1fe0
0000
ENDCHAR
STARTCHAR 54A3
ENCODING 21667
SWIDTH 520 0
DWIDTH 12 0
BBX 12 12 0 -2
BITMAP
0200
f240
aa40
aa80
a200
bfe0
a500
e500
a520
0920
31e0
0000
ENDCHAR
STARTCHAR 54A4
ENCODING 21668
SWIDTH 520 0
DWIDTH 12 0
BBX 12 12 0 -2
BITMAP
0100
efe0
a820
a180
ae00
a200
a3c0
ee00
a220
0220
03e0
0000
ENDCHAR
STARTCHAR 54A6
ENCODING 21670
SWIDTH 520 0
DWIDTH 12 0
BBX 12 12 0 -2
BITMAP
0200
ffe0
a200
afc0
a240
afc0
ea00
afc0
8540
0880
3060
0000
ENDCHAR
STARTCHAR 54A7
ENCODING 21671
SWIDTH 520 0
DWIDTH 12 0
BBX 12 12 0 -2
BITMAP
0020
ff20
a8a0
aea0
aaa0
baa0
e6a0
a2a0
8420
0820
30e0
0000
ENDCHAR
STARTCHAR 54A8
ENCODING 21672
SWIDTH 520 0
DWIDTH 12 0
BBX 12 12 0 -2
BITMAP
4400
27c0
2a40
5200
c500
5880
6060
3f80
2080
2080
3f80
0000
ENDCHAR
STARTCHAR 54A9
ENCODING 21673
SWIDTH 520 0
DWIDTH 12 0
BBX 12 12 0 -2
BITMAP
0440
f280
9fe0
9100
9100
97c0
f100
9fe0
0100
0100
0100
0000
ENDCHAR
STARTCHAR 54AA
ENCODING 21674
SWIDTH 520 0
DWIDTH 12 0
BBX 12 12 0 -2
BITMAP
0200
ea40
a680
a200
afe0
a200
a700
ea80
9240
2220
0200
0000
ENDCHAR
STARTCHAR 54AB
ENCODING 21675
SWIDTH 520 0
DWIDTH 12 0
BBX 12 12 0 -2
BITMAP
7bc0
4a40
4a40
4a40
7bc0
5000
5140
5220
4820
8600
81e0
0000
ENDCHAR
STARTCHAR 54AC
ENCODING 21676
SWIDTH 520 0
DWIDTH 12 0
BBX 12 12 0 -2
BITMAP
0200
f100
9fe0
9280
9440
9aa0
9280
f100
9300
0480
1860
0000
ENDCHAR
STARTCHAR 54AD
ENCODING 21677
SWIDTH 520 0
DWIDTH 12 0
BBX 12 12 0 -2
BITMAP
0100
e100
afe0
a100
a100
afc0
e000
a7c0
8440
0440
07c0
0000
ENDCHAR
STARTCHAR 54AF
ENCODING 21679
SWIDTH 520 0
DWIDTH 12 0
BBX 12 12 0 -2
BITMAP
0400
e7c0
a440
aa80
b100
a280
ec60
97c0
0440
0440
07c0
0000
ENDCHAR
STARTCHAR 54B1
ENCODING 21681
SWIDTH 520 0
DWIDTH 12 0
BBX 12 12 0 -2
BITMAP
0100
f7e0
9420
9420
97e0
9420
9420
f7e0
0420
0420
07e0
0000
ENDCHAR
STARTCHAR 54B3
ENCODING 21683
SWIDTH 520 0
DWIDTH 12 0
BBX 12 12 0 -2
BITMAP
0200
f100
9fe0
9200
9480
9700
9240
f480
9980
0240
1c20
0000
ENDCHAR
STARTCHAR 54B4
ENCODING 21684
SWIDTH 520 0
DWIDTH 12 0
BBX 12 12 0 -2
BITMAP
0200
efe0
a400
a500
a500
a520
eb40
a980
9280
2440
0820
0000
ENDCHAR
STARTCHAR 54B8
ENCODING 21688
SWIDTH 520 0
DWIDTH 12 0
BBX 12 12 0 -2
BITMAP
0140
0140
7fe0
4100
7d40
4140
5d80
5500
5da0
8260
8c20
0000
ENDCHAR
STARTCHAR 54BB
ENCODING 21691
SWIDTH 520 0
DWIDTH 12 0
BBX 12 12 0 -2
BITMAP
0500
e500
a900
afe0
b900
a980
eb80
ad40
a920
0900
0900
0000
ENDCHAR
STARTCHAR 54BD
ENCODING 21693
SWIDTH 520 0
DWIDTH 12 0
BBX 12 12 0 -2
BITMAP
0fe0
e820
a920
afe0
a920
a920
eaa0
ac60
0820
0fe0
0820
0000
ENDCHAR
STARTCHAR 54BF
ENCODING 21695
SWIDTH 520 0
DWIDTH 12 0
BBX 12 12 0 -2
BITMAP
0400
e7c0
a940
afe0
b940
a940
efc0
a900
0900
0a00
0c00
0000
ENDCHAR
STARTCHAR 54C0
ENCODING 21696
SWIDTH 520 0
DWIDTH 12 0
BBX 12 12 0 -2
BITMAP
0400
ffe0
0000
3f80
2080
3f80
0c40
1280
3100
d480
1860
0000
ENDCHAR
STARTCHAR 54C1
ENCODING 21697
SWIDTH 520 0
DWIDTH 12 0
BBX 12 12 0 -2
BITMAP
1f80
1080
1080
1f80
1080
0000
7be0
4a20
4a20
7be0
4a20
0000
ENDCHAR
STARTCHAR 54C2
ENCODING 21698
SWIDTH 520 0
DWIDTH 12 0
BBX 12 12 0 -2
BITMAP
0fe0
e280
a280
afe0
aaa0
aaa0
aaa0
ece0
8820
0820
0fe0
0000
ENDCHAR
STARTCHAR 54C4
ENCODING 21700
SWIDTH 520 0
DWIDTH 12 0
BBX 12 12 0 -2
BITMAP
0480
e480
bfe0
a480
a480
a480
bfe0
e000
0480
0840
3020
0000
ENDCHAR
STARTCHAR 54C6
ENCODING 21702
SWIDTH 520 0
DWIDTH 12 0
BBX 12 12 0 -2
BITMAP
0200
f3c0
9440
9a80
9300
9d00
f3e0
9440
0a80
0300
1c00
0000
ENDCHAR
STARTCHAR 54C7
ENCODING 21703
SWIDTH 520 0
DWIDTH 12 0
BBX 12 12 0 -2
BITMAP
0100
f100
97c0
9100
9100
9fe0
9100
f7c0
9100
0100
1fe0
0000
ENDCHAR
STARTCHAR 54C8
ENCODING 21704
SWIDTH 520 0
DWIDTH 12 0
BBX 12 12 0 -2
BITMAP
0100
f100
9280
9440
9fe0
9000
97c0
f440
8440
07c0
0440
0000
ENDCHAR
STARTCHAR 54C9
ENCODING 21705
SWIDTH 520 0
DWIDTH 12 0
BBX 12 12 0 -2
BITMAP
1100
1140
fd20
1100
ffe0
0100
7d40
4580
7d20
42a0
0c60
0000
ENDCHAR
STARTCHAR 54CC
ENCODING 21708
SWIDTH 520 0
DWIDTH 12 0
BBX 12 12 0 -2
BITMAP
01c0
ee00
a8c0
ab80
aaa0
aac0
ea80
aa80
0a40
1340
2220
0000
ENDCHAR
STARTCHAR 54CD
ENCODING 21709
SWIDTH 520 0
DWIDTH 12 0
BBX 12 12 0 -2
BITMAP
0100
efe0
a820
a820
aba0
aaa0
aaa0
eba0
0820
0820
08e0
0000
ENDCHAR
STARTCHAR 54CE
ENCODING 21710
SWIDTH 520 0
DWIDTH 12 0
BBX 12 12 0 -2
BITMAP
0480
efe0
a480
a000
a480
a480
a480
e300
0300
0480
3860
0000
ENDCHAR
STARTCHAR 54CF
ENCODING 21711
SWIDTH 520 0
DWIDTH 12 0
BBX 12 12 0 -2
BITMAP
07c0
f440
97c0
9440
9440
97c0
f520
9540
0480
0640
0420
0000
ENDCHAR
STARTCHAR 54D0
ENCODING 21712
SWIDTH 520 0
DWIDTH 12 0
BBX 12 12 0 -2
BITMAP
0fe0
e800
abc0
a900
a900
abc0
e900
a900
0bc0
0800
0fe0
0000
ENDCHAR
STARTCHAR 54D1
ENCODING 21713
SWIDTH 520 0
DWIDTH 12 0
BBX 12 12 0 -2
BITMAP
0040
ffe0
a500
b520
b520
ad40
ad40
e580
8500
0500
3fe0
0000
ENDCHAR
STARTCHAR 54D2
ENCODING 21714
SWIDTH 520 0
DWIDTH 12 0
BBX 12 12 0 -2
BITMAP
0080
e880
a880
a3e0
b880
a880
e940
a920
8a20
0c00
13e0
0000
ENDCHAR
STARTCHAR 54D3
ENCODING 21715
SWIDTH 520 0
DWIDTH 12 0
BBX 12 12 0 -2
BITMAP
0200
e3e0
ae00
a2a0
a3a0
a460
efc0
a500
8520
0920
31e0
0000
ENDCHAR
STARTCHAR 54D4
ENCODING 21716
SWIDTH 520 0
DWIDTH 12 0
BBX 12 12 0 -2
BITMAP
0900
e920
afc0
a900
af20
a9e0
e200
bfe0
a200
0200
0200
0000
ENDCHAR
STARTCHAR 54D5
ENCODING 21717
SWIDTH 520 0
DWIDTH 12 0
BBX 12 12 0 -2
BITMAP
0100
e920
a920
afe0
a200
a3c0
e440
aa80
9100
0200
1c00
0000
ENDCHAR
STARTCHAR 54D7
ENCODING 21719
SWIDTH 520 0
DWIDTH 12 0
BBX 12 12 0 -2
BITMAP
0480
e4a0
acc0
b580
a6a0
a4e0
e500
a100
1fe0
0100
0100
0000
ENDCHAR
STARTCHAR 54D9
ENCODING 21721
SWIDTH 520 0
DWIDTH 12 0
BBX 12 12 0 -2
BITMAP
0200
e300
a480
a840
b7a0
a000
afe0
e200
0480
0840
0fc0
0000
ENDCHAR
STARTCHAR 54DA
ENCODING 21722
SWIDTH 520 0
DWIDTH 12 0
BBX 12 12 0 -2
BITMAP
0780
e480
a480
a880
b160
a100
ffe0
a500
0980
1140
2120
0000
ENDCHAR
STARTCHAR 54DC
ENCODING 21724
SWIDTH 520 0
DWIDTH 12 0
BBX 12 12 0 -2
BITMAP
0100
ffe0
a480
a300
a480
b860
e480
a480
0480
0880
1080
0000
ENDCHAR
STARTCHAR 54DD
ENCODING 21725
SWIDTH 520 0
DWIDTH 12 0
BBX 12 12 0 -2
BITMAP
0200
e200
afe0
aa20
a200
a540
a580
ed00
9480
2540
0620
0000
ENDCHAR
STARTCHAR 54DE
ENCODING 21726
SWIDTH 520 0
DWIDTH 12 0
BBX 12 12 0 -2
BITMAP
0280
e440
afe0
a100
a500
afc0
e900
afe0
8100
0100
0100
0000
ENDCHAR
STARTCHAR 54DF
ENCODING 21727
SWIDTH 520 0
DWIDTH 12 0
BBX 12 12 0 -2
BITMAP
0480
e480
aae0
ab20
ad20
a4a0
a8a0
ee20
a020
0720
18c0
0000
ENDCHAR
STARTCHAR 54E5
ENCODING 21733
SWIDTH 520 0
DWIDTH 12 0
BBX 12 12 0 -2
BITMAP
ffe0
3c80
2480
3c80
0080
ffe0
3c80
2480
3c80
2480
0380
0000
ENDCHAR
STARTCHAR 54E6
ENCODING 21734
SWIDTH 520 0
DWIDTH 12 0
BBX 12 12 0 -2
BITMAP
0680
fcc0
a4a0
bfe0
a480
a6a0
ecc0
b480
05a0
0660
1c20
0000
ENDCHAR
STARTCHAR 54E7
ENCODING 21735
SWIDTH 520 0
DWIDTH 12 0
BBX 12 12 0 -2
BITMAP
0100
efc0
a100
a100
bfe0
a280
eac0
aaa0
14a0
0880
1380
0000
ENDCHAR
STARTCHAR 54E8
ENCODING 21736
SWIDTH 520 0
DWIDTH 12 0
BBX 12 12 0 -2
BITMAP
0100
e940
a580
afc0
a840
afc0
a840
efc0
0840
0840
09c0
0000
ENDCHAR
STARTCHAR 54E9
ENCODING 21737
SWIDTH 520 0
DWIDTH 12 0
BBX 12 12 0 -2
BITMAP
0fc0
e940
a940
afc0
a940
afc0
e100
afe0
8100
0100
1fe0
0000
ENDCHAR
STARTCHAR 54EA
ENCODING 21738
SWIDTH 520 0
DWIDTH 12 0
BBX 12 12 0 -2
BITMAP
1ee0
eaa0
aaa0
bec0
aaa0
aaa0
fea0
8aa0
0ae0
1680
2080
0000
ENDCHAR
STARTCHAR 54ED
ENCODING 21741
SWIDTH 520 0
DWIDTH 12 0
BBX 12 12 0 -2
BITMAP
7bc0
4a40
4a40
7bc0
0500
0480
ffe0
0400
0a00
1100
e0e0
0000
ENDCHAR
STARTCHAR 54EE
ENCODING 21742
SWIDTH 520 0
DWIDTH 12 0
BBX 12 12 0 -2
BITMAP
0240
efc0
a280
bfe0
a200
afc0
e880
1100
6fe0
0100
0700
0000
ENDCHAR
STARTCHAR 54F2
ENCODING 21746
SWIDTH 520 0
DWIDTH 12 0
BBX 12 12 0 -2
BITMAP
13e0
fa00
13e0
fa80
1480
7880
0000
3f80
2080
2080
3f80
0000
ENDCHAR
STARTCHAR 54F3
ENCODING 21747
SWIDTH 520 0
DWIDTH 12 0
BBX 12 12 0 -2
BITMAP
0860
e980
bf00
a900
a9e0
ad40
f940
a940
8a40
0a40
1c40
0000
ENDCHAR
STARTCHAR 54FA
ENCODING 21754
SWIDTH 520 0
DWIDTH 12 0
BBX 12 12 0 -2
BITMAP
0280
e240
bfe0
a200
afc0
aa40
afc0
ea40
0fc0
0a40
0ac0
0000
ENDCHAR
ENDFONT
